<?xml version="1.0" encoding="UTF-8"?>
<svg width="132px" height="143px" viewBox="0 0 132 143" version="1.1" xmlns="http://www.w3.org/2000/svg" xmlns:xlink="http://www.w3.org/1999/xlink">
    <!-- Generator: Sketch 52.2 (67145) - http://www.bohemiancoding.com/sketch -->
    <title>protection</title>
    <desc>Created with Sketch.</desc>
    <defs>
        <linearGradient x1="32.2425486%" y1="27.5939011%" x2="117.627568%" y2="105.803947%" id="linearGradient-1">
            <stop stop-color="#62E1FB" offset="0%"></stop>
            <stop stop-color="#00A2F3" offset="100%"></stop>
        </linearGradient>
        <linearGradient x1="82.3810603%" y1="50.0011098%" x2="-32.5238087%" y2="50.0011098%" id="linearGradient-2">
            <stop stop-color="#00A2F3" stop-opacity="0" offset="0%"></stop>
            <stop stop-color="#0075CD" offset="100%"></stop>
        </linearGradient>
        <linearGradient x1="30.6644137%" y1="26.149239%" x2="83.6233536%" y2="74.6576185%" id="linearGradient-3">
            <stop stop-color="#A7F3CE" offset="0%"></stop>
            <stop stop-color="#61DB99" offset="100%"></stop>
        </linearGradient>
        <linearGradient x1="84.0617032%" y1="50.0011483%" x2="-46.2100285%" y2="50.0011483%" id="linearGradient-4">
            <stop stop-color="#61DB99" stop-opacity="0" offset="0%"></stop>
            <stop stop-color="#009E74" offset="100%"></stop>
        </linearGradient>
        <linearGradient x1="49.9973589%" y1="31.776207%" x2="49.9973589%" y2="111.920757%" id="linearGradient-5">
            <stop stop-color="#FFF465" offset="0%"></stop>
            <stop stop-color="#FFE600" offset="100%"></stop>
        </linearGradient>
    </defs>
    <g id="Page-1" stroke="none" stroke-width="1" fill="none" fill-rule="evenodd">
        <g id="О-нас" transform="translate(-1329.000000, -1835.000000)">
            <g id="Group-10" transform="translate(320.000000, 1719.000000)">
                <g id="customer-problems" transform="translate(0.000000, 110.000000)">
                    <g id="Group-27" transform="translate(863.000000, 6.000000)">
                        <g id="protection-2" transform="translate(146.000000, 0.000000)">
                            <g id="protection">
                                <path d="M131.112287,34.5286348 C131.067879,31.3298477 128.665926,28.6647969 125.493113,28.2547891 C96.2116289,24.4700371 75.8816094,7.97029492 68.5992227,1.16857812 C66.9309824,-0.389619141 64.3379902,-0.389619141 62.66975,1.16857812 C55.3873633,7.97029492 35.057623,24.4700371 5.77585937,28.2547891 C2.60332617,28.6647969 0.20109375,31.330127 0.156685547,34.5286348 C-0.132386719,55.4756211 3.48199414,127.461877 65.6347656,143 C127.787816,127.461877 131.402197,55.4756211 131.112287,34.5286348 Z" id="Path" fill="url(#linearGradient-1)"></path>
                                <path d="M74.4812148,140.272666 C74.9166387,140.111512 75.3489902,139.947285 75.7779902,139.780266 C76.3321152,139.564369 76.8806543,139.343445 77.4238867,139.117494 C77.7811074,138.968908 78.1360937,138.818088 78.4885664,138.665592 C79.0438086,138.425117 79.5940234,138.180174 80.1378145,137.929365 C80.3422598,137.835242 80.5453086,137.739723 80.7480781,137.644203 C81.249416,137.407639 81.7454473,137.166326 82.2367305,136.921383 C82.9497754,136.565838 83.6527656,136.201635 84.3451426,135.828773 C85.0067969,135.472391 85.6611895,135.109584 86.3044102,134.737561 C87.0431504,134.310236 87.7693223,133.872857 88.4843223,133.425982 C88.5005215,133.415648 88.5172793,133.405873 88.5340371,133.395818 C89.8936543,132.544521 91.2083047,131.656916 92.4830156,130.738309 C92.5788145,130.669322 92.6762891,130.601453 92.7715293,130.532187 C93.7018672,129.855172 94.6079062,129.159443 95.4938359,128.448912 C95.5820937,128.37825 95.6720273,128.308426 95.7597266,128.237484 C96.2613437,127.831387 96.7540234,127.418586 97.2416758,127.002154 C97.6963711,126.613932 98.1474355,126.222916 98.5901211,125.826035 C98.7398242,125.691973 98.8864551,125.555676 99.0347617,125.420775 C99.1897715,125.27973 99.3458984,125.139523 99.4995117,124.997082 C99.9558828,124.574227 100.404154,124.145506 100.847398,123.713713 C100.987326,123.577416 101.12865,123.442236 101.267182,123.305102 C101.747852,122.829738 102.219025,122.34851 102.684893,121.863092 C102.779016,121.765059 102.875094,121.667305 102.968658,121.568992 C103.516918,120.991406 104.054285,120.407117 104.581877,119.816125 C104.589418,119.807467 104.597238,119.799088 104.605059,119.790709 C105.272857,119.041914 105.922223,118.281668 106.557344,117.512764 C106.939143,117.050807 107.317311,116.586057 107.687658,116.117117 C108.418857,115.191248 109.127154,114.252252 109.814225,113.302363 C109.822045,113.29175 109.829865,113.281137 109.837686,113.270244 C109.99884,113.047086 110.156922,112.822811 110.316121,112.598535 C110.385387,112.500781 110.456049,112.403307 110.524756,112.305273 C110.636195,112.146633 110.744842,111.986875 110.855164,111.827396 C110.969117,111.662611 111.084187,111.498105 111.197303,111.332762 C111.565416,110.792043 111.92515,110.247693 112.280137,109.70083 C112.77952,108.931088 113.26773,108.156039 113.741139,107.374846 C114.324311,106.413506 114.887373,105.443508 115.43284,104.466807 C115.455742,104.425191 115.479762,104.384414 115.502664,104.342799 C115.623879,104.125227 115.742301,103.906537 115.861561,103.688406 C115.928313,103.566074 115.996461,103.44458 116.062654,103.321969 C116.402279,102.694109 116.733246,102.063178 117.057789,101.43057 C117.085719,101.375828 117.114766,101.321086 117.142695,101.266623 C117.273686,101.009949 117.402441,100.752717 117.530639,100.495205 C117.574488,100.407506 117.619176,100.320365 117.663025,100.232387 C117.733688,100.090225 117.802115,99.9475039 117.871939,99.8050625 C118.310994,98.9101953 118.737201,98.011418 119.148047,97.1087305 C119.873939,95.5145039 120.555703,93.9099434 121.197807,92.3009141 C121.398342,91.798459 121.596363,91.2957246 121.788799,90.7927109 C122.29684,89.4657715 122.776951,88.1365977 123.232205,86.8077031 C123.260414,86.724752 123.29002,86.6420801 123.318229,86.5591289 C123.404531,86.305248 123.488879,86.0516465 123.573506,85.7974863 C123.606463,85.6986152 123.640537,85.5994648 123.672936,85.5005938 C123.994406,84.5269648 124.301633,83.5541738 124.59685,82.5830586 C124.622545,82.4984316 124.649357,82.4135254 124.674773,82.3283398 C124.830062,81.8133164 124.980604,81.2991309 125.128631,80.7852246 C125.293975,80.2121074 125.455687,79.6395488 125.612373,79.0681074 C125.846703,78.2123418 126.070979,77.3590898 126.286316,76.5089102 C126.414793,76.0028242 126.541035,75.4972969 126.662529,74.9937246 C126.716434,74.771125 126.768383,74.5493633 126.82117,74.327043 C126.850217,74.2041523 126.880102,74.0812617 126.908869,73.9583711 C127.050752,73.3520176 127.187328,72.7478984 127.320273,72.1457344 C127.338428,72.0633418 127.35742,71.9809492 127.375295,71.8985566 C127.485338,71.3958223 127.591191,70.8953223 127.694811,70.3959395 C127.753184,70.1152461 127.810998,69.8351113 127.867137,69.5555352 C127.980811,68.9935898 128.091133,68.4335996 128.197266,67.8769609 C128.199779,67.863834 128.202572,67.8504277 128.204807,67.8370215 C128.303678,67.3161328 128.398918,66.7977578 128.491645,66.2816172 C128.577668,65.8023438 128.662016,65.3247461 128.743012,64.8499414 C128.837135,64.2972129 128.927068,63.7486738 129.01393,63.2023691 C129.030408,63.09875 129.047445,62.994293 129.063924,62.8909531 C129.078447,62.7990645 129.091854,62.7080137 129.106377,62.616125 C129.142127,62.3848672 129.178436,62.1533301 129.213348,61.9231895 C129.298254,61.3615234 129.378971,60.8043262 129.456895,60.2510391 C129.468066,60.1706016 129.480076,60.0896055 129.491248,60.0094473 C129.519736,59.8030469 129.547666,59.598043 129.575316,59.3927598 C129.590119,59.2835547 129.605201,59.1740703 129.620004,59.0654238 C129.632293,58.9726973 129.643744,58.8808086 129.656313,58.7886406 C129.767752,57.943209 129.87165,57.107832 129.967449,56.2844648 C130.177201,54.4849551 130.350924,52.7407461 130.494762,51.0621719 C130.496996,51.0370352 130.49923,51.0110605 130.501465,50.9859238 C130.537494,50.5658613 130.57073,50.1511055 130.60257,49.7397012 C130.61849,49.5330215 130.63441,49.3269004 130.649771,49.1224551 C130.720713,48.1706113 130.781879,47.2430664 130.834387,46.3409375 C130.854217,45.9985195 130.873768,45.6583359 130.891084,45.3240176 C130.927951,44.6254961 130.958953,43.9454082 130.985766,43.2815195 C130.993586,43.086291 131.001127,42.8930176 131.008109,42.7008613 C131.046932,41.6593633 131.074582,40.6633906 131.093016,39.7188086 C131.093295,39.7017715 131.093854,39.6841758 131.094133,39.6668594 C131.114242,38.61 131.12318,37.6179375 131.123738,36.6948613 C131.123738,36.6764277 131.123738,36.656877 131.123738,36.6384434 C131.124018,35.8874141 131.118711,35.1833066 131.109773,34.5286348 C131.065365,31.3292891 128.663133,28.663959 125.489762,28.2536719 C124.673098,28.1480977 123.86565,28.0291172 123.06323,27.9042715 C122.885318,27.8766211 122.707127,27.8489707 122.530053,27.8204824 C121.747742,27.6942402 120.971018,27.5607363 120.202393,27.4171777 C120.087043,27.3956719 119.973648,27.3722109 119.858857,27.3504258 C119.160336,27.2172012 118.467959,27.0769941 117.780609,26.930084 C117.632861,26.8988027 117.484555,26.8680801 117.337365,26.8359609 C116.58857,26.6725723 115.846758,26.5008047 115.111928,26.322334 C114.957477,26.2846289 114.804422,26.2458066 114.650529,26.207543 C113.971,26.0388477 113.297336,25.8648457 112.630375,25.6838613 C112.543793,25.6604004 112.456373,25.6380566 112.369791,25.6145957 C111.645574,25.4160156 110.930295,25.2090566 110.220322,24.9970703 C110.059168,24.948752 109.898572,24.9004336 109.737977,24.8515566 C109.027445,24.6353809 108.321941,24.4150156 107.626213,24.1865508 C107.588229,24.1742617 107.551361,24.1611348 107.513377,24.1485664 C106.843902,23.9276426 106.182807,23.7002949 105.527297,23.4684785 C105.378711,23.4159707 105.229566,23.3640215 105.081539,23.3106758 C104.414299,23.0715977 103.753203,22.8277715 103.100766,22.578918 C102.989605,22.5364648 102.8804,22.4931738 102.76952,22.4504414 C102.179086,22.2225352 101.594797,21.990998 101.016652,21.7555508 C100.90242,21.7089082 100.78735,21.6633828 100.673676,21.6167402 C100.039672,21.355877 99.4140469,21.0911035 98.7956836,20.8224199 C98.6607832,20.7637676 98.5272793,20.7048359 98.3932168,20.6461836 C97.8094863,20.3895098 97.2310625,20.1308809 96.6612969,19.8680625 C96.6093477,19.8443223 96.5568398,19.8208613 96.5051699,19.7968418 C95.8985371,19.5158691 95.3016797,19.2309863 94.7109668,18.9438691 C94.5771836,18.878793 94.443959,18.8137168 94.3107344,18.7486406 C93.7267246,18.462082 93.1485801,18.1732891 92.5807695,17.8817031 C92.5243516,17.8529355 92.4696094,17.8233301 92.4134707,17.7945625 C91.8833652,17.5211309 91.3610801,17.2454648 90.8452187,16.9686816 C90.728752,16.9061191 90.6122852,16.8441152 90.496377,16.7815527 C89.9534238,16.4877324 89.4185703,16.1927949 88.8920957,15.8964609 C88.792666,15.8403223 88.6946328,15.7839043 88.5957617,15.7280449 C88.1203984,15.4585234 87.6517383,15.1881641 87.1900605,14.9172461 C87.107668,14.8686484 87.0238789,14.8206094 86.9417656,14.7720117 C86.4342832,14.4723262 85.9362969,14.1723613 85.445293,13.8718379 C85.33525,13.8045273 85.2266035,13.7372168 85.1173984,13.6699063 C84.6361699,13.373293 84.1608066,13.0764004 83.6957773,12.7800664 C83.6801367,12.7700117 83.6639375,12.759957 83.6477383,12.7499023 C83.1690234,12.4443516 82.7020391,12.1393594 82.2409199,11.8352051 C82.1375801,11.7667773 82.0342402,11.6986289 81.9317383,11.6304805 C81.4831875,11.3324707 81.0413398,11.0350195 80.6101055,10.7395234 C80.552291,10.6998633 80.4964316,10.6607617 80.4391758,10.6211016 C80.0448086,10.349625 79.6588203,10.0798242 79.2795352,9.81169922 C79.1957461,9.75220898 79.1111191,9.69271875 79.0276094,9.63378711 C78.6201152,9.34387695 78.2215586,9.05620117 77.8316602,8.77103906 C77.751502,8.71210742 77.6730195,8.65401367 77.5936992,8.59591992 C77.2395508,8.33505664 76.8921055,8.07670703 76.5524805,7.8205918 C76.5016484,7.78204883 76.4494199,7.74350586 76.3988672,7.70496289 C76.0282402,7.42426953 75.6682266,7.14720703 75.3157539,6.8732168 C75.2350371,6.810375 75.1557168,6.74837109 75.0758379,6.68580859 C74.7244824,6.41098047 74.3789922,6.13866602 74.0463496,5.8719375 C74.0393672,5.86635156 74.0329434,5.86104492 74.0259609,5.85545898 C73.6955527,5.59040625 73.3779922,5.33121875 73.0665762,5.07510352 C72.996752,5.01756836 72.9269277,4.9603125 72.8579414,4.90361523 C72.5532285,4.65141016 72.2563359,4.40367383 71.9700566,4.16180273 C71.924252,4.12298047 71.8812402,4.08611328 71.8359941,4.04757031 C71.5776445,3.82832227 71.3276738,3.61354297 71.0849648,3.40323242 C71.0346914,3.35966211 70.9835801,3.3155332 70.9338652,3.27224219 C70.6707676,3.04349805 70.4180039,2.82089844 70.1738984,2.60360547 C70.1216699,2.55696289 70.0716758,2.51227539 70.0202852,2.46619141 C69.7974062,2.26677344 69.5812305,2.07210352 69.3745508,1.88413672 C69.3499727,1.86179297 69.3237187,1.83805273 69.2994199,1.81598828 C69.076541,1.61238086 68.8662305,1.41799023 68.6631816,1.22890625 C68.6425137,1.20935547 68.6182148,1.18757031 68.5975469,1.16829883 C67.7655215,0.389339844 66.7000039,0 65.6347656,0 L65.6347656,143 C67.013375,142.655348 68.3618203,142.281648 69.6834531,141.882533 C71.3262773,141.386502 72.9244141,140.848576 74.4812148,140.272666 Z" id="Path" fill="url(#linearGradient-2)"></path>
                                <path d="M123.347834,38.9127578 C123.308732,36.0935352 121.191662,33.7443691 118.395342,33.382959 C92.5860762,30.0470371 74.6669473,15.5040488 68.2484258,9.50894141 C66.7779277,8.13563867 64.4924414,8.13563867 63.0222227,9.50894141 C56.6034219,15.5040488 38.6845723,30.0470371 12.8753066,33.382959 C10.0789863,33.7443691 7.96163672,36.0935352 7.92281445,38.9127578 C7.66669922,57.3756777 10.8523594,120.825504 65.6347656,134.521105 C120.417451,120.825504 123.603111,57.3756777 123.347834,38.9127578 Z" id="Path" fill="url(#linearGradient-3)"></path>
                                <path d="M65.6347656,129.665809 L64.988752,129.504375 C53.3683262,126.599129 43.4289883,120.995875 35.4469629,112.849902 C28.8209238,106.087566 23.4966875,97.5271172 19.6217227,87.4065156 C12.887875,69.8186328 12.093834,51.9140273 12.2197969,42.8064355 C12.2717461,39.0348105 15.1420801,35.8248516 18.8958301,35.3397129 C40.7779023,32.5112734 55.9931582,20.2012637 61.5190469,15.0398574 C63.8265977,12.8842441 67.442375,12.8845234 69.7502051,15.0395781 C75.2760938,20.2012637 90.4913496,32.5112734 112.373143,35.3397129 C116.127451,35.8251309 118.997785,39.0353691 119.049455,42.8064355 C119.287137,59.9907344 116.184986,117.028184 66.2805,129.504654 L65.6347656,129.665809 Z M65.6347656,18.7424961 C65.4618809,18.7424961 65.2889961,18.8053379 65.1540957,18.9313008 C59.2514355,24.4443418 42.9949609,37.5941973 19.5787109,40.6206582 C18.4352695,40.7684062 17.560791,41.7400801 17.5448711,42.8798906 C17.3219922,58.9983926 20.1476387,112.30667 65.6347656,124.172598 C111.121893,112.30667 113.947818,58.9983926 113.724939,42.8798906 C113.70902,41.7398008 112.83482,40.7684062 111.69082,40.6206582 C88.2748496,37.5941973 72.0180957,24.4443418 66.1157148,18.9313008 C65.9805352,18.8053379 65.8079297,18.7424961 65.6347656,18.7424961 Z" id="Shape" fill="#FFFFFF" fill-rule="nonzero"></path>
                                <path d="M123.347834,38.9127578 C123.308732,36.0935352 121.191662,33.7443691 118.395342,33.382959 C92.5860762,30.0470371 74.6669473,15.5040488 68.2484258,9.50894141 C67.5133164,8.82215039 66.5743203,8.47889453 65.6350449,8.47889453 L65.6350449,134.521385 C120.417451,120.825504 123.603111,57.3756777 123.347834,38.9127578 Z" id="Path" fill="url(#linearGradient-4)"></path>
                                <path d="M100.063971,49.3023223 C102.048096,51.2864473 102.047816,54.5028301 100.063691,56.4866758 L71.2871758,85.2598398 C65.9830488,90.5642461 57.3516582,90.5642461 52.0511621,85.2598398 L41.1460156,74.3546934 C39.1624492,72.371127 39.1618906,69.1553027 41.1451777,67.171457 C43.1290234,65.1867734 46.3459648,65.1862148 48.3300898,67.1706191 L59.2332813,78.0738105 C60.5753027,79.415832 62.7621973,79.415832 64.1008672,78.0738105 L92.8776621,49.3000879 C94.8615078,47.3162422 98.0778906,47.3165215 100.061457,49.3003672 L100.063971,49.3023223 Z" id="Path" fill="url(#linearGradient-5)"></path>
                            </g>
                        </g>
                    </g>
                </g>
            </g>
        </g>
    </g>
</svg>