<?xml version="1.0" encoding="UTF-8"?>
<svg width="143px" height="143px" viewBox="0 0 143 143" version="1.1" xmlns="http://www.w3.org/2000/svg" xmlns:xlink="http://www.w3.org/1999/xlink">
    <!-- Generator: Sketch 52.2 (67145) - http://www.bohemiancoding.com/sketch -->
    <title>conversation</title>
    <desc>Created with Sketch.</desc>
    <g id="Page-1" stroke="none" stroke-width="1" fill="none" fill-rule="evenodd">
        <g id="О-нас" transform="translate(-1215.000000, -2284.000000)">
            <g id="Group-10" transform="translate(320.000000, 1719.000000)">
                <g id="customer-problems" transform="translate(0.000000, 110.000000)">
                    <g id="Group-27" transform="translate(652.000000, 455.000000)">
                        <g id="conversation" transform="translate(243.000000, 0.000000)">
                            <polygon id="Path" fill="#415A6B" points="72.7942335 142.44358 70.4202665 129.386344 43.7120953 138.289068 45.1957899 142.44358"></polygon>
                            <path d="M78.1358677,89.3240875 L80.8066848,86.9501206 C80.8066848,86.9501206 90.3028307,95.2594222 86.7417412,98.2268113 C83.4775019,101.491051 77.8390175,91.9949047 78.1358677,89.3240875 Z" id="Path" fill="#344A5E"></path>
                            <path d="M79.3229903,89.3240875 C79.3229903,89.3240875 80.8066848,88.4338152 80.8066848,87.840393 C80.8066848,87.2469708 81.6969572,86.0598482 82.5872296,84.5761537 C83.7743521,83.0924591 85.5548969,81.9053366 86.1483191,81.3119144 C86.7417412,80.7184922 88.8191362,76.8605525 89.7094086,76.2671304 C90.3028307,75.6737082 91.1931031,76.2671304 91.4899533,76.2671304 C91.7868035,76.5639805 91.4899533,77.4542529 91.1931031,78.3445253 C90.8962529,79.2347977 88.2254358,82.499037 87.9288638,83.0927374 C87.6320136,83.6861595 88.225714,83.9830097 89.1159864,84.2798599 C90.0062588,84.2798599 93.8641984,84.5767101 95.0510428,83.6864377 C96.2381654,83.0930156 96.5347374,83.0930156 97.4250097,83.0930156 C98.0184319,82.7961654 101.579521,80.7190486 102.469794,83.0930156 L100.689249,84.2801381 C100.689249,84.2801381 98.6118541,85.4672607 97.4250097,86.0606829 C96.2378872,86.3575331 94.4573424,87.2478054 94.4573424,87.2478054 C94.4573424,87.2478054 94.4573424,88.1380778 94.7541926,88.7315 C95.0510428,89.3249222 94.4573424,90.5120447 93.8639202,90.8088949 C93.8639202,90.8088949 93.8639202,91.9960175 93.2704981,92.8862899 C92.6770759,93.7765623 92.6770759,93.7765623 92.3802257,94.3699844 C92.0833755,94.9634066 90.8965311,95.557107 90.0062588,95.557107 C89.1159864,95.557107 86.4451693,96.7442296 84.9614747,97.0408016 C83.4777802,97.6342237 76.3556012,98.2279241 76.3556012,98.2279241 C76.3556012,98.2279241 73.6845058,91.6980545 79.3229903,89.3240875 Z" id="Path" fill="#F7B64C"></path>
                            <path d="M80.8066848,86.9498424 C80.8066848,86.9498424 77.8390175,89.3238093 80.8066848,94.6654436 C83.7743521,100.007078 86.7417412,98.5233833 86.7417412,98.5233833 C86.7417412,98.5233833 77.5421673,106.238984 73.3876556,107.722957 C69.233144,109.206652 66.8588988,109.206652 66.8588988,109.206652 L64.7815039,94.9622938 C64.7815039,94.9622938 70.4199883,92.5883268 72.2005331,92.2914767 C73.9810778,91.9946265 73.9810778,90.5109319 75.1682004,90.2140817 C76.6521732,89.9175097 80.8066848,86.9498424 80.8066848,86.9498424 Z" id="Path" fill="#415A6B"></path>
                            <g id="Group" transform="translate(55.085603, 63.431907)" fill="#344A5E">
                                <path d="M10.8833016,48.4455623 L12.6638463,57.348286 C12.6638463,57.348286 14.1475409,70.9992218 15.9280856,73.0763385 C16.818358,74.2634611 17.1152082,76.9342782 17.4117802,79.0113949 L21.2697198,79.0113949 C20.9728696,77.5277004 20.3794475,75.7471556 19.4891751,73.9666109 C17.4117802,70.1086712 15.9280856,63.8767646 15.6312354,60.6125253 C15.3343852,57.348286 13.5538405,27.9692977 12.6635681,23.8145078 C11.7732957,19.6599961 10.5861732,17.8794514 9.99275097,14.3183619 C9.39932879,10.7572724 9.1024786,3.33824319 7.61878405,1.85454864 C6.13508949,0.66742607 0.199754864,0.0740038911 0.199754864,0.0740038911 C0.199754864,0.0740038911 2.27714981,8.38330545 3.76084436,11.3506946 C4.94796693,14.3186401 10.5864514,42.807356 10.8833016,48.4455623 Z" id="Path"></path>
                                <path d="M4.35454475,14.0217899 C4.35454475,14.3186401 4.35454475,14.3186401 4.65139494,14.6152121 C4.35454475,14.6152121 4.35454475,14.3186401 4.35454475,14.0217899 Z" id="Path"></path>
                            </g>
                            <path d="M60.6272704,37.0945895 L64.7817821,41.8428016 C64.7817821,41.8428016 65.0786323,45.4038911 65.6720545,46.5910136 C65.9689047,47.7781362 63.8915097,49.2618307 63.5946595,49.8552529 C63.2978093,50.4486751 64.7817821,54.3066148 64.7817821,55.7903093 C64.7817821,57.2740039 63.0012374,57.2740039 62.110965,57.2740039 C62.110965,57.2740039 62.110965,60.2416712 60.6272704,59.6479708 C60.6272704,59.6479708 61.814393,60.8350934 60.6272704,61.7253658 C59.4401479,62.6156381 60.9241206,66.4735778 57.3630311,66.1767276 C53.8019416,65.8798774 50.5377023,65.8798774 50.5377023,65.8798774 L50.8345525,78.6405409 L37.7767607,74.7828794 L33.918821,59.648249 C33.918821,59.648249 35.6993658,56.6805817 36.5896381,55.1968872 C37.1830603,53.7131926 43.7118171,40.9525292 43.7118171,40.9525292 L60.6272704,37.0945895 Z" id="Path" fill="#FFD15C"></path>
                            <path d="M50.5374241,65.8801556 C50.5374241,65.8801556 52.3179689,66.1770058 54.6919358,66.1770058 C54.0985136,65.8801556 47.5697568,61.1322218 45.1957899,55.7905875 C45.1957899,55.7905875 46.3829125,64.0998891 50.5374241,69.4415233 L50.5374241,65.8801556 Z" id="Path" fill="#F7B64C"></path>
                            <path d="M69.5299942,132.353733 C67.7494494,135.914823 62.4078152,140.366185 44.3055175,138.88249 L31.8417043,74.7828794 L41.6347004,70.9249397 L44.6023677,72.1120623 C44.6023677,72.1120623 46.3829125,73.5957568 46.9763346,74.7828794 C47.5697568,75.9700019 48.7568794,76.2665739 48.7568794,76.2665739 C48.7568794,76.2665739 50.5374241,72.1120623 50.5374241,70.0346673 C50.5374241,68.2541226 57.0661809,71.8152121 57.0661809,71.8152121 C57.0661809,71.8152121 57.6596031,73.0023346 58.5498755,75.0794514 C58.8467257,75.3763016 59.1432977,76.2665739 59.4401479,77.7502685 C59.4401479,78.0471187 59.4401479,78.0471187 59.7369981,78.3436907 C60.0338482,78.9371128 60.0338482,79.5308132 60.3304202,80.4210856 C60.3304202,80.7179358 60.3304202,80.7179358 60.3304202,81.0145078 L60.3304202,81.311358 L60.3304202,81.6082082 C60.3304202,81.9050584 60.3304202,82.2016304 60.6272704,82.4984805 L60.6272704,82.7953307 L60.6272704,83.0921809 C60.6272704,83.3890311 60.6272704,83.3890311 60.6272704,83.6856031 C60.6272704,83.9821751 60.6272704,84.2790253 60.9241206,84.5758755 C60.9241206,84.8727257 60.9241206,84.8727257 60.9241206,85.1692977 L60.9241206,85.4661479 L60.9241206,85.7629981 C60.9241206,86.0598482 60.9241206,86.0598482 60.9241206,86.3564202 C61.2209708,87.2466926 61.2209708,88.136965 61.5175428,89.0272374 L61.5175428,89.3240875 C61.814393,90.8077821 62.110965,92.5883268 62.4078152,94.3688716 C62.4078152,94.6657218 62.4078152,94.6657218 62.4078152,94.9622938 C62.7046654,95.8525661 62.7046654,96.7428385 63.0012374,97.3362607 C63.0012374,97.6331109 63.0012374,97.9296829 63.0012374,98.2265331 C63.0012374,98.5233833 63.0012374,98.8199553 63.0012374,99.1168054 C63.0012374,99.4136556 63.0012374,99.7102276 63.2980875,100.007078 C63.2980875,100.303928 63.2980875,100.303928 63.2980875,100.6005 C63.2980875,100.89735 63.2980875,101.193922 63.5949377,101.490772 C63.5949377,101.787623 63.5949377,101.787623 63.5949377,102.084195 C63.5949377,102.381045 63.5949377,102.677617 63.8917879,102.974467 L63.8917879,103.271317 C63.8917879,103.568167 63.8917879,103.864739 64.1886381,104.161589 C64.1886381,104.755012 64.4854883,105.348712 64.4854883,105.645284 C64.4854883,105.941856 64.4854883,106.238706 64.4854883,106.238706 C64.4854883,106.535556 64.4854883,106.832128 64.4854883,107.128979 C64.4854883,107.722401 64.4854883,108.019251 64.7823385,108.612673 L64.7823385,108.909523 C64.7823385,109.206374 64.7823385,109.502946 64.7823385,109.799796 C64.7823385,110.096646 64.7823385,110.393218 64.7823385,110.690068 L64.7823385,110.986918 L64.7823385,111.284047 C64.7823385,111.580897 64.7823385,111.877469 64.7823385,112.174319 L66.5628833,121.077043 C67.7494494,120.780193 68.3428716,127.308949 69.5299942,132.353733 Z" id="Path" fill="#CED6E0"></path>
                            <path d="M57.9564533,138.58564 C58.5498755,137.101946 59.4401479,135.617973 59.4401479,134.431128 C59.7369981,132.353733 58.5498755,126.121827 56.7693307,121.670465 C54.988786,117.219103 51.7245467,105.942412 51.1308463,102.381323 C50.5374241,98.8202335 50.5374241,94.3688716 49.3503016,89.9175097 C48.163179,85.4661479 48.163179,80.7179358 48.163179,80.7179358 C48.163179,82.4984805 48.4600292,88.136965 49.0534514,89.9175097 C49.6468735,91.6980545 50.8339961,102.381323 50.8339961,102.381323 C51.4274183,106.832685 54.9885078,117.812804 56.7690525,121.967315 C58.5495973,126.121827 59.1430195,132.947434 59.1430195,134.431128 C59.1432977,135.024551 58.5498755,137.101946 57.9564533,138.58564 Z" id="Path" fill="#ADB3BA"></path>
                            <path d="M47.2731848,142.44358 C48.1634572,138.58564 49.0537296,132.057161 49.0537296,127.902372 C49.0537296,121.373615 45.7894903,113.361163 45.7894903,113.361163 L27.9840428,64.0993327 C27.9840428,64.0993327 17.5976245,67.9572724 12.5525623,70.0343891 C7.5075,72.1115058 6.32065564,74.7826012 6.32065564,74.7826012 L13.1459844,142.44358 L47.2731848,142.44358 Z" id="Path" fill="#344A5E"></path>
                            <path d="M32.4351265,60.2416712 C32.4351265,60.2416712 27.0934922,63.5059105 26.2032198,65.2864553 C25.3129475,67.067 25.3129475,70.3312393 25.3129475,70.3312393 L28.874037,72.4086342 L26.2032198,74.7826012 C26.2032198,74.7826012 49.0534514,117.218825 49.6471518,127.605521 C49.6471518,127.605521 46.6794844,110.096924 44.6023677,100.89735 C42.5249728,91.6980545 32.4351265,63.5061887 32.4351265,60.2416712 Z" id="Path" fill="#415A6B"></path>
                            <path d="M44.6023677,118.703076 L53.5050914,118.703076 C53.5050914,118.703076 54.0985136,118.999926 54.988786,119.593348 C55.5822082,119.890198 57.9564533,121.373893 58.8467257,121.373893 C59.7369981,121.670743 60.0338482,121.967315 60.0338482,121.967315 L62.4078152,122.264165 C62.4078152,122.264165 63.5949377,126.122105 57.3630311,124.34156 L53.8019416,122.857866 C53.8019416,122.857866 56.4727588,124.34156 56.7696089,124.935261 C57.3630311,125.528683 59.7372763,126.715805 60.3306984,127.012656 C60.6275486,127.309506 62.1112432,127.902928 62.4080934,128.199778 C62.7049436,128.496628 65.3757607,128.199778 65.6723327,129.683473 C65.9691829,130.870595 64.1886381,130.870595 64.1886381,130.870595 L60.6275486,130.870595 C60.6275486,130.870595 60.0341265,132.94799 59.1438541,132.65114 C57.9567315,132.35429 57.9567315,132.35429 57.9567315,132.35429 C57.9567315,132.35429 58.2535817,133.244562 57.9567315,133.837984 C57.6598813,134.431407 56.7696089,134.728257 55.8793366,134.431407 C54.9890642,134.134556 54.9890642,134.134556 54.9890642,134.134556 C54.9890642,134.134556 55.2859144,135.915101 52.9116693,135.321679 C50.5377023,135.024829 50.5377023,134.431407 49.64743,134.134556 C49.0540078,134.134556 48.4603074,133.837706 47.8668852,133.244284 C46.9766128,132.650862 43.1186732,130.276617 43.1186732,130.276617 C43.1186732,130.276617 43.7120953,120.18677 44.6023677,118.703076 Z" id="Path" fill="#FFD15C"></path>
                            <path d="M67.7494494,120.780193 C67.4525992,120.18677 62.4078152,105.348712 62.110965,99.7105058 C61.5175428,93.7754494 57.9564533,79.8276634 54.6919358,73.5957568 C52.6145409,69.7378171 53.5048132,67.6607004 54.3950856,66.1767276 C54.9885078,66.1767276 55.8787802,66.4735778 56.7690525,66.4735778 L58.2527471,68.8475447 L59.7364416,68.8475447 C59.7364416,68.8475447 63.8909533,82.4984805 65.6714981,92.5880486 C67.155749,102.381323 67.155749,117.219103 67.7494494,120.780193 Z" id="Path" fill="#415A6B"></path>
                            <path d="M87.3354416,120.18677 C87.3354416,120.18677 80.2132626,119.593348 78.7295681,118.109375 C77.2458735,116.625681 77.2458735,108.61323 79.0264183,107.722957 C80.8066848,106.832685 87.3354416,120.18677 87.3354416,120.18677 Z" id="Path" fill="#ADB3BA"></path>
                            <path d="M74.277928,106.535835 C74.277928,106.535835 70.1234163,105.348712 71.6071109,102.381323 L76.6518949,103.271595 C76.6518949,103.271595 80.8064066,104.161868 83.1806518,105.645562 C85.5546187,107.129257 83.1806518,116.625681 83.1806518,116.625681 C83.1806518,116.625681 82.5872296,117.219103 80.5098346,117.219103 C78.4324397,117.219103 76.355323,116.922253 75.1682004,116.328831 C73.6845058,115.735409 70.4199883,114.845136 68.9362938,113.361163 C67.4525992,112.174319 62.4078152,106.832685 62.4078152,106.832685 C62.4078152,106.832685 63.0012374,105.34899 65.9689047,106.832685 C65.9689047,106.832685 68.3428716,107.722957 68.6397218,108.019807 L71.6073891,108.61323 C71.6073891,108.61323 75.1684786,108.61323 75.7619008,108.61323 C76.355323,108.316379 76.9490233,107.722957 76.9490233,107.722957 C76.9490233,107.722957 75.1682004,107.129535 74.277928,106.535835 Z" id="Path" fill="#F7B64C"></path>
                            <path d="M81.9938074,109.503502 C81.9938074,109.503502 84.3677743,120.18677 79.0261401,118.109375 L95.347893,128.495794 L99.5024047,116.031981 L81.9938074,109.503502 Z" id="Path" fill="#344A5E"></path>
                            <path d="M77.2455953,105.645562 C77.2455953,105.645562 76.9487451,105.05214 75.4650506,104.75529 C73.981356,104.45844 71.3105389,103.271595 70.4202665,102.974745 C69.5299942,102.677895 69.5299942,102.677895 68.6397218,101.787623 C67.7494494,100.89735 63.8915097,96.4459883 63.8915097,96.4459883 C63.8915097,96.4459883 64.7817821,95.555716 65.3752043,96.1491381 L63.8915097,94.9620156 C63.8915097,94.9620156 65.9689047,93.478321 68.0460214,95.5554377 C68.0460214,95.5554377 70.7168385,96.4457101 71.6071109,97.9294047 L74.277928,99.1165272 L79.3227121,99.7099494 L81.400107,98.819677 C81.400107,98.819677 79.3227121,97.9294047 79.3227121,96.1488599 C79.3227121,94.3683152 81.400107,94.6651654 82.5869514,95.2585875 C83.7740739,96.1488599 83.4772237,96.4457101 84.9609183,96.7422821 C86.4446128,97.0391323 87.6317354,97.6325545 87.9285856,98.2259767 C88.2254358,98.8193988 88.2254358,98.8193988 88.2254358,98.8193988 C88.2254358,98.8193988 85.5546187,105.941578 82.2903794,105.941578 C79.3229903,105.645562 77.2455953,105.645562 77.2455953,105.645562 Z" id="Path" fill="#FFD15C"></path>
                            <g id="Group" transform="translate(65.101167, 95.704280)" fill="#F7B64C">
                                <path d="M0.274036965,0.148285992 C0.274036965,0.148285992 0.274036965,0.148285992 0.57088716,0.445136187 C0.867737354,0.741986381 1.16430934,1.03855837 1.46115953,1.33540856 C1.75800973,1.63225875 2.35143191,2.22568093 2.6482821,2.52253113 C3.24170428,3.11595331 3.53855447,3.4128035 4.13197665,4.00622568 C4.72539883,4.59964786 5.31909922,4.89649805 5.61567121,5.48992023 L5.9125214,5.78677043 L6.2093716,6.08362062 C6.50622179,6.08362062 6.80279377,6.38047082 7.09964397,6.38047082 C7.69306615,6.67732101 7.98991634,6.973893 8.28676654,6.973893 L8.58361673,7.27074319 C8.58361673,7.27074319 8.28676654,7.27074319 8.28676654,6.973893 C8.28676654,6.973893 7.98991634,6.6770428 7.69334436,6.6770428 C7.39649416,6.6770428 7.39649416,6.38019261 7.09992218,6.38019261 C6.80307198,6.38019261 6.5065,6.08334241 6.20964981,6.08334241 C6.20964981,6.08334241 5.91279961,6.08334241 5.91279961,5.78649222 C5.61594942,5.78649222 5.61594942,5.48964202 5.61594942,5.48964202 C5.02252724,5.19279183 4.42882685,4.59936965 3.83540467,4.00594747 C3.24198249,3.41252529 2.6482821,3.1156751 2.35171012,2.52225292 C2.05485992,2.22540272 2.05485992,1.92883074 1.75828794,1.92883074 C1.46143774,1.63198054 1.46143774,1.33540856 1.16486576,1.33540856 C0.868015564,1.03855837 0.57144358,0.741986381 0.274593385,0.445136187 C0.57088716,0.445136187 0.274036965,0.148285992 0.274036965,0.148285992 Z" id="Path"></path>
                                <path d="M2.05458171,0.148285992 C2.05458171,0.148285992 2.05458171,0.148285992 2.35143191,0.445136187 C2.6482821,0.741986381 2.94485409,1.03855837 3.24170428,1.63225875 C3.53855447,1.92910895 3.83512646,2.52253113 4.42882685,3.11595331 C5.02224903,3.4128035 5.61594942,4.00622568 6.2093716,4.59964786 C6.50622179,4.89649805 6.80279377,5.19307004 7.09964397,5.19307004 C7.39649416,5.48992023 7.69306615,5.48992023 7.98991634,5.78649222 C8.58333852,6.08334241 9.17703891,6.3799144 9.77046109,6.3799144 C10.3638833,6.67676459 10.6607335,6.67676459 10.9575837,6.67676459 C11.2544339,6.67676459 11.5510058,6.97361479 11.5510058,6.97361479 C11.5510058,6.97361479 11.2541556,6.97361479 10.9575837,6.97361479 C10.6610117,6.97361479 10.0673113,6.67676459 9.77046109,6.67676459 C9.47361089,6.67676459 9.17703891,6.3799144 8.88018872,6.3799144 C8.58333852,6.3799144 8.28676654,6.0830642 7.98991634,6.0830642 C7.39649416,5.78621401 6.80279377,5.19279183 6.2093716,4.89594163 C5.9125214,4.59909144 5.61594942,4.30251946 5.31909922,4.30251946 C5.02224903,4.00566926 4.72567704,3.70909728 4.42882685,3.70909728 C4.13197665,3.41224708 3.83540467,3.1156751 3.83540467,2.8188249 C3.53855447,2.52197471 3.53855447,2.22540272 3.24198249,2.22540272 C2.9451323,1.63198054 2.64856031,1.33513035 2.64856031,1.03828016 C2.05458171,0.148285992 2.05458171,0.148285992 2.05458171,0.148285992 Z" id="Path"></path>
                            </g>
                            <path d="M118.198125,50.4486751 L109.888823,49.5584027 C109.888823,49.5584027 106.624584,56.6805817 106.624584,58.1642763 C106.624584,58.1642763 107.218006,59.6479708 106.624584,60.8350934 C106.031161,62.022216 103.360344,64.3961829 103.063494,65.5833054 C102.766644,66.770428 103.360344,67.3638502 103.953767,67.9572724 C104.547189,68.2541226 105.140889,68.5506946 105.140889,68.5506946 C105.140889,68.5506946 103.360344,71.2215117 105.140889,71.8149339 C105.140889,71.8149339 103.953767,72.111784 104.547467,73.5954786 C105.141167,75.0791732 102.1735,78.6402626 106.921434,79.530535 C111.669646,80.4208074 113.450191,83.0916245 113.15334,85.1690195 C112.85649,87.2464144 107.514856,94.3685934 107.514856,94.3685934 C98.0187101,107.129257 113.746763,100.30365 116.71443,96.4459883 L131.84906,85.1692977 L129.771665,62.3190661 L118.198125,50.4486751 Z" id="Path" fill="#FFD15C"></path>
                            <path d="M109.888823,94.0720214 L105.734311,97.9299611 L108.701979,89.0272374 C108.701979,89.0272374 103.360344,93.4785992 100.986377,97.6331109 C98.6124105,101.787623 93.2707763,119.88992 94.4576206,128.495794 C95.6447432,137.398518 95.6447432,137.398518 95.6447432,137.398518 L118.791825,93.181749 L121.759492,86.3564202 L109.888823,94.0720214 Z" id="Path" fill="#CED6E0"></path>
                            <path d="M108.108278,88.136965 C108.108278,88.136965 102.469794,96.1494163 101.579521,100.303928 C100.689249,104.45844 95.0507646,117.219103 94.7541926,124.044432 C94.4573424,131.166611 94.4573424,131.166611 94.4573424,131.166611 C94.4573424,131.166611 92.9736479,114.251436 96.2378872,105.348712 C99.5021265,96.4459883 105.437461,88.433537 105.437461,88.433537 L108.108278,88.136965 Z" id="Path" fill="#415A6B"></path>
                            <path d="M131.25536,142.44358 C130.661938,141.256457 130.068237,140.069613 129.474815,139.475912 C127.991121,137.695368 129.177965,133.244006 128.881393,130.573189 C128.584543,127.902372 134.816449,117.515953 136.893844,112.767741 C138.674389,107.722957 141.345206,91.9946265 138.674389,86.9498424 C136.003572,81.9050584 130.661938,81.6082082 130.661938,81.6082082 C130.661938,81.6082082 117.307852,92.2914767 110.482523,97.9299611 C103.657195,103.568446 93.2704981,116.922531 91.4899533,127.6058 C90.3028307,133.837706 90.3028307,139.476191 90.3028307,142.74043 L131.25536,142.44358 Z" id="Path" fill="#344A5E"></path>
                            <path d="M126.210576,81.014786 L130.958788,84.8727257 C130.958788,84.8727257 122.056064,89.3240875 114.637035,95.5559942 C107.218006,101.787901 98.6121323,111.580897 96.8315875,115.141986 C96.8315875,115.141986 103.063494,101.787901 113.449912,92.5883268 C123.539759,83.3887529 126.210576,81.014786 126.210576,81.014786 Z" id="Path" fill="#415A6B"></path>
                            <path d="M108.108278,79.8276634 C110.482245,80.7179358 111.966218,81.9050584 112.55964,83.0919027 C118.494696,79.8276634 120.572091,73.2989066 120.868942,73.2989066 C114.340185,81.014786 108.108278,79.8276634 108.108278,79.8276634 Z" id="Path" fill="#F7B64C"></path>
                            <path d="M127.397698,79.2342412 L129.475093,82.7953307 C126.804276,84.8727257 123.540037,87.2466926 119.682097,89.3240875 L118.198403,88.4338152 C118.198403,88.4338152 116.714708,91.6980545 109.889101,94.3688716 C112.856768,89.3240875 122.352914,81.3116362 126.507426,79.2342412 C126.803998,78.9373911 127.100848,78.9373911 127.397698,79.2342412 Z" id="Path" fill="#F3F3F3"></path>
                            <path d="M109.592251,49.5584027 C109.592251,49.5584027 110.779374,53.1194922 113.450191,58.7579767 C116.121008,64.3964611 117.901553,67.6607004 121.462642,67.0672782 C125.023732,66.473856 125.320582,64.3964611 126.804276,66.473856 C128.287971,68.551251 126.210854,77.4539747 128.881671,81.9053366 C131.552488,86.3566984 139.56494,94.0722996 138.377817,103.568724 C136.894123,113.06487 136.894123,113.06487 136.894123,113.06487 C136.894123,113.06487 141.938907,108.613508 142.532607,101.491329 C143.126029,94.3691498 141.345484,90.8080603 140.752062,80.421642 C140.15864,70.0352237 140.455212,56.9777101 136.3007,51.6360759 C132.146189,46.2944416 116.71443,40.655679 109.592251,49.5584027 Z" id="Path" fill="#F3705A"></path>
                            <ellipse id="Oval" fill="#FFD15C" transform="translate(124.158984, 69.422418) rotate(-158.630538) translate(-124.158984, -69.422418) " cx="124.158984" cy="69.4224183" rx="2.96782616" ry="4.74874443"></ellipse>
                            <path d="M112.85649,105.34899 C112.85649,105.34899 116.12073,91.1046323 126.803998,91.1046323 C137.487267,91.1046323 137.487267,100.304206 136.893844,105.05214 C136.300422,109.503502 133.629605,113.954864 131.55221,116.328831 C129.178243,118.702798 112.85649,135.321401 112.85649,135.321401 C112.85649,135.321401 109.295401,139.475912 105.734311,137.992218 C102.173222,136.508523 92.3802257,126.121827 91.4899533,124.04471 C90.5996809,121.967593 88.225714,118.999926 86.4451693,117.515953 C84.6646245,116.328831 74.8716284,105.645562 74.8716284,105.645562 C74.8716284,105.645562 84.9614747,102.974745 87.0385914,100.303928 C89.1159864,97.6331109 88.225714,96.7428385 88.225714,96.7428385 C88.225714,96.7428385 92.6770759,102.084473 93.8641984,103.865018 C95.051321,105.645562 99.5026829,109.503502 100.986377,112.174319 C102.470072,114.845136 103.657195,117.515953 104.547467,118.703076 C105.437739,119.890198 107.218284,120.780471 107.515134,120.780471 C107.811984,120.780471 107.811984,118.703076 108.108556,118.109654 C108.108278,117.515953 112.85649,105.34899 112.85649,105.34899 Z" id="Path" fill="#415A6B"></path>
                            <path d="M109.592251,49.5584027 C109.592251,49.5584027 109.592251,54.3066148 111.966218,59.0545486 C114.340185,63.8024825 115.230457,65.2864553 115.230457,65.2864553 C115.230457,65.2864553 111.075946,54.6031868 111.372518,52.2292198" id="Path" fill="#F3705A"></path>
                            <path d="M112.55964,82.7953307 L104.547189,89.0272374 C104.547189,89.0272374 107.218006,93.7754494 106.624584,95.8525661 C105.734311,97.9299611 105.734311,97.9299611 105.734311,97.9299611 C105.734311,97.9299611 113.15334,86.3564202 113.449912,85.1692977 C113.746763,83.9824533 112.55964,82.7953307 112.55964,82.7953307 Z" id="Path" fill="#F3F3F3"></path>
                            <path d="M36.2930661,55.1968872 C36.2930661,55.1968872 38.0736109,56.3840097 39.5573054,53.4163424 C41.041,50.4486751 41.041,47.777858 43.4152451,47.1844358 C45.7892121,46.5910136 47.5697568,50.4486751 47.866607,53.7131926 L49.6471518,53.7131926 C49.6471518,53.7131926 49.3503016,49.8552529 51.7245467,48.0747082 C53.8019416,46.2941634 60.3304202,44.2167685 61.5175428,43.0299241 C62.7046654,41.8430798 65.0786323,41.8428016 65.0786323,41.8428016 C65.0786323,41.8428016 69.5299942,39.4688346 66.859177,34.7206226 C63.8915097,29.9724105 53.8019416,21.9599591 44.0089455,27.5984436 C29.1708872,35.9077451 38.9638833,47.481286 36.2930661,55.1968872 Z" id="Path" fill="#344A5E"></path>
                            <g id="Group" transform="translate(31.994163, 58.424125)" fill="#F3F3F3">
                                <path d="M2.51835798,0.0370019455 C2.51835798,0.0370019455 9.93738716,11.6105428 12.6082043,13.6879377 C12.6082043,13.6879377 11.1245097,13.3910875 9.04711479,14.2813599 C6.96971984,15.1716323 1.03466342,17.2490272 1.03466342,17.2490272 C1.03466342,17.2490272 0.73781323,7.15918093 0.144391051,5.0820642 C-0.152459144,3.00466926 0.440963035,1.22412451 2.51835798,0.0370019455 Z" id="Path"></path>
                                <path d="M17.9498385,8.93972568 C17.6529883,8.3463035 17.3564163,7.75260311 17.3564163,7.45603113 C17.6529883,8.04945331 17.9498385,8.3463035 17.9498385,8.93972568 Z" id="Path"></path>
                                <path d="M24.1817451,11.907393 C24.4785953,12.5008152 25.9622899,14.2813599 20.3238054,19.3264222 C19.1366829,20.5135447 16.762716,20.2166946 16.1692938,22.5906615 C16.1692938,22.5906615 16.1692938,19.3264222 16.466144,17.8424494 C16.7629942,16.3587549 18.5435389,12.7976654 17.6532665,9.23657588 C17.6532665,8.6431537 17.3564163,8.04945331 17.0598444,7.75288132 L20.3240837,7.45603113 C21.214356,7.45603113 21.8077782,7.75288132 22.4014786,8.04945331 L26.2594183,11.907393 C26.5557121,11.6105428 24.1817451,11.3139708 24.1817451,11.907393 Z" id="Path"></path>
                            </g>
                            <path d="M3.64983852,86.9498424 C3.64983852,86.9498424 2.75956615,74.7828794 8.39805058,73.892607 C14.333107,73.0023346 18.1910467,89.3240875 19.0813191,94.0720214 C19.6747412,98.8202335 19.6747412,110.690346 19.0813191,111.284047 C18.4878969,111.877469 20.5650136,114.251714 20.8618638,115.141986 C21.158714,116.032259 24.7195253,114.845136 26.50007,115.735409 C28.2806148,116.625681 30.0611595,118.406226 30.9514319,118.406226 C31.8417043,118.406226 45.1957899,118.406226 45.1957899,118.406226 C45.1957899,118.406226 42.5249728,132.650584 43.4152451,137.398796 C43.4152451,137.398796 27.3903424,134.431128 24.4226751,133.244284 C21.4550078,132.057161 9.88146693,127.90265 6.61722763,126.418955 C3.35298833,124.935261 0.0884708171,122.264444 0.0884708171,119.296776 C0.0884708171,116.329109 3.64983852,86.9498424 3.64983852,86.9498424 Z" id="Path" fill="#415A6B"></path>
                            <path d="M89.1159864,15.7280525 C89.1159864,24.6307763 99.5024047,31.4561051 112.559918,31.4561051 L112.856768,31.4561051 L128.881671,40.0619786 L128.881671,27.0050214 C133.036183,24.0373541 135.707,20.1796926 135.707,15.7283307 C135.707,6.825607 125.320582,0.000278210117 112.263068,0.000278210117 C99.7992549,-5.42101086e-20 89.1159864,7.12217899 89.1159864,15.7280525 Z" id="Path" fill="#66C6B9"></path>
                            <g id="Group" transform="translate(96.260700, 11.684825)" fill="#FFFFFF">
                                <circle id="Oval" cx="28.7627529" cy="4.04322763" r="3.85793969"></circle>
                                <circle id="Oval" cx="16.2989397" cy="4.04322763" r="3.85793969"></circle>
                                <circle id="Oval" cx="4.13197665" cy="4.04322763" r="3.85793969"></circle>
                            </g>
                            <path d="M114.043613,27.8952938 C114.043613,36.7980175 103.657195,43.6233463 90.5996809,43.6233463 L90.3028307,43.6233463 L74.277928,52.2292198 L74.277928,39.1719844 C70.1234163,36.2043171 67.4525992,32.3466556 67.4525992,27.8952938 C67.4525992,18.99257 77.8390175,12.1672412 90.8965311,12.1672412 C103.656916,12.166963 114.043613,19.289142 114.043613,27.8952938 Z" id="Path" fill="#F3705A"></path>
                            <g id="Group" transform="translate(74.560311, 23.926070)" fill="#FFFFFF">
                                <circle id="Oval" cx="3.87240661" cy="3.96922374" r="3.85793969"></circle>
                                <circle id="Oval" cx="16.0393696" cy="3.96922374" r="3.85793969"></circle>
                                <circle id="Oval" cx="28.5031829" cy="3.96922374" r="3.85793969"></circle>
                            </g>
                        </g>
                    </g>
                </g>
            </g>
        </g>
    </g>
</svg>