<svg width="60" height="60" viewBox="0 0 60 60" fill="none" xmlns="http://www.w3.org/2000/svg">
<path fill-rule="evenodd" clip-rule="evenodd" d="M30 60C46.5685 60 60 46.5685 60 30C60 13.4315 46.5685 0 30 0C13.4315 0 0 13.4315 0 30C0 46.5685 13.4315 60 30 60Z" fill="#2D404E"/>
<path fill-rule="evenodd" clip-rule="evenodd" d="M59.9999 30C59.9999 23.9809 58.2275 18.3761 55.1758 13.6787C55.1758 13.6787 53.4644 16.1788 53.786 17.7858C54.1073 19.393 55.9956 19.5157 55.8016 20.6946C55.6077 21.8735 54.2148 20.3572 52.5002 23.4641C50.7858 26.5712 51.6433 30.8582 54.1073 31.179C56.5714 31.4996 59.9999 30 59.9999 30Z" fill="#48B19B"/>
<path fill-rule="evenodd" clip-rule="evenodd" d="M37.8785 1.04529C41.3703 1.9931 44.609 3.55591 47.4711 5.60986C47.4711 5.60986 43.9925 5.03611 42.6747 6.21431C41.3571 7.39287 39.4353 10.179 37.8784 6.21431C36.3216 2.24986 37.8785 1.04529 37.8785 1.04529Z" fill="#48B19B"/>
<path fill-rule="evenodd" clip-rule="evenodd" d="M7.44385 10.221C12.9421 3.95555 21.009 0 30.0002 0C30.0002 0 27.9649 1.23234 31.822 3.32156C35.6792 5.41102 33.9112 6.37512 33.1077 7.01801C32.3042 7.6609 30.9105 5.73234 30.0002 4.4468C29.0898 3.1609 25.1801 1.17902 22.1798 2.2507C19.1797 3.32238 16.6088 4.11398 17.0371 5.11102C17.4651 6.10781 22.608 4.17996 24.5366 4.2866C26.4651 4.39348 25.8222 5.5718 24.0012 6.9648C22.1798 8.35781 21.9651 10.0719 23.8938 11.1432C25.8222 12.215 28.1789 12.3223 28.7153 11.6795C29.2513 11.0366 27.7509 6.85805 31.3939 8.67926C35.0369 10.5005 38.0371 11.5727 35.0369 14.2509C32.0367 16.9289 28.6084 19.93 28.501 21.6436C28.3937 23.3575 29.5728 24.7514 28.9299 24.858C28.2871 24.9647 27.697 24.1618 27.2687 23.5721C26.8406 22.9828 24.858 22.7688 23.8938 23.1435C22.9295 23.5181 21.1078 24.9647 22.1259 26.3577C23.1442 27.7509 24.5359 27.1072 25.9291 27.7502C27.3221 28.3931 28.6212 30.8399 28.3544 31.3929C28.0877 31.9457 26.9003 31.2457 25.9291 29.3575C24.9578 27.469 23.136 28.7146 21.8542 28.3931C20.5722 28.0718 19.6079 27.8576 18.3221 25.6075C17.0363 23.3576 14.3744 22.7279 13.2867 21.429C10.1708 17.7083 10.3937 14.8934 9.75092 13.6077C9.10803 12.3217 7.44385 10.221 7.44385 10.221Z" fill="#48B19B"/>
<path fill-rule="evenodd" clip-rule="evenodd" d="M32.8927 30.4286C32.8927 30.4286 36.107 30.7495 37.7141 32.1428C39.3212 33.5358 39.5359 34.0718 42 34.6073C44.4641 35.1426 45.5358 36.5352 43.9286 39.2141C42.3214 41.8926 39.4281 46.1785 38.0355 47.4643C36.6431 48.7502 34.9287 49.8215 34.2858 51.9643C33.643 54.1069 33.4283 55.3918 34.8213 56.2496C34.8213 56.2496 34.0718 58.0713 32.3573 55.7141C30.6428 53.3566 32.0358 50.5713 32.3573 48.9641C32.6787 47.3571 33.5357 42.5361 33 41.357C32.4647 40.1782 29.9999 39.4279 29.357 36.9641C28.7141 34.5001 29.8392 29.705 32.8927 30.4286Z" fill="#48B19B"/>
<path opacity="0.6" fill-rule="evenodd" clip-rule="evenodd" d="M8.78662 8.78708C20.5024 -2.92898 39.497 -2.92875 51.2129 8.78708C62.9289 20.5027 62.9289 39.4975 51.2131 51.2133C51.2131 51.2133 64.8242 33.2145 45.5537 13.944C26.2832 -5.32652 8.78662 8.78708 8.78662 8.78708Z" fill="#253744"/>
</svg>
