<svg width="60" height="59" viewBox="0 0 60 59" fill="none" xmlns="http://www.w3.org/2000/svg">
<path fill-rule="evenodd" clip-rule="evenodd" d="M52.789 34.385C52.698 34.392 52.61 34.412 52.517 34.412C50.584 34.412 49.017 32.845 49.017 30.912C49.017 29.439 49.929 28.184 51.218 27.668C49.317 22.578 45.691 18.772 41.145 16.377C41.141 16.375 41.136 16.375 41.132 16.374C40.489 17.929 39.524 19.317 38.307 20.443C33.646 17.991 27.958 18.212 23.478 21.095C21.686 19.707 20.327 17.799 19.6 15.603C19.576 15.544 19.545 15.491 19.526 15.428C18.087 15.879 16.823 16.323 16.009 16.663C11.816 14.96 8.889 14.224 6.325 14.509C5.96 14.549 5.891 15.036 6.222 15.195C8.553 16.317 8.961 19.287 10.009 21.509C6.965 24.441 6.667 26.571 6.13 30.412H4C1.13 30.412 0 32.739 0 35.609V39.216C0 42.086 1.13 44.412 4 44.412H5.314C8.296 53.086 18.766 57.728 29.75 57.728C43.143 57.728 53.017 50.01 53.017 38.412C53.017 37.015 52.936 35.674 52.789 34.385Z" fill="#F4ADC9"/>
<path fill-rule="evenodd" clip-rule="evenodd" d="M16.0088 28.912C16.0088 30.293 14.8898 31.412 13.5088 31.412C12.1278 31.412 11.0088 30.293 11.0088 28.912C11.0088 27.531 12.1278 26.412 13.5088 26.412C14.8898 26.412 16.0088 27.531 16.0088 28.912Z" fill="white"/>
<path fill-rule="evenodd" clip-rule="evenodd" d="M53.0171 38.412C52.4651 38.412 52.0171 37.964 52.0171 37.412C52.0171 36.86 52.4651 36.412 53.0171 36.412C55.2231 36.412 57.0171 34.618 57.0171 32.412C57.0171 31.86 57.4651 31.412 58.0171 31.412C58.5691 31.412 59.0171 31.86 59.0171 32.412C59.0171 35.721 56.3261 38.412 53.0171 38.412Z" fill="#E685A5"/>
<path fill-rule="evenodd" clip-rule="evenodd" d="M58.0171 33.412C57.4651 33.412 57.0171 32.964 57.0171 32.412C57.0171 30.206 55.2231 28.412 53.0171 28.412C52.4651 28.412 52.0171 27.964 52.0171 27.412C52.0171 26.86 52.4651 26.412 53.0171 26.412C56.3261 26.412 59.0171 29.103 59.0171 32.412C59.0171 32.965 58.5691 33.412 58.0171 33.412Z" fill="#E685A5"/>
<path fill-rule="evenodd" clip-rule="evenodd" d="M48.0171 30.912C48.0171 33.393 50.0361 35.412 52.5171 35.412C54.9981 35.412 57.0171 33.393 57.0171 30.912C57.0171 28.431 54.9981 26.412 52.5171 26.412C50.0361 26.412 48.0171 28.431 48.0171 30.912ZM50.0171 30.912C50.0171 29.534 51.1391 28.412 52.5171 28.412C53.8951 28.412 55.0171 29.534 55.0171 30.912C55.0171 32.29 53.8951 33.412 52.5171 33.412C51.1391 33.412 50.0171 32.29 50.0171 30.912Z" fill="#E685A5"/>
<path fill-rule="evenodd" clip-rule="evenodd" d="M55.9612 31.37C55.8212 31.37 55.6792 31.341 55.5442 31.279C55.0422 31.048 54.8222 30.454 55.0532 29.952C55.6562 28.641 55.6642 27.135 55.0752 25.819C54.8492 25.315 55.0752 24.724 55.5792 24.498C56.0812 24.27 56.6742 24.497 56.9002 25.002C57.7252 26.845 57.7132 28.953 56.8702 30.788C56.7032 31.154 56.3392 31.37 55.9612 31.37Z" fill="#E685A5"/>
<path fill-rule="evenodd" clip-rule="evenodd" d="M48.7352 50.155C46.3212 52.945 42.9972 55.065 39.0332 56.342L39.3292 57.327C39.5392 58.028 40.1852 58.509 40.9172 58.509H46.9342C49.2532 58.509 50.8742 56.216 50.1032 54.03L48.7352 50.155Z" fill="#E685A5"/>
<path fill-rule="evenodd" clip-rule="evenodd" d="M8.96421 50.266L7.35121 54.3C6.54421 56.316 8.02921 58.509 10.2002 58.509H16.9412C17.3792 58.509 17.7742 58.242 17.9372 57.834L18.6622 56.02C14.8332 54.768 11.4592 52.843 8.96421 50.266Z" fill="#E685A5"/>
<path fill-rule="evenodd" clip-rule="evenodd" d="M28.3991 54.624C24.6671 54.624 21.2731 53.901 17.8861 52.402C17.3811 52.179 17.1531 51.589 17.3771 51.083C17.6001 50.578 18.1901 50.35 18.6961 50.573C22.6111 52.307 26.3801 52.905 30.9231 52.512C31.4711 52.454 31.9581 52.872 32.0051 53.422C32.0531 53.973 31.6451 54.457 31.0951 54.504C30.1751 54.584 29.2771 54.624 28.3991 54.624Z" fill="#E685A5"/>
<path fill-rule="evenodd" clip-rule="evenodd" d="M41.879 24.078C41.623 24.078 41.367 23.98 41.172 23.785C35.808 18.422 27.08 18.422 21.716 23.785C21.325 24.176 20.692 24.176 20.302 23.785C19.911 23.394 19.911 22.762 20.302 22.371C26.445 16.227 36.442 16.227 42.586 22.371C42.977 22.762 42.977 23.394 42.586 23.785C42.391 23.98 42.135 24.078 41.879 24.078Z" fill="#E685A5"/>
<path fill-rule="evenodd" clip-rule="evenodd" d="M22.6918 20.413C27.5878 17.14 33.9198 16.91 39.0238 19.71C40.8728 17.672 42.0088 14.977 42.0088 12.008C42.0088 5.656 36.8598 0.507996 30.5088 0.507996C24.1578 0.507996 19.0088 5.656 19.0088 12.008C19.0088 15.334 20.4338 18.315 22.6918 20.413Z" fill="#FFD949"/>
<path fill-rule="evenodd" clip-rule="evenodd" d="M26.7899 18.469C29.4149 17.662 32.2069 17.562 34.8779 18.154C36.8159 16.798 38.0859 14.554 38.0859 12.009C38.0859 7.867 34.7289 4.509 30.5859 4.509C26.4439 4.509 23.0859 7.867 23.0859 12.009C23.0859 14.764 24.5759 17.165 26.7899 18.469Z" fill="#F4BF1A"/>
</svg>
