<?xml version="1.0" encoding="UTF-8"?>
<svg width="87px" height="87px" viewBox="0 0 87 87" version="1.1" xmlns="http://www.w3.org/2000/svg" xmlns:xlink="http://www.w3.org/1999/xlink">
    <!-- Generator: Sketch 53.2 (72643) - https://sketchapp.com -->
    <title>Мяч</title>
    <desc>Created with Sketch.</desc>
    <g id="Page-1" stroke="none" stroke-width="1" fill="none" fill-rule="evenodd" opacity="0.07">
        <g id="Попапы" transform="translate(-1152.000000, -1059.000000)" fill="#000000">
            <g id="Спасибо" transform="translate(680.000000, 911.000000)">
                <g id="back" transform="translate(-72.000000, -102.000000)">
                    <g id="Мяч" transform="translate(544.000000, 250.000000)">
                        <path d="M73.3455014,61.1323255 C72.0089945,61.1449029 70.9847556,60.6040773 69.9167991,60.2330457 C65.6012557,58.7237649 61.3856381,56.9503599 56.9951504,55.6360279 C51.3431001,53.9380869 45.6223508,53.4161273 39.7829397,53.8877776 C37.9717855,54.032417 36.2043488,53.8060248 34.280778,53.7305608 C33.5625617,51.0264326 33.7499225,48.3537478 33.9185472,45.7187951 C34.2932688,39.9332185 35.4486603,34.2797041 37.8468783,29.0097985 C40.1076984,24.0606151 42.5121618,19.1491638 46.4404929,15.2879203 C50.5624301,15.5143124 53.947415,17.5644189 57.4822884,19.1806071 C58.4315831,19.6145254 59.3184241,20.193083 60.255228,20.6521559 C61.5480174,21.281023 62.7408811,22.041952 63.7901015,23.0481393 C64.6831879,23.9033984 65.7324083,24.5951521 66.6504761,25.4252566 C69.4921146,27.9973226 71.9153141,30.9718636 74.2947961,33.9526933 C75.3440165,35.2670253 75.9123442,36.9775436 76.6368059,38.5371338 C77.2051336,39.7445584 77.6547994,41.0085811 78.1794096,42.2411605 C79.3722733,45.0584847 79.5533887,47.9638503 79.0100425,50.9572573 C78.2481086,55.1077796 78.2668447,55.1140682 75.4876597,58.5602595 C74.7756887,59.4469619 74.032491,60.3022211 73.3455014,61.1323255 Z M33.2940112,38.857856 C32.8505907,40.7193023 32.6007763,42.631058 32.282263,44.5239477 C31.8013703,47.3727153 31.4328941,50.2214829 32.0824115,53.0954051 C32.1198837,53.2651992 32.0074672,53.4664367 31.9137868,53.8626229 C30.1900676,54.3028298 28.5662741,54.2084997 26.9612168,54.3468505 C25.3686501,54.4789125 23.7885742,54.7933461 22.1273085,55.0386042 C21.927457,54.7870574 21.7151148,54.5858199 21.5839623,54.3405618 C19.7852987,51.0452987 18.398829,47.6053961 17.686858,43.8825034 C16.6438829,38.417649 17.0248499,32.9842381 17.9054456,27.5696931 C18.1427692,26.0918556 18.8922123,24.6769048 19.5417297,23.2933974 C20.4410615,21.3879303 21.4465644,19.5327727 22.4458219,17.6839036 C23.2202464,16.2626642 24.4068647,15.4136937 25.9994314,15.0175075 C28.8722968,14.3005991 31.7389167,13.6905981 34.7366893,13.8792582 C37.5845732,14.0616296 40.4636839,13.6528661 43.2865864,14.3131765 C43.6300811,14.3886405 43.9673306,14.5081252 44.4669593,14.6527646 C43.8486687,15.5834878 43.3303039,16.3821489 42.793203,17.1556553 C39.7142408,21.5828791 37.1536434,26.293093 35.3487345,31.3743385 C34.4868749,33.8080538 33.8873204,36.3423879 33.2940112,38.857856 Z M31.8076157,7.35161862 C34.8053882,5.91780183 37.8531237,4.57202643 40.9570673,3.38975644 C42.5371432,2.79233278 44.2795985,2.59738401 45.9596002,2.30181651 C47.4584865,2.03769237 48.9761088,1.88676428 50.4812405,1.67923817 C53.2604254,1.28305195 55.9584207,1.69181551 58.9624386,2.43387858 C54.1160397,5.48388359 49.812987,8.73512605 46.2906043,12.9359577 C43.6737987,12.6906996 41.1381827,12.4265754 38.5963214,12.2190493 C36.6977322,12.0555439 34.7991429,11.9549252 32.9005536,11.8354404 C31.3017416,11.7411104 29.7091749,11.5461616 28.1228536,11.9989458 C27.7169053,12.1184306 27.2360126,11.9737912 26.4928148,11.9360591 C27.9479836,9.7350246 29.7528924,8.33265116 31.8076157,7.35161862 Z M63.7463839,3.88656138 C68.5365746,5.9869772 72.7209655,8.94265216 76.0684781,12.9925557 C77.4611933,14.6779193 78.6852838,16.514211 79.9031289,18.344214 C80.4839473,19.2120505 80.9898214,20.174217 81.3020894,21.1615382 C82.4699716,24.8152556 83.3755487,28.5444369 83.694062,32.3742371 C83.8127239,33.8017652 83.7190435,35.254448 83.5878909,36.6819761 C83.275623,40.1093013 83.0258086,43.5554925 81.4956955,47.4230247 C80.409003,42.7253881 78.6290755,38.9270313 76.830412,35.1538293 C76.2246121,33.8772292 75.319035,32.7264026 74.4197033,31.6195966 C71.4031946,27.8967039 68.1493624,24.406492 64.2647488,21.5891678 C61.1045969,19.3000919 57.8882368,17.0550366 54.2659283,15.5394671 C52.436038,14.7722494 50.4874858,14.2943104 48.6638409,13.7157528 C48.2828739,12.929669 48.7762573,12.4957508 49.1384882,12.1247192 C52.6421348,8.54646595 56.5579752,5.55934764 61.2732216,3.74821064 C62.1288358,3.41491112 62.9157511,3.52181852 63.7463839,3.88656138 Z M86.4170388,64.5219187 C86.2234326,64.3395473 85.91741,64.2515059 85.6426142,64.1823306 C83.7003074,63.7106803 81.7517553,63.257896 79.8032031,62.7925345 C78.8913806,62.572431 77.9795581,62.3271729 76.9053563,62.0504714 C77.5361376,60.8116034 78.0669932,59.6985088 78.6603023,58.6168575 C80.983576,54.3971598 82.7947303,49.9636474 84.0313115,45.3163202 C84.96187,41.8198196 85.3553277,38.1975456 85.4177813,34.5815603 C85.4989709,29.4625828 84.2561444,24.4505127 82.5324252,19.6648347 C80.6962895,14.5710119 76.0809689,10.0557468 72.0339759,6.66615358 C69.8418548,4.8298619 67.1938224,3.26398304 64.54579,2.20748646 C55.0403529,-1.57200429 43.1741699,-0.163342179 33.9810008,3.89913872 C24.862776,7.93017627 19.8290163,16.6777164 16.4752582,25.7459787 C13.0715373,34.9651691 15.0075988,44.4736384 18.8984577,53.2211785 C19.1232906,53.7305608 19.2669339,54.2713864 19.4980122,54.9505628 C18.8984577,55.1203569 18.4737733,55.3027283 18.0303527,55.365615 C17.1809839,55.4788111 16.3191243,55.4850998 15.4697554,55.6108732 C11.0417955,56.2586062 6.61383566,56.9252052 2.18587581,57.5980929 C1.71747385,57.6672683 1.23658117,57.7615984 0.80565137,57.9502585 C0.518364835,58.0697432 0.306022613,58.3715994 0,58.6357235 C0.824387448,59.5287147 1.68624705,59.3337659 2.51687986,59.2205698 C5.80818429,58.7677856 9.10573408,58.2898466 12.3970385,57.8370624 C16.5252211,57.2773708 20.9094635,57.3779895 24.9627017,56.472421 C29.9277625,55.365615 35.0114851,55.8749973 40.0452448,55.7869559 C44.0485202,55.7177806 48.0830224,55.5479865 52.0488257,56.2397402 C55.9084578,56.9126279 59.7368632,58.1892279 63.365417,59.6481994 C70.6599969,62.5787197 78.2481086,64.3709907 85.8986739,65.9746015 C86.4670016,66.0940863 87.0790469,65.7733641 86.9916118,65.4023326 C86.9166675,65.0753217 86.6730985,64.7545995 86.4170388,64.5219187 L86.4170388,64.5219187 Z" id="Fill-9"></path>
                        <path d="M30.1770392,63.1006941 C29.8309897,62.964927 29.2192236,62.9598986 28.9102508,63.1258362 C28.0698449,63.5733647 27.7546927,64.5891037 28.205793,65.32828 C28.3849972,65.609871 28.8422768,65.8512348 29.2315825,65.9618598 C29.7074006,66.0925985 30.133783,65.8763768 30.3253461,65.4791324 C30.5539859,64.9964049 31.0915985,64.5287627 30.9865478,63.9454671 C30.9185738,63.5733647 30.5230887,63.2414896 30.1770392,63.1006941" id="Fill-20"></path>
                        <path d="M6.52308535,70.3518972 C6.35039563,69.9943383 5.25669408,69.8602537 4.98806563,70.18305 C4.57872704,70.6697273 4.18857619,71.2060657 4.01588647,71.7622684 C3.84959267,72.2886746 5.02644112,73.0335889 5.78755507,72.9988263 C6.40156296,72.9690297 7.11790549,72.4326913 6.98359127,71.6033533 C6.93881986,71.3500825 6.75973422,70.8385746 6.52308535,70.3518972" id="Fill-22"></path>
                        <path d="M49.8654494,71 C49.58595,71.0053994 49.4026717,71.2429741 49.2927048,71.4157557 C48.8665828,72.0906837 48.9169843,73.073379 49.370598,73.6997122 C49.6684252,74.1208673 50.3786286,74.0938702 50.6718738,73.6511174 C51.0659221,73.0679795 51.1300695,72.1338791 50.7268573,71.5993361 C50.5160873,71.318566 50.1999322,71 49.8654494,71" id="Fill-26"></path>
                        <path d="M28.6178871,80.1745318 C28.332524,79.9364375 27.6682361,79.9364375 27.4249758,80.2085453 C27.0273387,80.6450516 26.933777,81.206274 27.0413729,81.8298544 C27.1349346,82.3400566 27.2986675,82.7992385 27.7477635,82.9863127 C27.8085786,83.0146572 27.888106,82.9919816 27.9582773,82.9806438 C28.8237227,82.8672655 29.3195996,81.1835983 28.7675857,80.3445992 C28.725483,80.2765723 28.6740241,80.2198831 28.6178871,80.1745318" id="Fill-33"></path>
                        <path d="M79.4379336,72.0045276 C78.650608,71.9398759 78.0551516,72.5734628 78.0022221,73.5303082 C77.9625251,74.2867334 78.4587387,74.9203202 79.1666702,74.9914371 C80.0466224,75.0819495 80.7677862,74.4483627 80.979504,73.4010048 C81.12506,72.6639752 80.4832904,72.0885749 79.4379336,72.0045276" id="Fill-37"></path>
                        <path d="M42.4146574,60.03632 C41.7105372,59.8497333 40.9206587,60.4094933 41.006417,61.0875765 C41.0470393,61.3833847 41.2727188,61.7383544 41.5209664,61.9112884 C41.8369178,62.1251804 42.1934915,61.9249411 42.3785487,61.6018276 C42.5726331,61.2605105 43.1729408,60.8918881 42.9517748,60.2911701 C42.8840709,60.1045834 42.6042283,60.0863798 42.4146574,60.03632" id="Fill-50"></path>
                        <path d="M62.3995074,82.0286833 C61.8376892,81.9285688 61.4477213,82.0969432 61.1767266,82.4336919 C60.905732,82.7704406 60.9387801,83.11174 61.328748,83.3711275 C61.665839,83.5986604 61.983101,84.0218717 62.6110155,83.9991184 C63.7941385,83.9627131 64.4154433,82.8523525 63.6883845,82.3017228 C63.4239994,82.0969432 62.8555716,82.1105952 62.3995074,82.0286833" id="Fill-53"></path>
                        <path d="M2.31344058,85.0168252 C1.92403667,85.1183546 1.23794406,84.9812899 1.03860634,85.554931 C0.862447425,86.062578 1.3399308,86.2504074 1.45118906,86.4382368 C1.52536123,86.5651485 1.64125525,86.6666779 1.74324199,86.7631308 C2.15118895,87.1438661 2.4895995,87.067719 2.73993059,86.5194603 C2.8326458,86.3164015 2.9160895,86.1031897 2.97171863,85.8798251 C3.10151994,85.3671016 2.76774515,84.9051429 2.31344058,85.0168252" id="Fill-54"></path>
                        <path d="M61.2916918,64.8098976 C61.5532942,64.4612591 61.8039966,64.103446 61.9729482,63.7181087 C62.0437989,63.5667262 61.9674981,63.2456119 61.8366969,63.1768016 C61.5859945,63.0483559 61.204491,62.9520216 60.9483385,63.0254192 C60.0163798,63.2823107 59.7384272,63.9841749 60.2616321,64.6768645 C60.3815332,64.8282469 60.6104354,64.9842168 60.8066372,64.9979788 C61.0300893,65.0163282 61.2208411,64.9062319 61.2916918,64.8098976" id="Fill-57"></path>
                    </g>
                </g>
            </g>
        </g>
    </g>
</svg>