<?xml version="1.0" encoding="UTF-8"?>
<svg width="46px" height="46px" viewBox="0 0 46 46" version="1.1" xmlns="http://www.w3.org/2000/svg" xmlns:xlink="http://www.w3.org/1999/xlink">
    <!-- Generator: Sketch 52.2 (67145) - http://www.bohemiancoding.com/sketch -->
    <title>Group 43</title>
    <desc>Created with Sketch.</desc>
    <g id="Page-1" stroke="none" stroke-width="1" fill="none" fill-rule="evenodd">
        <g id="Главная-страница" transform="translate(-457.000000, -3377.000000)">
            <g id="customer-problems" transform="translate(320.000000, 3282.000000)">
                <g id="Group-29">
                    <g id="Group-62">
                        <g id="pay-per-click" transform="translate(137.000000, 0.000000)">
                            <g id="Group-43" transform="translate(0.000000, 95.000000)">
                                <circle id="Oval" fill="#EF9614" cx="22.6509766" cy="22.8744531" r="22.6509766"></circle>
                                <circle id="Oval" fill="#FFD00D" cx="22.6509766" cy="22.8744531" r="15.2610605"></circle>
                                <path d="M12.9334004,22.8738945 C12.9334004,15.3920898 18.3185234,9.17242773 25.4232773,7.86839063 C24.5242207,7.70332617 23.5991895,7.61283398 22.652373,7.61283398 C14.223752,7.61283398 7.3913125,14.4455527 7.3913125,22.8738945 C7.3913125,31.3025156 14.223752,38.1349551 22.652373,38.1349551 C23.5991895,38.1349551 24.5242207,38.0441836 25.4232773,37.8793984 C18.3185234,36.5753613 12.9334004,30.3554199 12.9334004,22.8738945 Z" id="Path" fill="#FFAF10"></path>
                                <path d="M25.8151309,20.8601641 L20.3677246,20.8601641 L20.3677246,18.8860938 L27.031748,18.8860938 C28.1885957,18.8860938 29.1264746,17.9482148 29.1264746,16.7913672 C29.1264746,15.6345195 28.1885957,14.6966406 27.031748,14.6966406 L24.7468203,14.6966406 L24.7468203,13.3850625 C24.7468203,12.2282148 23.8092207,11.2903359 22.6520937,11.2903359 C21.4949668,11.2903359 20.5573672,12.2282148 20.5573672,13.3850625 L20.5573672,14.6966406 L19.4893359,14.6966406 C17.6635723,14.6966406 16.1782715,16.1819414 16.1782715,18.0077051 L16.1782715,21.7382734 C16.1782715,23.5640371 17.6635723,25.0493379 19.4893359,25.0493379 L24.9370215,25.0493379 L24.9370215,27.0234082 L18.272998,27.0234082 C17.1158711,27.0234082 16.1782715,27.9612871 16.1782715,29.1181348 C16.1782715,30.2749824 17.1158711,31.2128613 18.272998,31.2128613 L20.5576465,31.2128613 L20.5576465,32.362168 C20.5576465,33.5190156 21.4952461,34.4568945 22.652373,34.4568945 C23.8095,34.4568945 24.7470996,33.5190156 24.7470996,32.362168 L24.7470996,31.2128613 L25.8151309,31.2128613 C27.6411738,31.2128613 29.1264746,29.7275605 29.1264746,27.9017969 L29.1264746,24.1712285 C29.1264746,22.3454648 27.6411738,20.8601641 25.8151309,20.8601641 Z" id="Path" fill="#DB722C"></path>
                            </g>
                        </g>
                    </g>
                </g>
            </g>
        </g>
    </g>
</svg>