<?xml version="1.0" encoding="UTF-8"?>
<svg width="53px" height="52px" viewBox="0 0 53 52" version="1.1" xmlns="http://www.w3.org/2000/svg" xmlns:xlink="http://www.w3.org/1999/xlink">
    <!-- Generator: Sketch 52.2 (67145) - http://www.bohemiancoding.com/sketch -->
    <title>Group 25</title>
    <desc>Created with Sketch.</desc>
    <g id="Page-1" stroke="none" stroke-width="1" fill="none" fill-rule="evenodd">
        <g id="Главная-страница" transform="translate(-541.000000, -3282.000000)">
            <g id="customer-problems" transform="translate(320.000000, 3282.000000)">
                <g id="Group-29">
                    <g id="Group-62">
                        <g id="pay-per-click" transform="translate(137.000000, 0.000000)">
                            <g id="Group-25" transform="translate(84.000000, 0.000000)">
                                <circle id="Oval" fill="#EF9614" cx="26.8529297" cy="26.0025391" r="26.0025391"></circle>
                                <circle id="Oval" fill="#FFD00D" cx="26.8529297" cy="26.0025391" r="18.4810742"></circle>
                                <path d="M13.9128262,26.0036563 C13.9128262,16.7390996 20.7304629,9.06737305 29.6224375,7.73037891 C28.7186328,7.59436133 27.7933223,7.52286133 26.8515332,7.52286133 C16.6446289,7.52286133 8.37073828,15.7970313 8.37073828,26.0036563 C8.37073828,36.2102813 16.6446289,44.4844512 26.8515332,44.4844512 C27.7933223,44.4844512 28.7186328,44.4129512 29.6224375,44.2769336 C20.7304629,42.9399395 13.9128262,35.2684922 13.9128262,26.0036563 Z" id="Path" fill="#FFAF10"></path>
                                <path d="M30.4826719,24.0019355 L23.9191953,24.0019355 L23.9191953,21.1159609 L31.8791562,21.1159609 C33.0362832,21.1159609 33.9738828,20.178082 33.9738828,19.0212344 C33.9738828,17.8643867 33.0362832,16.9265078 31.8791562,16.9265078 L28.9465391,16.9265078 L28.9465391,15.1110781 C28.9465391,13.9542305 28.0089395,13.0163516 26.8518125,13.0163516 C25.6946855,13.0163516 24.7570859,13.9542305 24.7570859,15.1110781 L24.7570859,16.9265078 L23.2209531,16.9265078 C21.2957598,16.9265078 19.7297422,18.4925254 19.7297422,20.4177188 L19.7297422,24.7001777 C19.7297422,26.6253711 21.2957598,28.1913887 23.2209531,28.1913887 L29.7844297,28.1913887 L29.7844297,31.0776426 L21.8244687,31.0776426 C20.6673418,31.0776426 19.7297422,32.0155215 19.7297422,33.1723691 C19.7297422,34.3292168 20.6673418,35.2670957 21.8244687,35.2670957 L24.7570859,35.2670957 L24.7570859,36.8962344 C24.7570859,38.053082 25.6946855,38.9909609 26.8518125,38.9909609 C28.0089395,38.9909609 28.9465391,38.053082 28.9465391,36.8962344 L28.9465391,35.2670957 L30.4826719,35.2670957 C32.4078652,35.2670957 33.9738828,33.7010781 33.9738828,31.7758848 L33.9738828,27.4931465 C33.9738828,25.5679531 32.4075859,24.0019355 30.4826719,24.0019355 Z" id="Path" fill="#DB722C"></path>
                            </g>
                        </g>
                    </g>
                </g>
            </g>
        </g>
    </g>
</svg>