<?xml version="1.0" encoding="UTF-8"?>
<svg width="115px" height="83px" viewBox="0 0 115 83" version="1.1" xmlns="http://www.w3.org/2000/svg" xmlns:xlink="http://www.w3.org/1999/xlink">
    <!-- Generator: Sketch 52.2 (67145) - http://www.bohemiancoding.com/sketch -->
    <title>28</title>
    <desc>Created with Sketch.</desc>
    <defs>
        <linearGradient x1="0%" y1="0%" x2="100%" y2="100%" id="linearGradient-1">
            <stop stop-color="#FFBD73" offset="0%"></stop>
            <stop stop-color="#ED7408" offset="100%"></stop>
        </linearGradient>
        <path d="M1.4,59 C1,56.76 0.76,54.76 0.76,52.84 C0.76,31.72 25.48,27.96 25.48,19.72 C25.48,15.72 22.28,14.04 19.32,14.04 C15.64,14.04 12.52,16.92 10.84,20.12 L0.44,13.16 C3.8,6.68 10.28,0.84 20.6,0.84 C29.96,0.84 40.12,6.2 40.12,18.36 C40.12,36.2 17,39.64 16.28,47 L41,47 L41,59 L1.4,59 Z M48.36,42.2 C48.36,35.16 53.96,30.04 56.28,28.28 C53.24,25.56 51.08,22.12 51.08,17.32 C51.08,9 56.92,0.84 70.28,0.84 C80.92,0.84 89.64,6.76 89.64,17.4 C89.64,23.16 85.56,28.68 84.04,30.52 C87.88,33.16 90.76,36.76 90.76,42.52 C90.76,51.24 83.72,59.96 69.56,59.96 C55.64,59.96 48.36,51.32 48.36,42.2 Z M73.88,25.48 C74.68,24.2 75.96,21.72 75.96,18.44 C75.96,15.24 73.72,13.16 69.96,13.16 C66.36,13.16 64.76,15.16 64.76,17.64 C64.76,21.4 68.92,23.4 73.88,25.48 Z M62.68,41 C62.68,44.68 65.72,47.64 69.56,47.64 C73.8,47.64 76.44,45.56 76.44,41.8 C76.44,38.52 71.4,36.6 65.8,33.96 C64.44,35.4 62.68,37.88 62.68,41 Z" id="path-2"></path>
        <filter x="-22.9%" y="-25.4%" width="145.0%" height="167.7%" filterUnits="objectBoundingBox" id="filter-3">
            <feMorphology radius="2.5" operator="dilate" in="SourceAlpha" result="shadowSpreadOuter1"></feMorphology>
            <feOffset dx="0" dy="5" in="shadowSpreadOuter1" result="shadowOffsetOuter1"></feOffset>
            <feGaussianBlur stdDeviation="5" in="shadowOffsetOuter1" result="shadowBlurOuter1"></feGaussianBlur>
            <feComposite in="shadowBlurOuter1" in2="SourceAlpha" operator="out" result="shadowBlurOuter1"></feComposite>
            <feColorMatrix values="0 0 0 0 0   0 0 0 0 0   0 0 0 0 0  0 0 0 0.1 0" type="matrix" in="shadowBlurOuter1"></feColorMatrix>
        </filter>
    </defs>
    <g id="Page-1" stroke="none" stroke-width="1" fill="none" fill-rule="evenodd">
        <g id="Главная-страница" transform="translate(-307.000000, -667.000000)">
            <g id="Group-55" transform="translate(319.000000, 638.000000)">
                <g id="Group-17" transform="translate(0.000000, 35.000000)">
                    <g id="29">
                        <g id="28">
                            <use fill="black" fill-opacity="1" filter="url(#filter-3)" xlink:href="#path-2"></use>
                            <use fill="#FFFFFF" fill-rule="evenodd" xlink:href="#path-2"></use>
                        </g>
                    </g>
                </g>
            </g>
        </g>
    </g>
</svg>