<?xml version="1.0" encoding="UTF-8"?>
<svg width="57px" height="57px" viewBox="0 0 57 57" version="1.1" xmlns="http://www.w3.org/2000/svg" xmlns:xlink="http://www.w3.org/1999/xlink">
    <!-- Generator: Sketch 52.2 (67145) - http://www.bohemiancoding.com/sketch -->
    <title>Star</title>
    <desc>Created with Sketch.</desc>
    <g id="Page-1" stroke="none" stroke-width="1" fill="none" fill-rule="evenodd">
        <g id="Горящие-туры" transform="translate(-878.000000, -584.000000)" fill="#FF3B3B">
            <g id="Group-7" transform="translate(320.000000, 546.000000)">
                <g id="popular-countries">
                    <g id="Group-10" transform="translate(0.000000, 25.000000)">
                        <g id="Group-12" transform="translate(326.000000, 0.000000)">
                            <g id="Group-48">
                                <g id="Group-23" transform="translate(229.000000, 10.000000)">
                                    <path d="M28.8070107,58.4365477 L27.4236,59.3208757 C25.3670025,60.63553 22.6340629,60.0340662 21.3194086,57.9774687 C21.2477096,57.8653054 21.1811148,57.7499599 21.1198281,57.6317851 L20.3639233,56.1742293 C19.4667644,54.4443034 17.6462681,53.3932394 15.699529,53.48124 L14.0592962,53.5553851 C11.6209033,53.6656104 9.55484013,51.7782577 9.44461486,49.3398648 C9.43860336,49.206879 9.43860336,49.0736895 9.44461486,48.9407038 L9.51876005,47.300471 C9.60676057,45.3537319 8.55569655,43.5332356 6.82577074,42.6360767 L5.3682149,41.8801719 C3.20139209,40.7564334 2.35580523,38.0889063 3.47954379,35.9220835 C3.54083056,35.8039087 3.6074253,35.6885633 3.67912429,35.5764 L4.56345229,34.1929893 C5.61303255,32.551064 5.61303255,30.448936 4.56345229,28.8070107 L3.67912429,27.4236 C2.36446997,25.3670025 2.96593379,22.6340629 5.02253133,21.3194086 C5.13469463,21.2477096 5.2500401,21.1811148 5.3682149,21.1198281 L6.82577074,20.3639233 C8.55569655,19.4667644 9.60676057,17.6462681 9.51876005,15.699529 L9.44461486,14.0592962 C9.33438959,11.6209033 11.2217423,9.55484013 13.6601352,9.44461486 C13.793121,9.43860336 13.9263105,9.43860336 14.0592962,9.44461486 L15.699529,9.51876005 C17.6462681,9.60676057 19.4667644,8.55569655 20.3639233,6.82577074 L21.1198281,5.3682149 C22.2435666,3.20139209 24.9110937,2.35580523 27.0779165,3.47954379 C27.1960913,3.54083056 27.3114367,3.6074253 27.4236,3.67912429 L28.8070107,4.56345229 C30.448936,5.61303255 32.551064,5.61303255 34.1929893,4.56345229 L35.5764,3.67912429 C37.6329975,2.36446997 40.3659371,2.96593379 41.6805914,5.02253133 C41.7522904,5.13469463 41.8188852,5.2500401 41.8801719,5.3682149 L42.6360767,6.82577074 C43.5332356,8.55569655 45.3537319,9.60676057 47.300471,9.51876005 L48.9407038,9.44461486 C51.3790967,9.33438959 53.4451599,11.2217423 53.5553851,13.6601352 C53.5613966,13.793121 53.5613966,13.9263105 53.5553851,14.0592962 L53.48124,15.699529 C53.3932394,17.6462681 54.4443034,19.4667644 56.1742293,20.3639233 L57.6317851,21.1198281 C59.7986079,22.2435666 60.6441948,24.9110937 59.5204562,27.0779165 C59.4591694,27.1960913 59.3925747,27.3114367 59.3208757,27.4236 L58.4365477,28.8070107 C57.3869674,30.448936 57.3869674,32.551064 58.4365477,34.1929893 L59.3208757,35.5764 C60.63553,37.6329975 60.0340662,40.3659371 57.9774687,41.6805914 C57.8653054,41.7522904 57.7499599,41.8188852 57.6317851,41.8801719 L56.1742293,42.6360767 C54.4443034,43.5332356 53.3932394,45.3537319 53.48124,47.300471 L53.5553851,48.9407038 C53.6656104,51.3790967 51.7782577,53.4451599 49.3398648,53.5553851 C49.206879,53.5613966 49.0736895,53.5613966 48.9407038,53.5553851 L47.300471,53.48124 C45.3537319,53.3932394 43.5332356,54.4443034 42.6360767,56.1742293 L41.8801719,57.6317851 C40.7564334,59.7986079 38.0889063,60.6441948 35.9220835,59.5204562 C35.8039087,59.4591694 35.6885633,59.3925747 35.5764,59.3208757 L34.1929893,58.4365477 C32.551064,57.3869674 30.448936,57.3869674 28.8070107,58.4365477 Z" id="Star"></path>
                                </g>
                            </g>
                        </g>
                    </g>
                </g>
            </g>
        </g>
    </g>
</svg>