<?xml version="1.0" encoding="UTF-8"?>
<svg width="148px" height="143px" viewBox="0 0 148 143" version="1.1" xmlns="http://www.w3.org/2000/svg" xmlns:xlink="http://www.w3.org/1999/xlink">
    <!-- Generator: Sketch 52.2 (67145) - http://www.bohemiancoding.com/sketch -->
    <title>website 2</title>
    <desc>Created with Sketch.</desc>
    <g id="Page-1" stroke="none" stroke-width="1" fill="none" fill-rule="evenodd">
        <g id="О-нас" transform="translate(-450.000000, -3013.000000)" fill="#FFFFFF">
            <g id="Group-12" transform="translate(373.000000, 3013.000000)">
                <g id="Group-21">
                    <g id="website-2" transform="translate(77.000000, 0.000000)">
                        <g id="website">
                            <path d="M137.769544,0.153667339 L9.84335887,0.153667339 C4.41598992,0.153667339 0,4.56994556 0,9.99702621 L0,91.1815282 C0,92.5394516 1.10219556,93.6416472 2.46011895,93.6416472 L145.152496,93.6416472 C146.510419,93.6416472 147.612615,92.5394516 147.612615,91.1815282 L147.612615,9.99702621 C147.612903,4.56994556 143.196913,0.153667339 137.769544,0.153667339 Z M142.692377,88.7214093 L4.92052621,88.7214093 L4.92052621,9.99702621 C4.92052621,7.28089113 7.12981855,5.07419355 9.84335887,5.07419355 L137.769544,5.07419355 C140.483085,5.07419355 142.692377,7.28089113 142.692377,9.99702621 L142.692377,88.7214093 Z" id="Shape" fill-rule="nonzero"></path>
                            <path d="M145.152784,88.7214093 L2.46011895,88.7214093 C1.10219556,88.7214093 0,89.8236048 0,91.1815282 L0,103.480105 C0,108.907474 4.41598992,113.323464 9.84335887,113.323464 L137.769544,113.323464 C143.196913,113.323464 147.612903,108.907474 147.612903,103.480105 L147.612903,91.1815282 C147.612903,89.8236048 146.510708,88.7214093 145.152784,88.7214093 Z M142.692377,103.480393 C142.692377,106.196528 140.483085,108.403226 137.769544,108.403226 L9.84335887,108.403226 C7.12981855,108.403226 4.92052621,106.196528 4.92052621,103.480393 L4.92052621,93.6419355 L142.692665,93.6419355 L142.692665,103.480393 L142.692377,103.480393 Z" id="Shape" fill-rule="nonzero"></path>
                            <path d="M81.1870968,98.5624617 L66.4258065,98.5624617 C65.0678831,98.5624617 63.9656875,99.6646573 63.9656875,101.022581 C63.9656875,102.380504 65.0678831,103.4827 66.4258065,103.4827 L81.1870968,103.4827 C82.5450202,103.4827 83.6472157,102.380504 83.6472157,101.022581 C83.6472157,99.6646573 82.5450202,98.5624617 81.1870968,98.5624617 Z" id="Path"></path>
                            <path d="M135.311732,9.99471976 L12.3011714,9.99471976 C10.943248,9.99471976 9.84105242,11.0969153 9.84105242,12.4548387 L9.84105242,91.1818165 C9.84105242,92.5397399 10.943248,93.6419355 12.3011714,93.6419355 L135.31202,93.6419355 C136.669944,93.6419355 137.772139,92.5397399 137.772139,91.1818165 L137.772139,12.4548387 C137.772139,11.0969153 136.669944,9.99471976 135.311732,9.99471976 Z M132.851613,88.7214093 L14.7612903,88.7214093 L14.7612903,14.9149577 L132.851613,14.9149577 L132.851613,88.7214093 Z" id="Shape" fill-rule="nonzero"></path>
                            <path d="M105.789151,128.085042 L41.823752,128.085042 C37.7545948,128.085042 34.4431069,131.39653 34.4431069,135.465688 C34.4431069,139.534845 37.7545948,142.846333 41.823752,142.846333 L105.78944,142.846333 C109.858597,142.846333 113.170085,139.534845 113.170085,135.465688 C113.170085,131.39653 109.858308,128.085042 105.789151,128.085042 Z M105.789151,137.925806 L41.823752,137.925806 C40.4658286,137.925806 39.3636331,136.821304 39.3636331,135.465688 C39.3636331,134.110071 40.4658286,133.005569 41.823752,133.005569 L105.78944,133.005569 C107.147363,133.005569 108.249558,134.110071 108.249558,135.465688 C108.249558,136.821304 107.147363,137.925806 105.789151,137.925806 Z" id="Shape" fill-rule="nonzero"></path>
                            <path d="M100.868913,128.085042 C92.7058044,128.085042 88.5677419,122.291236 88.5677419,110.863633 C88.5677419,109.50571 87.4655464,108.403514 86.107623,108.403514 L61.5055685,108.403514 C60.1476452,108.403514 59.0454496,109.50571 59.0454496,110.863633 C59.0454496,122.291236 54.9073871,128.085042 46.7442782,128.085042 C45.3863548,128.085042 44.2841593,129.187238 44.2841593,130.545161 C44.2841593,131.903085 45.3863548,133.00528 46.7442782,133.00528 L100.868913,133.00528 C102.226837,133.00528 103.329032,131.903085 103.329032,130.545161 C103.329032,129.187238 102.226837,128.085042 100.868913,128.085042 Z M58.7277359,128.085042 C61.7563952,124.729444 63.5398589,119.732516 63.8990887,113.323752 L83.716121,113.323752 C84.072756,119.732516 85.8565081,124.729444 88.8874738,128.085042 L58.7277359,128.085042 Z" id="Shape" fill-rule="nonzero"></path>
                            <path d="M117.558974,72.6414052 L111.620149,66.7025806 L114.924141,63.3985887 C115.536792,62.7859375 115.782718,61.8953589 115.571101,61.0563871 C115.359484,60.2174153 114.722327,59.5531573 113.893157,59.3023306 L89.2911028,51.9216855 C88.4227238,51.6607681 87.4854395,51.8994859 86.8456875,52.5392379 C86.203629,53.1789899 85.967506,54.1185806 86.2281351,54.9846532 L93.6087802,79.5867077 C93.8573004,80.4181835 94.5238649,81.0553407 95.3628367,81.2669577 C96.1992137,81.4736734 97.0923871,81.2323609 97.7050383,80.619998 L101.183744,77.1386976 L107.122569,83.0801169 C107.582706,83.5425605 108.21006,83.8008831 108.861921,83.8008831 C109.513782,83.8008831 110.141137,83.5425605 110.601274,83.0801169 L117.558685,76.1201109 C118.520764,75.1583206 118.520764,73.6034839 117.558974,72.6414052 Z M108.861921,77.8620585 L103.454446,72.4519879 C102.827091,71.8246331 102.005417,71.5121089 101.183744,71.5121089 C100.359476,71.5121089 99.5378024,71.8269395 98.9130423,72.4493931 L97.1367863,74.2256492 L92.2531633,57.9464254 L108.532387,62.8300484 L106.628123,64.7343125 C106.103982,65.2607601 105.816252,65.9596149 105.816252,66.7025806 C105.816252,67.4481411 106.106577,68.1516089 106.633024,68.6731552 L112.340627,74.3807581 L108.861921,77.8620585 Z" id="Shape" fill-rule="nonzero"></path>
                            <path d="M103.329032,19.8354839 L34.4431069,19.8354839 C33.0851835,19.8354839 31.9829879,20.9376794 31.9829879,22.2956028 L31.9829879,34.5967742 C31.9829879,35.9546976 33.0851835,37.0568931 34.4431069,37.0568931 L103.329032,37.0568931 C104.686956,37.0568931 105.789151,35.9546976 105.789151,34.5967742 L105.789151,22.2956028 C105.789151,20.9376794 104.686956,19.8354839 103.329032,19.8354839 Z M100.868913,32.1366552 L36.9032258,32.1366552 L36.9032258,24.7560101 L100.868913,24.7560101 L100.868913,32.1366552 Z" id="Shape" fill-rule="nonzero"></path>
                            <path d="M63.9656875,46.8979456 L44.283871,46.8979456 C42.9259476,46.8979456 41.823752,48.0001411 41.823752,49.3580645 L41.823752,59.1988286 C41.823752,60.556752 42.9259476,61.6589476 44.283871,61.6589476 L63.9656875,61.6589476 C65.3236109,61.6589476 66.4258065,60.556752 66.4258065,59.1988286 L66.4258065,49.3580645 C66.4258065,48.0001411 65.3236109,46.8979456 63.9656875,46.8979456 Z M61.5052802,56.7387097 L46.7439899,56.7387097 L46.7439899,51.8181835 L61.5052802,51.8181835 L61.5052802,56.7387097 Z" id="Shape" fill-rule="nonzero"></path>
                            <path d="M103.329032,19.8354839 L34.4431069,19.8354839 C33.0851835,19.8354839 31.9829879,20.9376794 31.9829879,22.2956028 L31.9829879,69.0395927 C31.9829879,70.3975161 33.0851835,71.4997117 34.4431069,71.4997117 L93.011121,71.4997117 C93.7909899,71.4997117 94.5215585,71.1332742 94.9842903,70.5082258 C95.4493286,69.8834657 95.5920403,69.076496 95.3680262,68.3309355 L92.2534516,57.9464254 L102.623258,61.0586935 C103.368819,61.2827077 104.175788,61.139996 104.797954,60.6749577 C105.422714,60.2125141 105.78944,59.4793508 105.78944,58.7017883 L105.78944,22.2956028 C105.789151,20.9376794 104.686956,19.8354839 103.329032,19.8354839 Z M100.868913,55.3954899 L89.2885081,51.9216855 C88.420129,51.6607681 87.4828448,51.8994859 86.8430927,52.5392379 C86.2010343,53.1812964 85.9649113,54.1185806 86.2255403,54.987248 L89.704246,66.5797621 L36.9032258,66.5797621 L36.9032258,24.7560101 L100.868913,24.7560101 L100.868913,55.3954899 Z" id="Shape" fill-rule="nonzero"></path>
                        </g>
                    </g>
                </g>
            </g>
        </g>
    </g>
</svg>