<?xml version="1.0" encoding="UTF-8"?>
<svg width="28px" height="27px" viewBox="0 0 28 27" version="1.1" xmlns="http://www.w3.org/2000/svg" xmlns:xlink="http://www.w3.org/1999/xlink">
    <!-- Generator: Sketch 52.2 (67145) - http://www.bohemiancoding.com/sketch -->
    <title>Shape</title>
    <desc>Created with Sketch.</desc>
    <g id="Page-1" stroke="none" stroke-width="1" fill="none" fill-rule="evenodd">
        <g id="Главная-страница" transform="translate(-496.000000, -4775.000000)" fill="#FFFFFF" fill-rule="nonzero">
            <g id="search-tours" transform="translate(0.000000, 3663.000000)">
                <g id="Group-51" transform="translate(320.000000, 1072.000000)">
                    <g id="Group-47">
                        <g id="Group-54" transform="translate(0.000000, 40.000000)">
                            <path d="M204,10.4164924 C204,9.99866518 203.685978,9.73899889 203.057463,9.63725621 L194.610636,8.40103819 L190.824632,0.694341861 C190.61163,0.231368187 190.336566,0 190.000088,0 C189.66367,0 189.388783,0.231368187 189.175604,0.694341861 L185.389423,8.40103819 L176.942184,9.63725621 C176.31414,9.73899889 176,9.99866518 176,10.4164924 C176,10.6537338 176.140273,10.9247312 176.420759,11.2296033 L182.545838,17.2254802 L181.098732,25.6940897 C181.076276,25.8522506 181.065137,25.9655024 181.065137,26.0329551 C181.065137,26.2700779 181.123957,26.470419 181.241716,26.6342751 C181.359415,26.7983686 181.535993,26.88 181.771687,26.88 C181.973726,26.88 182.197986,26.8125473 182.444759,26.6769299 L189.999912,22.6792436 L197.555418,26.6765146 C197.79117,26.812132 198.015488,26.88 198.228254,26.88 C198.688679,26.88 198.918655,26.5982054 198.918655,26.0333704 C198.918655,25.8867779 198.912997,25.7738821 198.90174,25.6942677 L197.454751,17.2259548 L203.562739,11.2300185 C203.854364,10.936003 204,10.6648869 204,10.4164924 Z M195.132415,16.4633296 L196.343651,23.5942158 L189.999912,20.2233 L183.639198,23.5942158 L184.867644,16.4633296 L179.71852,11.432614 L186.819614,10.3825584 L189.999853,3.91231739 L193.179974,10.3825584 L200.281657,11.432614 L195.132415,16.4633296 Z" id="Shape"></path>
                        </g>
                    </g>
                </g>
            </g>
        </g>
    </g>
</svg>