<?xml version="1.0" encoding="UTF-8"?>
<svg width="143px" height="143px" viewBox="0 0 143 143" version="1.1" xmlns="http://www.w3.org/2000/svg" xmlns:xlink="http://www.w3.org/1999/xlink">
    <!-- Generator: Sketch 52.2 (67145) - http://www.bohemiancoding.com/sketch -->
    <title>debit-card (1) 2</title>
    <desc>Created with Sketch.</desc>
    <g id="Page-1" stroke="none" stroke-width="1" fill="none" fill-rule="evenodd">
        <g id="О-нас" transform="translate(-889.000000, -3013.000000)" fill="#FFFFFF">
            <g id="Group-12" transform="translate(373.000000, 3013.000000)">
                <g id="Group-21">
                    <g id="debit-card-(1)-2" transform="translate(516.000000, 0.000000)">
                        <g id="debit-card-(1)">
                            <path d="M119.103145,25.2355744 L119.103145,11.9103145 C119.094808,5.3358209 113.767324,0.00833722015 107.19283,0 L11.9103145,0 C5.3358209,0.00833722015 0.00833722015,5.3358209 0,11.9103145 L0,64.3156983 C0.0184610256,70.3988915 4.62953932,75.4863823 10.68117,76.1033365 L19.6353445,99.3469108 C22.0007329,105.484296 28.893232,108.541674 35.0312125,106.179263 L90.9471615,84.639459 C87.0834555,94.731664 88.1827776,106.053013 93.9140209,115.213832 L95.282516,117.402352 L95.282516,140.541711 C95.282516,141.857801 96.3484892,142.923774 97.6645789,142.923774 L140.541711,142.923774 C141.857801,142.923774 142.923774,141.857801 142.923774,140.541711 L142.923774,61.9127923 C142.901144,53.6750233 139.621639,45.782058 133.797496,39.9561276 L119.103145,25.2355744 Z M119.103145,39.4815015 L126.332706,58.2485841 C127.749438,61.9324444 125.913463,66.065919 122.230198,67.483842 L118.097914,69.0798241 C118.757746,67.5779335 119.099572,65.9545576 119.103145,64.3156983 L119.103145,39.4815015 Z M4.7641258,64.3156983 L4.7641258,11.9103145 C4.7641258,7.96442738 7.96442738,4.7641258 11.9103145,4.7641258 L107.19283,4.7641258 C111.138718,4.7641258 114.339019,7.96442738 114.339019,11.9103145 L114.339019,27.0507063 L114.318176,27.0507063 L114.339019,27.1048983 L114.339019,64.3156983 C114.320558,64.7313682 114.266366,65.1434652 114.177039,65.5496069 L92.3573428,43.7275287 C87.4526752,38.9360092 79.6335537,38.8990872 74.6848181,43.6405833 C69.7348914,48.3850571 69.437729,56.1982234 74.0154584,61.3017932 L83.317414,71.461887 L11.9103145,71.461887 C7.96442738,71.461887 4.7641258,68.2615854 4.7641258,64.3156983 Z M35.2807336,76.2260128 L18.3418843,82.7475055 L15.8359542,76.2260128 L35.2807336,76.2260128 Z M33.3179138,101.732547 C29.6352445,103.152256 25.4993879,101.316281 24.0802739,97.6336121 L20.0617337,87.1835021 L48.4964186,76.2260128 L48.4964186,76.2117204 L87.6837353,76.2117204 L90.7798216,79.5871035 L33.3179138,101.732547 Z M138.159648,138.159648 L100.046642,138.159648 L100.046642,119.103145 L138.159648,119.103145 L138.159648,138.159648 Z M138.159648,114.339019 L98.9866238,114.339019 L97.953404,112.68825 C92.1453392,103.406541 91.9142791,91.6832189 97.3501466,82.18117 C97.8646722,81.2819412 97.7384228,80.1528434 97.0380963,79.3893923 L77.5176864,58.09375 C74.6068055,54.9077408 74.7705724,49.9822303 77.8869061,46.998101 C81.004431,44.0133762 85.9323236,44.0622086 88.9885103,47.106485 L126.947278,85.05632 L130.315515,81.688083 L121.501882,72.8744503 L123.945879,71.9216251 C130.0785,69.5556412 133.134686,62.6690974 130.775253,56.5329033 L122.712566,35.5969525 L130.429259,43.3297241 C135.360129,48.2594034 138.140592,54.9398987 138.159648,61.9127923 L138.159648,114.339019 Z" id="Shape" fill-rule="nonzero"></path>
                            <path d="M27.1555171,33.3488806 C30.5761594,33.3488806 33.3488806,30.5761594 33.3488806,27.1555171 L33.3488806,15.7216151 C33.3488806,12.3009728 30.5761594,9.5282516 27.1555171,9.5282516 L15.7216151,9.5282516 C12.3009728,9.5282516 9.5282516,12.3009728 9.5282516,15.7216151 L9.5282516,27.1555171 C9.5282516,30.5761594 12.3009728,33.3488806 15.7216151,33.3488806 L27.1555171,33.3488806 Z M14.2923774,27.1555171 L14.2923774,23.820629 L19.0565032,23.820629 L19.0565032,19.0565032 L14.2923774,19.0565032 L14.2923774,15.7216151 C14.2923774,14.9325568 14.9325568,14.2923774 15.7216151,14.2923774 L27.1555171,14.2923774 C27.9445754,14.2923774 28.5847548,14.9325568 28.5847548,15.7216151 L28.5847548,19.0565032 L23.820629,19.0565032 L23.820629,23.820629 L28.5847548,23.820629 L28.5847548,27.1555171 C28.5847548,27.9445754 27.9445754,28.5847548 27.1555171,28.5847548 L15.7216151,28.5847548 C14.9325568,28.5847548 14.2923774,27.9445754 14.2923774,27.1555171 Z" id="Shape" fill-rule="nonzero"></path>
                            <polygon id="Path" points="11.9103145 40.4950693 21.4385661 40.4950693 21.4385661 45.2591951 11.9103145 45.2591951"></polygon>
                            <polygon id="Path" points="11.9103145 54.7874467 21.4385661 54.7874467 21.4385661 59.5515725 11.9103145 59.5515725"></polygon>
                            <polygon id="Path" points="54.7874467 54.7874467 64.3156983 54.7874467 64.3156983 59.5515725 54.7874467 59.5515725"></polygon>
                            <polygon id="Path" points="26.2026919 40.4950693 35.7309435 40.4950693 35.7309435 45.2591951 26.2026919 45.2591951"></polygon>
                            <polygon id="Path" points="40.4950693 40.4950693 50.0233209 40.4950693 50.0233209 45.2591951 40.4950693 45.2591951"></polygon>
                            <polygon id="Path" points="54.7874467 40.4950693 64.3156983 40.4950693 64.3156983 45.2591951 54.7874467 45.2591951"></polygon>
                            <polygon id="Path" points="100.046642 11.9103145 104.810768 11.9103145 104.810768 19.0565032 100.046642 19.0565032"></polygon>
                            <polygon id="Path" points="90.5183902 11.9103145 95.282516 11.9103145 95.282516 19.0565032 90.5183902 19.0565032"></polygon>
                            <polygon id="Path" points="80.9901386 11.9103145 85.7542644 11.9103145 85.7542644 19.0565032 80.9901386 19.0565032"></polygon>
                            <polygon id="Path" points="71.461887 11.9103145 76.2260128 11.9103145 76.2260128 19.0565032 71.461887 19.0565032"></polygon>
                            <polygon id="Path" points="104.810768 123.867271 109.574893 123.867271 109.574893 128.631397 104.810768 128.631397"></polygon>
                        </g>
                    </g>
                </g>
            </g>
        </g>
    </g>
</svg>