<?xml version="1.0" encoding="UTF-8"?>
<svg width="10px" height="10px" viewBox="0 0 10 10" version="1.1" xmlns="http://www.w3.org/2000/svg" xmlns:xlink="http://www.w3.org/1999/xlink">
    <!-- Generator: Sketch 52.2 (67145) - http://www.bohemiancoding.com/sketch -->
    <title>wind</title>
    <desc>Created with Sketch.</desc>
    <g id="Page-1" stroke="none" stroke-width="1" fill="none" fill-rule="evenodd">
        <g id="Главная-страница" transform="translate(-1210.000000, -1340.000000)" fill="#FFFFFF">
            <g id="Group-7" transform="translate(320.000000, 878.000000)">
                <g id="popular-countries">
                    <g id="Group-10" transform="translate(0.000000, 115.000000)">
                        <g id="Rectangle-2" transform="translate(652.000000, 0.000000)">
                            <g id="Group-6" transform="translate(20.000000, 283.000000)">
                                <g id="wind" transform="translate(218.000000, 64.000000)">
                                    <path d="M0.136308594,5.42169444 C0.727871094,6.14333333 1.39833984,6.96130556 2.69523438,6.96130556 C3.99216797,6.96127778 4.66267578,6.14333333 5.25425781,5.42169444 C5.81371094,4.73925 6.296875,4.14983333 7.30464844,4.14983333 C8.31244141,4.14983333 8.79560547,4.73925 9.35503906,5.42169444 C9.51880859,5.62144444 9.76541016,5.59461111 9.90585938,5.36172222 C10.0463086,5.12880556 10.0274414,4.77808333 9.86367188,4.57833333 C9.27208984,3.85669444 8.60158203,3.03872222 7.30464844,3.03872222 C6.00771484,3.03872222 5.33720703,3.85666667 4.745625,4.57833333 C4.18617188,5.26077778 3.70300781,5.85019444 2.69523437,5.85019444 C1.68748047,5.85019444 1.204375,5.26080556 0.644960937,4.57833333 C0.481210937,4.37858333 0.234609375,4.40538889 0.094140625,4.63830556 C-0.046328125,4.87119444 -0.0274414062,5.22194444 0.136308594,5.42169444 Z" id="Path"></path>
                                    <path d="M0.136308594,2.38297222 C0.727851563,3.10463889 1.39832031,3.92258333 2.69523437,3.92258333 C3.99216797,3.92258333 4.66267578,3.10463889 5.25425781,2.38297222 C5.81371094,1.70052778 6.29685547,1.11111111 7.30464844,1.11111111 C8.31240234,1.11111111 8.79556641,1.7005 9.35503906,2.38297222 C9.51880859,2.58277778 9.76539063,2.55586111 9.90583984,2.32294444 C10.0463086,2.09005556 10.0273828,1.73927778 9.86363281,1.53955556 C9.27205078,0.817888889 8.60154297,0 7.30464844,0 C6.00771484,0 5.33720703,0.817944444 4.745625,1.53961111 C4.18617187,2.22205556 3.70300781,2.81147222 2.69523437,2.81147222 C1.6875,2.81147222 1.204375,2.22208333 0.644960937,1.53961111 C0.481210937,1.33983333 0.234589844,1.36666667 0.094140625,1.59958333 C-0.046328125,1.83247222 -0.0274414062,2.18322222 0.136308594,2.38297222 Z" id="Path"></path>
                                    <path d="M9.86367188,7.61702778 C9.27208984,6.89538889 8.60158203,6.07741667 7.30464844,6.07741667 C6.00771484,6.07741667 5.33720703,6.89536111 4.745625,7.61702778 C4.18617188,8.29947222 3.70300781,8.88888889 2.69523438,8.88888889 C1.68753906,8.88888889 1.20439453,8.2995 0.644980469,7.61708333 L0.644941406,7.61702778 C0.481191406,7.41733333 0.234609375,7.44416667 0.094140625,7.67702778 C-0.0463085937,7.90991667 -0.027421875,8.26066667 0.136328125,8.46041667 C0.727890625,9.18208333 1.39837891,10 2.69523438,10 C3.99216797,10 4.66267578,9.18205556 5.25425781,8.46038889 C5.81371094,7.77794444 6.296875,7.18852778 7.30464844,7.18852778 C8.31244141,7.18852778 8.79560547,7.77794444 9.35503906,8.46038889 C9.51880859,8.66013889 9.76541016,8.63330556 9.90585938,8.40041667 C10.0463086,8.1675 10.0274414,7.81677778 9.86367188,7.61702778 Z" id="Path"></path>
                                </g>
                            </g>
                        </g>
                    </g>
                </g>
            </g>
        </g>
    </g>
</svg>