<?xml version="1.0" encoding="UTF-8"?>
<svg width="23px" height="14px" viewBox="0 0 23 14" version="1.1" xmlns="http://www.w3.org/2000/svg" xmlns:xlink="http://www.w3.org/1999/xlink">
    <!-- Generator: Sketch 52.2 (67145) - http://www.bohemiancoding.com/sketch -->
    <title>Shape</title>
    <desc>Created with Sketch.</desc>
    <g id="Symbols" stroke="none" stroke-width="1" fill="none" fill-rule="evenodd">
        <g id="Footer" transform="translate(-328.000000, -192.000000)" fill="#EBEBEB" fill-rule="nonzero">
            <g id="-footer">
                <g id="Group-12" transform="translate(320.000000, 177.000000)">
                    <g id="Group-11" transform="translate(0.000000, 1.000000)">
                        <g id="vk-social-network-logo" transform="translate(8.000000, 14.000000)">
                            <path d="M22.8513169,11.8685865 C22.8234991,11.8086357 22.7975665,11.7589071 22.7734772,11.7190656 C22.3748944,11.0012058 21.6132131,10.1200838 20.4888944,9.07544809 L20.4651403,9.05152641 L20.4532423,9.03979599 L20.4412186,9.02777231 L20.429153,9.02777231 C19.9188798,8.54133698 19.5957486,8.21426776 19.4604299,8.04681603 C19.2128342,7.72783242 19.1573661,7.40495264 19.2926849,7.07779964 C19.3882878,6.83062295 19.7474062,6.30861931 20.3692022,5.5110765 C20.6962714,5.08840437 20.9553042,4.74964663 21.1465938,4.49442623 C22.5262168,2.66029144 23.1243424,1.48825501 22.9408452,0.977856102 L22.8695829,0.858582878 C22.8216976,0.786775956 22.6981093,0.72108561 22.4989854,0.661176685 C22.2994007,0.601393443 22.044306,0.591506375 21.7332404,0.631347905 L18.2885191,0.655143898 C18.2327158,0.635369763 18.1530328,0.637213115 18.0492186,0.661176685 C17.9455301,0.685140255 17.8936648,0.697163934 17.8936648,0.697163934 L17.833714,0.727118397 L17.786122,0.763105647 C17.7462386,0.786901639 17.7023752,0.828754098 17.65449,0.888579235 C17.6068561,0.9481949 17.5670146,1.01815847 17.5351749,1.09788342 C17.1601366,2.06275228 16.7337359,2.95983607 16.2551767,3.7890929 C15.9601148,4.28357195 15.6891421,4.71210929 15.4416721,5.07495628 C15.1945373,5.4376776 14.9872022,5.70492168 14.8198761,5.87622769 C14.6522987,6.04770128 14.5010601,6.18507286 14.3652386,6.28884517 C14.2296266,6.39265938 14.1261056,6.43652277 14.0544244,6.42047723 C13.9825756,6.40443169 13.9149162,6.38851184 13.8508597,6.37259199 C13.7392951,6.30078506 13.6495574,6.20312933 13.581898,6.07954098 C13.5139454,5.95595264 13.4681967,5.80039891 13.444275,5.61300546 C13.4204791,5.42548634 13.4064026,5.26419308 13.4023807,5.12858106 C13.3986521,4.99313661 13.4003698,4.80155373 13.4084554,4.55437705 C13.4167505,4.30707468 13.4204791,4.13974863 13.4204791,4.05202186 C13.4204791,3.74895811 13.4263862,3.42004554 13.4382423,3.06520036 C13.4503078,2.71035519 13.4600692,2.42920219 13.4682386,2.2220765 C13.4763661,2.01474135 13.4801366,1.79538251 13.4801366,1.56412568 C13.4801366,1.33286885 13.4660601,1.1515082 13.4382423,1.01987614 C13.4107596,0.888411658 13.3685719,0.760801457 13.3129781,0.637087432 C13.2570492,0.513499089 13.1751876,0.417896175 13.0677705,0.350027322 C12.9601439,0.282242259 12.8263333,0.228449909 12.6670929,0.188482696 C12.2444208,0.0928378871 11.706204,0.0410983607 11.0521913,0.0330546448 C9.56908925,0.0171347905 8.6161184,0.112905282 8.19348816,0.320240437 C8.02603643,0.40784153 7.87450455,0.527533698 7.73901821,0.678939891 C7.59544627,0.854435337 7.57542077,0.950205829 7.6790674,0.965958106 C8.1575847,1.03763934 8.49634244,1.20911293 8.69571767,1.48021129 L8.76756648,1.62386703 C8.82345355,1.72751366 8.87925683,1.91101093 8.935102,2.17410747 C8.99086339,2.43720401 9.02685064,2.72824408 9.0426867,3.04706011 C9.08248634,3.62926594 9.08248634,4.12764117 9.0426867,4.54222769 C9.00276138,4.95698179 8.96505647,5.27986157 8.92906922,5.5111184 C8.89308197,5.74237523 8.83928962,5.92976867 8.76756648,6.07325683 C8.69571767,6.21678689 8.64791621,6.30451366 8.62395264,6.33635337 C8.60003097,6.36819308 8.58008925,6.38826047 8.56425319,6.39613661 C8.46060656,6.43585246 8.35281239,6.45608743 8.24124772,6.45608743 C8.12951548,6.45608743 7.99402914,6.40020036 7.83457923,6.28851002 C7.67517122,6.17681967 7.50973042,6.02340255 7.33825683,5.82800729 C7.16678324,5.63257013 6.97339891,5.35946084 6.75802004,5.00863752 C6.54280874,4.65781421 6.31951184,4.24318579 6.08825501,3.76475228 L5.8969235,3.41778324 C5.77731512,3.19457013 5.61392714,2.86955373 5.40659199,2.44302732 C5.19913115,2.01633333 5.01575956,1.60359016 4.85635155,1.2048816 C4.79263024,1.03742987 4.69690164,0.909945355 4.56933333,0.822218579 L4.5094663,0.78623133 C4.46966667,0.754391621 4.40577778,0.720582878 4.31813479,0.684553734 C4.23036612,0.648566485 4.13878506,0.622759563 4.04301457,0.606881603 L0.765661202,0.630677596 C0.430757741,0.630677596 0.203522769,0.70654827 0.0838724954,0.858080146 L0.0359872495,0.929761384 C0.0120655738,0.969686703 0,1.03344991 0,1.12121858 C0,1.20894536 0.0239216758,1.31661384 0.0718069217,1.44409836 C0.550240437,2.56854281 1.07052641,3.65297814 1.63266485,4.69757195 C2.19480328,5.74216576 2.68329144,6.58361384 3.09783607,7.22116211 C3.51246448,7.85917122 3.93509472,8.46131876 4.36572678,9.02731148 C4.79635883,9.59351366 5.08140801,9.95636066 5.22087432,10.1157687 C5.3605082,10.2754699 5.47018761,10.3948689 5.54991257,10.4745938 L5.84899636,10.761612 C6.04036976,10.9530273 6.32139709,11.1822732 6.69220401,11.4493497 C7.06309472,11.7165938 7.47370128,11.9796903 7.92423315,12.2390583 C8.37484882,12.4980073 8.89907286,12.7093224 9.49719854,12.8727523 C10.0952404,13.0363497 10.6773206,13.1019982 11.2435228,13.070326 L12.619082,13.070326 C12.8980565,13.0462368 13.1094135,12.95851 13.2530692,12.8071038 L13.3006612,12.747153 C13.3326685,12.699561 13.362623,12.6256175 13.3902732,12.5261184 C13.4182587,12.4264517 13.4321676,12.3166466 13.4321676,12.1972058 C13.4239982,11.8543843 13.4500984,11.5454135 13.5097559,11.2703352 C13.5693716,10.9953406 13.6373242,10.7880055 13.7133206,10.6483716 C13.789275,10.5088634 13.8749909,10.3911403 13.9703843,10.2957049 C14.0659872,10.2000601 14.1341075,10.1421202 14.1740747,10.1221785 C14.2137905,10.1021111 14.2455046,10.0884954 14.2694262,10.080326 C14.4607996,10.0165628 14.6860237,10.0783151 14.9454335,10.2658761 C15.2046339,10.4532696 15.4477468,10.6846521 15.6751494,10.9596466 C15.9024262,11.2348925 16.1754936,11.5436958 16.4943934,11.8865173 C16.8135027,12.2294645 17.0925191,12.4843916 17.3316521,12.6520947 L17.5707851,12.7956248 C17.7304863,12.8913953 17.9378215,12.979122 18.1930419,13.058847 C18.4478015,13.1385301 18.6710146,13.1584718 18.8626812,13.1186302 L21.9246138,13.0708707 C22.2274681,13.0708707 22.4631239,13.0207231 22.6302823,12.921224 C22.797776,12.8215574 22.897275,12.7117523 22.9293661,12.5923115 C22.9613734,12.472745 22.9630911,12.3370911 22.9354408,12.1854335 C22.9070783,12.034153 22.8791348,11.9283698 22.8513169,11.8685865 Z" id="Shape"></path>
                        </g>
                    </g>
                </g>
            </g>
        </g>
    </g>
</svg>