<svg height="474pt" viewBox="0 -107 474.814 474" width="474pt" fill="#1F82FF" xmlns="http://www.w3.org/2000/svg"><path d="m435.382812.40625h-278.109374c-21.769532.023438-39.40625 17.664062-39.433594 39.433594v181.433594c.027344 21.769531 17.664062 39.40625 39.433594 39.429687h278.109374c21.765626-.023437 39.40625-17.660156 39.429688-39.429687v-181.4375c-.023438-21.765626-17.660156-39.40625-39.429688-39.429688zm-60.929687 130.046875 80.359375-62.890625v140.898438zm-217.179687-110.046875h278.109374c10.726563.011719 19.417969 8.707031 19.429688 19.433594v2.328125l-140.550781 110c-9.707031 7.574219-23.328125 7.554687-33.011719-.050781l-143.40625-109.945313v-2.335937c.011719-10.726563 8.703125-19.417969 19.429688-19.429688zm63.046874 110.199219-82.476562 77.566406v-140.800781zm215.0625 110.101562h-278.109374c-6.363282-.003906-12.320313-3.125-15.945313-8.355469l95.078125-89.414062 32.613281 25c16.910157 13.210938 40.648438 13.207031 57.554688-.011719l31.984375-25.03125 92.507812 89.800781c-3.644531 5.023438-9.472656 8-15.683594 8.007813zm0 0"/><path d="m77.988281 109.6875h-22.371093c-5.523438 0-10 4.476562-10 10s4.476562 10 10 10h22.371093c5.523438 0 10-4.476562 10-10s-4.476562-10-10-10zm0 0"/><path d="m77.988281 164.429688h-67.988281c-5.523438 0-10 4.476562-10 10 0 5.523437 4.476562 10 10 10h67.988281c5.523438 0 10-4.476563 10-10 0-5.523438-4.476562-10-10-10zm0 0"/><path d="m77.988281 50.382812h-57.988281c-5.523438 0-10 4.476563-10 10 0 5.523438 4.476562 10 10 10h57.988281c5.523438 0 10-4.476562 10-10 0-5.523437-4.476562-10-10-10zm0 0"/></svg>