<?xml version="1.0" encoding="UTF-8"?>
<svg width="30px" height="21px" viewBox="0 0 30 21" version="1.1" xmlns="http://www.w3.org/2000/svg" xmlns:xlink="http://www.w3.org/1999/xlink">
    <!-- Generator: Sketch 52.2 (67145) - http://www.bohemiancoding.com/sketch -->
    <title>Shape</title>
    <desc>Created with Sketch.</desc>
    <g id="Page-1" stroke="none" stroke-width="1" fill="none" fill-rule="evenodd">
        <g id="Статьи-внутренняя" transform="translate(-649.000000, -793.000000)" fill="#C1CEDF" fill-rule="nonzero">
            <g id="Group-16" transform="translate(321.000000, 727.000000)">
                <g id="Group-2" transform="translate(328.000000, 66.000000)">
                    <g id="quotes">
                        <path d="M6.57894737,7.5 C10.1962573,7.5 13.128655,10.4324561 13.128655,14.0497076 C13.128655,17.6669591 10.1962573,20.5994152 6.57894737,20.5994152 C2.96163743,20.5994152 0.0292397661,17.6669591 0.0292397661,14.0497076 L0,13.1140351 C0,5.8794152 5.86479532,0.014619883 13.0994152,0.014619883 L13.0994152,3.75730994 C10.6001754,3.75730994 8.25046784,4.7305848 6.48321637,6.49783626 C6.14304094,6.83807018 5.8325731,7.20005848 5.55251462,7.5802924 C5.88695906,7.52766082 6.2297076,7.5 6.57894737,7.5 Z M23.4210526,7.5 C27.0383041,7.5 29.9707602,10.4324561 29.9707602,14.0497076 C29.9707602,17.6669591 27.0383041,20.5994152 23.4210526,20.5994152 C19.8038012,20.5994152 16.871345,17.6669591 16.871345,14.0497076 L16.8421053,13.1140351 C16.8421053,5.8794152 22.7068421,0.014619883 29.9415205,0.014619883 L29.9415205,3.75730994 C27.4423392,3.75730994 25.0925146,4.7305848 23.3253216,6.49783626 C22.9850877,6.83807018 22.6746199,7.20005848 22.3945614,7.5802924 C22.7290058,7.52766082 23.0717544,7.5 23.4210526,7.5 Z" id="Shape"></path>
                    </g>
                </g>
            </g>
        </g>
    </g>
</svg>