<?xml version="1.0" encoding="UTF-8"?>
<svg width="26px" height="26px" viewBox="0 0 26 26" version="1.1" xmlns="http://www.w3.org/2000/svg" xmlns:xlink="http://www.w3.org/1999/xlink">
    <!-- Generator: Sketch 52.2 (67145) - http://www.bohemiancoding.com/sketch -->
    <title>Combined Shape</title>
    <desc>Created with Sketch.</desc>
    <g id="Page-1" stroke="none" stroke-width="1" fill="none" fill-rule="evenodd">
        <g id="Главная-страница" transform="translate(-1189.000000, -1302.000000)" fill="#FFFFFF" fill-rule="nonzero">
            <g id="Group-7" transform="translate(320.000000, 878.000000)">
                <g id="popular-countries">
                    <g id="Group-10" transform="translate(0.000000, 115.000000)">
                        <g id="Rectangle-2" transform="translate(652.000000, 0.000000)">
                            <g id="Group-6" transform="translate(20.000000, 283.000000)">
                                <g id="Group-5" transform="translate(197.000000, 26.000000)">
                                    <g id="sun">
                                        <path d="M17.6084656,8.39153439 C18.8121693,9.56084656 19.5343915,11.2116402 19.5343915,13 C19.5343915,14.7883598 18.7777778,16.4391534 17.6084656,17.6084656 C16.4391534,18.8121693 14.7883598,19.5343915 13,19.5343915 C11.2116402,19.5343915 9.56084656,18.7777778 8.39153439,17.6084656 C7.22222222,16.4391534 6.46560847,14.7883598 6.46560847,13 C6.46560847,11.2116402 7.22222222,9.56084656 8.39153439,8.39153439 C9.56084656,7.18783069 11.2116402,6.46560847 13,6.46560847 C14.7883598,6.46560847 16.4391534,7.22222222 17.6084656,8.39153439 Z M16.3703704,16.3703704 C17.2301587,15.510582 17.7460317,14.3068783 17.7460317,13 C17.7460317,11.6931217 17.2301587,10.489418 16.3703704,9.62962963 C15.510582,8.76984127 14.3068783,8.25396825 13,8.25396825 C11.6931217,8.25396825 10.489418,8.76984127 9.62962963,9.62962963 C8.76984127,10.489418 8.25396825,11.6931217 8.25396825,13 C8.25396825,14.3068783 8.76984127,15.510582 9.62962963,16.3703704 C10.489418,17.2301587 11.6931217,17.7460317 13,17.7460317 C14.3068783,17.7460317 15.510582,17.2301587 16.3703704,16.3703704 Z M25.1058201,12.1058201 C25.5873016,12.1058201 26,12.5185185 26,13 C26,13.4814815 25.5873016,13.8941799 25.1058201,13.8941799 L22.457672,13.8941799 C21.9761905,13.8941799 21.5634921,13.4814815 21.5634921,13 C21.5634921,12.5185185 21.9761905,12.1058201 22.457672,12.1058201 L25.1058201,12.1058201 Z M13,21.5634921 C13.4814815,21.5634921 13.8941799,21.9761905 13.8941799,22.457672 L13.8941799,25.1058201 C13.8941799,25.5873016 13.4814815,26 13,26 C12.5185185,26 12.1058201,25.5873016 12.1058201,25.1058201 L12.1058201,22.457672 C12.1058201,21.9761905 12.5185185,21.5634921 13,21.5634921 Z M22.1825397,20.9444444 C22.526455,21.2883598 22.526455,21.8386243 22.1825397,22.1825397 C21.8386243,22.526455 21.2883598,22.526455 20.9444444,22.1825397 L19.0529101,20.2910053 C18.7089947,19.9470899 18.7089947,19.3968254 19.0529101,19.0529101 C19.3968254,18.7089947 19.9814815,18.7089947 20.2910053,19.0529101 L22.1825397,20.9444444 Z M13,1.42108547e-14 C13.4814815,1.42108547e-14 13.8941799,0.412698413 13.8941799,0.894179894 L13.8941799,3.54232804 C13.8941799,4.02380952 13.4814815,4.43650794 13,4.43650794 C12.5185185,4.43650794 12.1058201,4.02380952 12.1058201,3.54232804 L12.1058201,0.894179894 C12.1058201,0.412698413 12.5185185,1.42108547e-14 13,1.42108547e-14 Z M22.2169312,3.81746032 C22.5608466,4.16137566 22.5608466,4.71164021 22.2169312,5.05555556 L20.3253968,6.94708995 C19.9814815,7.29100529 19.3968254,7.29100529 19.0873016,6.94708995 C18.7433862,6.6031746 18.7433862,6.05291005 19.0873016,5.70899471 L20.978836,3.81746032 C21.3227513,3.47354497 21.8730159,3.47354497 22.2169312,3.81746032 Z M3.54232804,12.1058201 C4.02380952,12.1058201 4.43650794,12.5185185 4.43650794,13 C4.43650794,13.4814815 4.02380952,13.8941799 3.54232804,13.8941799 L0.894179894,13.8941799 C0.378306878,13.8941799 -2.13162821e-13,13.4814815 -2.13162821e-13,13 C-2.13162821e-13,12.5185185 0.412698413,12.1058201 0.894179894,12.1058201 L3.54232804,12.1058201 Z M6.91269841,19.0529101 C7.25661376,19.3968254 7.25661376,19.9470899 6.91269841,20.2910053 L5.02116402,22.1825397 C4.67724868,22.526455 4.12698413,22.526455 3.78306878,22.1825397 C3.43915344,21.8386243 3.43915344,21.2883598 3.78306878,20.9444444 L5.67460317,19.0529101 C6.01851852,18.7089947 6.6031746,18.7089947 6.91269841,19.0529101 Z M6.91269841,5.70899471 C7.25661376,6.05291005 7.25661376,6.6031746 6.91269841,6.94708995 C6.56878307,7.29100529 6.01851852,7.29100529 5.67460317,6.94708995 L3.78306878,5.05555556 C3.43915344,4.71164021 3.43915344,4.16137566 3.78306878,3.81746032 C4.12698413,3.47354497 4.67724868,3.47354497 5.02116402,3.81746032 L6.91269841,5.70899471 Z" id="Combined-Shape"></path>
                                    </g>
                                </g>
                            </g>
                        </g>
                    </g>
                </g>
            </g>
        </g>
    </g>
</svg>