<?xml version="1.0" encoding="UTF-8"?>
<svg width="20px" height="20px" viewBox="0 0 20 20" version="1.1" xmlns="http://www.w3.org/2000/svg" xmlns:xlink="http://www.w3.org/1999/xlink">
    <!-- Generator: Sketch 52.2 (67145) - http://www.bohemiancoding.com/sketch -->
    <title>icon</title>
    <desc>Created with Sketch.</desc>
    <g id="Symbols" stroke="none" stroke-width="1" fill="none" fill-rule="evenodd">
        <g id="Footer" transform="translate(-386.000000, -187.000000)" fill="#282828" fill-rule="nonzero">
            <g id="-footer">
                <g id="Group-12" transform="translate(320.000000, 177.000000)">
                    <g id="Group-11" transform="translate(56.000000, 0.000000)">
                        <g id="icon" transform="translate(10.000000, 10.000000)">
                            <path d="M15.3846154,5.38461538 C14.9607692,5.38461538 14.6153846,5.03923077 14.6153846,4.61538462 L14.6153846,3.07692308 C14.6153846,2.65307692 14.9607692,2.30769231 15.3846154,2.30769231 L16.9230769,2.30769231 C17.3469231,2.30769231 17.6923077,2.65307692 17.6923077,3.07692308 L17.6923077,4.61538462 C17.6923077,5.03923077 17.3469231,5.38461538 16.9230769,5.38461538 L15.3846154,5.38461538 Z" id="Shape"></path>
                            <path d="M10,7.06769231 C9.44153846,7.06769231 8.92615385,7.23153846 8.48230769,7.50076923 C8.62076923,7.45769231 8.76461538,7.42923077 8.91615385,7.42923077 C9.73769231,7.42923077 10.4030769,8.09461538 10.4030769,8.91692308 C10.4030769,9.73692308 9.73769231,10.4038462 8.91615385,10.4038462 C8.09461538,10.4038462 7.42923077,9.73769231 7.42923077,8.91692308 C7.42923077,8.76384615 7.45923077,8.62 7.50153846,8.48230769 C7.23076923,8.92615385 7.06769231,9.44153846 7.06769231,10 C7.06769231,11.6207692 8.37923077,12.9330769 10.0007692,12.9330769 C11.62,12.9330769 12.9338462,11.6215385 12.9338462,10 C12.9338462,8.37846154 11.6192308,7.06769231 10,7.06769231 Z" id="Shape"></path>
                            <path d="M10,5.38461538 C12.5484615,5.38461538 14.6153846,7.45076923 14.6153846,10 C14.6153846,12.5492308 12.5476923,14.6153846 10,14.6153846 C7.45153846,14.6153846 5.38461538,12.5492308 5.38461538,10 C5.38461538,7.45076923 7.45153846,5.38461538 10,5.38461538 Z M10,3.84615385 C6.60692308,3.84615385 3.84615385,6.60692308 3.84615385,10 C3.84615385,13.3930769 6.60692308,16.1538462 10,16.1538462 C13.3930769,16.1538462 16.1538462,13.3930769 16.1538462,10 C16.1538462,6.60692308 13.3930769,3.84615385 10,3.84615385 Z" id="Shape"></path>
                            <path d="M16.25,0 L3.75,0 C1.67846154,0 0,1.67846154 0,3.75 L0,16.25 C0,18.3215385 1.67846154,20 3.75,20 L16.25,20 C18.3215385,20 20,18.3215385 20,16.25 L20,3.75 C20,1.67846154 18.3215385,0 16.25,0 Z M18.4615385,6.92307692 L13.4330769,6.92307692 C14.1661538,7.74076923 14.6153846,8.81615385 14.6153846,10 C14.6153846,12.5492308 12.5476923,14.6153846 10,14.6153846 C7.45153846,14.6153846 5.38461538,12.5492308 5.38461538,10 C5.38461538,8.81615385 5.83384615,7.74 6.56692308,6.92307692 L1.53846154,6.92307692 L1.53846154,3.75 C1.53846154,2.53076923 2.53076923,1.53846154 3.75,1.53846154 L16.25,1.53846154 C17.47,1.53846154 18.4615385,2.53076923 18.4615385,3.75 L18.4615385,6.92307692 Z" id="Shape"></path>
                        </g>
                    </g>
                </g>
            </g>
        </g>
    </g>
</svg>