<?xml version="1.0" encoding="UTF-8"?>
<svg width="143px" height="143px" viewBox="0 0 143 143" version="1.1" xmlns="http://www.w3.org/2000/svg" xmlns:xlink="http://www.w3.org/1999/xlink">
    <!-- Generator: Sketch 52.2 (67145) - http://www.bohemiancoding.com/sketch -->
    <title>insurance 2</title>
    <desc>Created with Sketch.</desc>
    <g id="Page-1" stroke="none" stroke-width="1" fill="none" fill-rule="evenodd">
        <g id="О-нас" transform="translate(-1322.000000, -3013.000000)" fill="#FFFFFF">
            <g id="Group-12" transform="translate(373.000000, 3013.000000)">
                <g id="Group-21">
                    <g id="insurance-2" transform="translate(949.000000, 0.000000)">
                        <g id="insurance">
                            <path d="M14.3,26.2166667 L28.6,26.2166667 C29.9162785,26.2166667 30.9833333,25.1496119 30.9833333,23.8333333 C30.9833333,22.5170547 29.9162785,21.45 28.6,21.45 L14.3,21.45 C12.9837213,21.45 11.9166667,22.5170547 11.9166667,23.8333333 C11.9166667,25.1496119 12.9837213,26.2166667 14.3,26.2166667 Z" id="Shape"></path>
                            <path d="M40.5166667,26.2166667 L61.9666667,26.2166667 C63.2829452,26.2166667 64.35,25.1496119 64.35,23.8333333 C64.35,22.5170547 63.2829452,21.45 61.9666667,21.45 L40.5166667,21.45 C39.2003881,21.45 38.1333333,22.5170547 38.1333333,23.8333333 C38.1333333,25.1496119 39.2003881,26.2166667 40.5166667,26.2166667 Z" id="Shape"></path>
                            <path d="M14.3,52.4333333 L90.5666667,52.4333333 C91.8829452,52.4333333 92.95,51.3662785 92.95,50.05 C92.95,48.7337215 91.8829452,47.6666667 90.5666667,47.6666667 L14.3,47.6666667 C12.9837213,47.6666667 11.9166667,48.7337215 11.9166667,50.05 C11.9166667,51.3662785 12.9837213,52.4333333 14.3,52.4333333 Z" id="Shape"></path>
                            <path d="M14.3,61.9666667 L47.6666667,61.9666667 C48.9829452,61.9666667 50.05,60.8996119 50.05,59.5833333 C50.05,58.2670548 48.9829452,57.2 47.6666667,57.2 L14.3,57.2 C12.9837213,57.2 11.9166667,58.2670548 11.9166667,59.5833333 C11.9166667,60.8996119 12.9837213,61.9666667 14.3,61.9666667 Z" id="Shape"></path>
                            <path d="M14.3,81.0333333 L47.6666667,81.0333333 C48.9829452,81.0333333 50.05,79.9662785 50.05,78.65 C50.05,77.3337215 48.9829452,76.2666667 47.6666667,76.2666667 L14.3,76.2666667 C12.9837213,76.2666667 11.9166667,77.3337215 11.9166667,78.65 C11.9166667,79.9662785 12.9837213,81.0333333 14.3,81.0333333 Z" id="Shape"></path>
                            <path d="M14.3,100.1 L47.6666667,100.1 C48.9829452,100.1 50.05,99.0329452 50.05,97.7166667 C50.05,96.4003881 48.9829452,95.3333333 47.6666667,95.3333333 L14.3,95.3333333 C12.9837213,95.3333333 11.9166667,96.4003881 11.9166667,97.7166667 C11.9166667,99.0329452 12.9837213,100.1 14.3,100.1 Z" id="Shape"></path>
                            <path d="M14.3,119.166667 L47.6666667,119.166667 C48.9829452,119.166667 50.05,118.099612 50.05,116.783333 C50.05,115.467055 48.9829452,114.4 47.6666667,114.4 L14.3,114.4 C12.9837213,114.4 11.9166667,115.467055 11.9166667,116.783333 C11.9166667,118.099612 12.9837213,119.166667 14.3,119.166667 Z" id="Shape"></path>
                            <path d="M141.57,69.4265 L114.4,57.69335 L114.4,7.15 C114.4,3.20116404 111.198836,2.41796467e-16 107.25,0 L16.6833333,0 C12.7344974,-2.41796467e-16 9.53333333,3.20116404 9.53333333,7.15 L9.53333333,9.53333333 L7.15,9.53333333 C3.20116404,9.53333333 4.83592931e-16,12.7344974 0,16.6833333 L0,135.85 C4.83592931e-16,139.798836 3.20116404,143 7.15,143 L97.7166667,143 C99.644857,142.995676 101.489109,142.210686 102.828917,140.824017 L104.78325,142.2135 C106.260556,143.262216 108.239444,143.262216 109.71675,142.2135 L132.7755,125.799483 C139.167667,121.262629 142.975644,113.918294 143,106.079783 L143,71.6144 C143.001409,70.6654496 142.439729,69.8060794 141.57,69.4265 Z M14.3,7.15 C14.3,5.83372135 15.3670547,4.76666667 16.6833333,4.76666667 L107.25,4.76666667 C108.566279,4.76666667 109.633333,5.83372135 109.633333,7.15 L109.633333,55.63415 L108.203333,55.0121 C107.600948,54.7523183 106.918119,54.7523183 106.315733,55.0121 L104.885733,55.63415 L104.885733,40.5166667 C104.885733,40.4642333 104.859517,40.4141833 104.85475,40.36175 C104.842931,40.1620898 104.804456,39.9649078 104.74035,39.77545 C104.723667,39.7206333 104.72605,39.6634333 104.7046,39.611 C104.68315,39.5585667 104.666467,39.5585667 104.65455,39.5299667 C104.538549,39.2706464 104.377121,39.0341537 104.177883,38.83165 L75.5778833,10.23165 C75.3753796,10.0324127 75.1388869,9.87098424 74.8795667,9.75498333 C74.8485833,9.74068333 74.8271333,9.71685 74.7985333,9.70493333 C74.7699333,9.69301667 74.6889,9.68586667 74.6364667,9.66918333 C74.4444122,9.60521116 74.2449901,9.56596746 74.0430167,9.5524 C73.9834333,9.55955 73.9357667,9.53333333 73.8833333,9.53333333 L14.3,9.53333333 L14.3,7.15 Z M76.2666667,17.6700333 L96.7299667,38.1333333 L78.65,38.1333333 C77.3337215,38.1333333 76.2666667,37.0662785 76.2666667,35.75 L76.2666667,17.6700333 Z M97.7166667,138.233333 L7.15,138.233333 C5.83372135,138.233333 4.76666667,137.166279 4.76666667,135.85 L4.76666667,16.6833333 C4.76666667,15.3670547 5.83372135,14.3 7.15,14.3 L71.5,14.3 L71.5,35.75 C71.5,39.6988358 74.7011642,42.9 78.65,42.9 L100.1,42.9 L100.1,57.69335 L92.42805,61.0133333 C92.7573316,60.6086062 92.9411423,60.1050152 92.95,59.5833333 C92.95,58.2670548 91.8829452,57.2 90.5666667,57.2 L57.2,57.2 C55.8837215,57.2 54.8166667,58.2670548 54.8166667,59.5833333 C54.8166667,60.8996119 55.8837215,61.9666667 57.2,61.9666667 L90.2067833,61.9666667 L79.17195,66.7333333 L14.3,66.7333333 C12.9837213,66.7333333 11.9166667,67.8003881 11.9166667,69.1166667 C11.9166667,70.4329452 12.9837213,71.5 14.3,71.5 L71.5166833,71.5 C71.5166833,71.5381333 71.5,71.5738833 71.5,71.6144 L71.5,76.2666667 L57.2,76.2666667 C55.8837215,76.2666667 54.8166667,77.3337215 54.8166667,78.65 C54.8166667,79.9662785 55.8837215,81.0333333 57.2,81.0333333 L71.5,81.0333333 L71.5,85.8 L14.3,85.8 C12.9837213,85.8 11.9166667,86.8670548 11.9166667,88.1833333 C11.9166667,89.4996119 12.9837213,90.5666667 14.3,90.5666667 L71.5,90.5666667 L71.5,95.3333333 L57.2,95.3333333 C55.8837215,95.3333333 54.8166667,96.4003881 54.8166667,97.7166667 C54.8166667,99.0329452 55.8837215,100.1 57.2,100.1 L71.5,100.1 L71.5,104.866667 L14.3,104.866667 C12.9837213,104.866667 11.9166667,105.933721 11.9166667,107.25 C11.9166667,108.566279 12.9837213,109.633333 14.3,109.633333 L71.7979167,109.633333 C72.0348977,111.25947 72.4390264,112.856816 73.0038833,114.4 L57.2,114.4 C55.8837215,114.4 54.8166667,115.467055 54.8166667,116.783333 C54.8166667,118.099612 55.8837215,119.166667 57.2,119.166667 L75.41105,119.166667 C76.5373607,120.920209 77.8837927,122.522151 79.4174333,123.933333 L14.3,123.933333 C12.9837213,123.933333 11.9166667,125.000388 11.9166667,126.316667 C11.9166667,127.632945 12.9837213,128.7 14.3,128.7 L85.8,128.7 L98.7844,137.942567 C98.4570611,138.12397 98.0907859,138.223714 97.7166667,138.233333 Z M138.233333,106.079783 C138.210129,112.375546 135.148781,118.27279 130.013217,121.91465 L107.25,138.118933 L84.4867833,121.912267 C79.3519017,118.270896 76.2906392,112.374703 76.2666667,106.079783 L76.2666667,73.1897833 L80.5805,71.3260167 L80.6257833,71.30695 L107.25,59.79545 L138.233333,73.18025 L138.233333,106.079783 Z" id="Shape" fill-rule="nonzero"></path>
                            <path d="M106.296667,65.3962833 L82.4633333,75.6922833 C81.5936045,76.0718628 81.0319248,76.9312329 81.0333333,77.8801833 L81.0333333,106.079783 C81.0549883,110.832894 83.369797,115.28322 87.2490667,118.029817 L105.867667,131.283533 C106.695075,131.872641 107.804925,131.872641 108.632333,131.283533 L127.250933,118.029817 C131.12959,115.282685 133.444221,110.832699 133.466667,106.079783 L133.466667,77.8801833 C133.468075,76.9312329 132.906396,76.0718628 132.036667,75.6922833 L108.203333,65.3962833 C107.595463,65.1309871 106.904537,65.1309871 106.296667,65.3962833 Z M128.7,79.45795 L128.7,106.079783 C128.682595,109.296619 127.112214,112.306886 124.483883,114.161667 L107.25,126.416767 L90.0161167,114.147367 C87.3909575,112.296319 85.8208258,109.291855 85.8,106.079783 L85.8,79.4460333 L107.25,70.1820167 L128.7,79.45795 Z" id="Shape" fill-rule="nonzero"></path>
                            <path d="M94.38,100.576667 C93.6988135,100.065777 92.7968151,99.9571039 92.0137783,100.291584 C91.2307415,100.626063 90.6856286,101.352881 90.5837783,102.19825 C90.481928,103.04362 90.8388135,103.87911 91.52,104.39 L101.053333,111.54 C102.083038,112.31275 103.54031,112.128085 104.344717,111.122917 L123.411383,87.2895833 C124.234058,86.2615697 124.067597,84.7612909 123.039583,83.9386167 C122.01157,83.1159424 120.511291,83.282403 119.688617,84.3104167 L102.06625,106.34195 L94.38,100.576667 Z" id="Shape"></path>
                        </g>
                    </g>
                </g>
            </g>
        </g>
    </g>
</svg>