<?xml version="1.0" encoding="UTF-8"?>
<svg width="28px" height="27px" viewBox="0 0 28 27" version="1.1" xmlns="http://www.w3.org/2000/svg" xmlns:xlink="http://www.w3.org/1999/xlink">
    <!-- Generator: Sketch 52.2 (67145) - http://www.bohemiancoding.com/sketch -->
    <title>star (2)</title>
    <desc>Created with Sketch.</desc>
    <g id="Page-1" stroke="none" stroke-width="1" fill="none" fill-rule="evenodd">
        <g id="Главная-страница" transform="translate(-408.000000, -4775.000000)" fill="#FFFFFF" fill-rule="nonzero">
            <g id="search-tours" transform="translate(0.000000, 3663.000000)">
                <g id="Group-51" transform="translate(320.000000, 1072.000000)">
                    <g id="Group-47">
                        <g id="Group-54" transform="translate(0.000000, 40.000000)">
                            <g id="star-(2)" transform="translate(88.000000, 0.000000)">
                                <path d="M28,10.4164924 C28,9.99866518 27.685978,9.73899889 27.0574625,9.63725621 L18.6106362,8.40103819 L14.8246319,0.694341861 C14.6116297,0.231368187 14.3365658,0 14.0000884,0 C13.6636699,0 13.3887828,0.231368187 13.1756039,0.694341861 L9.38942272,8.40103819 L0.942183866,9.63725621 C0.314139873,9.73899889 0,9.99866518 0,10.4164924 C0,10.6537338 0.140272589,10.9247312 0.420758828,11.2296033 L6.54583803,17.2254802 L5.09873178,25.6940897 C5.07627638,25.8522506 5.06513708,25.9655024 5.06513708,26.0329551 C5.06513708,26.2700779 5.12395727,26.470419 5.24171552,26.6342751 C5.35941483,26.7983686 5.53599326,26.88 5.77168658,26.88 C5.97372625,26.88 6.19798558,26.8125473 6.44475925,26.6769299 L13.9999116,22.6792436 L21.5554176,26.6765146 C21.7911698,26.812132 22.0154881,26.88 22.2282545,26.88 C22.6886786,26.88 22.9186549,26.5982054 22.9186549,26.0333704 C22.9186549,25.8867779 22.9129969,25.7738821 22.9017397,25.6942677 L21.4547514,17.2259548 L27.5627385,11.2300185 C27.854364,10.936003 28,10.6648869 28,10.4164924 Z" id="Shape"></path>
                            </g>
                        </g>
                    </g>
                </g>
            </g>
        </g>
    </g>
</svg>