<?xml version="1.0" encoding="UTF-8"?>
<svg width="46px" height="63px" viewBox="0 0 46 63" version="1.1" xmlns="http://www.w3.org/2000/svg" xmlns:xlink="http://www.w3.org/1999/xlink">
    <!-- Generator: Sketch 52.4 (67378) - http://www.bohemiancoding.com/sketch -->
    <title>asd2</title>
    <desc>Created with Sketch.</desc>
    <g id="Page-1" stroke="none" stroke-width="1" fill="none" fill-rule="evenodd">
        <g id="asd2">
            <g id="Group">
                <g id="ae96eeecd750ec2a83543f00c9bc789d__b-link" fill="#000000">
                    <path d="M23.51,51.523 C23.4976996,51.7901212 23.2774041,52.0002831 23.01,52 C22.72,52 22.5,51.79 22.49,51.523 C22.345,48.355 20.734,46.306 17.658,45.376 C7.53,42.968 0,33.863 0,23 C0,10.297 10.297,0 23,0 C35.703,0 46,10.297 46,23 C46,33.863 38.47,42.968 28.342,45.376 C25.266,46.306 23.655,48.356 23.512,51.523 L23.51,51.523 Z" id="ae96eeecd750ec2a83543f00c9bc789d__b"></path>
                </g>
                <g id="ae96eeecd750ec2a83543f00c9bc789d__b-link" fill="#FF3333">
                    <path d="M23.51,51.523 C23.4976996,51.7901212 23.2774041,52.0002831 23.01,52 C22.72,52 22.5,51.79 22.49,51.523 C22.345,48.355 20.734,46.306 17.658,45.376 C7.53,42.968 0,33.863 0,23 C0,10.297 10.297,0 23,0 C35.703,0 46,10.297 46,23 C46,33.863 38.47,42.968 28.342,45.376 C25.266,46.306 23.655,48.356 23.512,51.523 L23.51,51.523 Z" id="ae96eeecd750ec2a83543f00c9bc789d__b"></path>
                </g>
            </g>
            <path d="M23,63 C20.79,63 19,61.21 19,59 C19,56.79 20.79,55 23,55 C25.21,55 27,56.79 27,59 C27,61.21 25.21,63 23,63 Z" id="Path" fill="#FFFFFF"></path>
            <path d="M23,61 C23.7250077,61.0163951 24.4020883,60.6390477 24.7695119,60.0138239 C25.1369356,59.3886001 25.1371294,58.6134684 24.7700185,57.9880609 C24.4029076,57.3626535 23.7260158,56.9849675 23.001,57.001 C21.9141201,57.0250345 21.0454877,57.9128655 21.0452158,59.0000111 C21.044944,60.0871566 21.9131323,60.9754219 23,61 Z" id="Path" fill="#FF3333"></path>
            <g id="asd" transform="translate(13.000000, 11.000000)" fill="#FFFFFF" fill-rule="nonzero">
                <path d="M14.5,18.5 L16.706,17.176 C16.875075,17.0746223 17.0928027,17.1115469 17.219,17.263 L21.453,22.343 C21.5529174,22.4621675 21.5747094,22.628445 21.5088746,22.7693356 C21.4430399,22.9102263 21.3015132,23.0001889 21.146,23 L6.68,23 C6.53828992,23.0000689 6.40712086,22.9251535 6.33518119,22.8030616 C6.26324151,22.6809697 6.26127059,22.5299275 6.33,22.406 L10.706,14.529 C10.7712222,14.4113927 10.8911776,14.3344312 11.025267,14.3241631 C11.1593564,14.313895 11.2896313,14.3716947 11.372,14.478 L14.5,18.5 Z M9.684,8.358 C6.679,10.201 4,13.983 4,22 L4,22.2 C4,22.6418278 3.6418278,23 3.2,23 L0.8,23 C0.3581722,23 0,22.6418278 0,22.2 L0,22 C0,15.5 2.619,10.833 7.857,8 C6.082,8.02 4.02,7.53 3,6 C4.036,4.446 6.144,4.502 7.937,5.056 C6.53,3.802 5.493,2.03 6,0 C6.851,0 10.602,1.45 11.698,4.966 C13.771,3.78 17.331,3.331 20,6 C18.186,7.814 14.911,8.165 12.604,7.939 C14.49,9.059 16,11.029 16,13 C14.241,13 10.548,11.453 9.684,8.358 Z" id="Shape"></path>
            </g>
        </g>
    </g>
</svg>