<?xml version="1.0" encoding="UTF-8"?>
<svg width="98px" height="21px" viewBox="0 0 98 21" version="1.1" xmlns="http://www.w3.org/2000/svg" xmlns:xlink="http://www.w3.org/1999/xlink">
    <!-- Generator: Sketch 52.2 (67145) - http://www.bohemiancoding.com/sketch -->
    <title>Redder</title>
    <desc>Created with Sketch.</desc>
    <g id="Symbols" stroke="none" stroke-width="1" fill="none" fill-rule="evenodd">
        <g id="Footer" transform="translate(-1501.000000, -323.000000)" fill="#282828">
            <g id="Redder-2" transform="translate(1501.000000, 323.000000)">
                <path d="M11.4941967,20.5882353 L7.27367135,13.4411765 L4.13072694,13.4411765 L4.13072694,20.5882353 L0,20.5882353 L0,0 L8.38118509,0 C10.3168494,0 11.9631372,0.66666 13.3200977,2 C14.6770583,3.33334 15.3555284,4.94116706 15.3555284,6.82352941 C15.3555284,8.09804559 14.9863608,9.27940632 14.2480147,10.3676471 C13.5096685,11.4558878 12.5318733,12.2745071 11.3145999,12.8235294 L15.9541845,20.5882353 L11.4941967,20.5882353 Z M4.13072694,3.79411765 L4.13072694,9.88235294 L8.38118509,9.88235294 C9.15944189,9.88235294 9.82793449,9.58333632 10.386683,8.98529412 C10.9454314,8.38725191 11.2248015,7.66667088 11.2248015,6.82352941 C11.2248015,5.98038794 10.9454314,5.26470882 10.386683,4.67647059 C9.82793449,4.08823235 9.15944189,3.79411765 8.38118509,3.79411765 L4.13072694,3.79411765 Z M20.7135003,14.7941176 C21.2323382,16.6372641 22.6391659,17.5588235 24.9340257,17.5588235 C26.410718,17.5588235 27.5281982,17.0686324 28.2864997,16.0882353 L31.3995113,17.8529412 C29.9228189,19.9509909 27.7477236,21 24.87416,21 C22.3997026,21 20.4141797,20.2647132 18.9175321,18.7941176 C17.4208844,17.3235221 16.6725718,15.4705994 16.6725718,13.2352941 C16.6725718,11.0195968 17.4109069,9.17157603 18.8875993,7.69117647 C20.3642916,6.21077691 22.2600169,5.47058824 24.574832,5.47058824 C26.7699153,5.47058824 28.5808318,6.21567882 30.0076359,7.70588235 C31.43444,9.19608588 32.1478314,11.0392047 32.1478314,13.2352941 C32.1478314,13.7254926 32.0979439,14.2450953 31.9981674,14.7941176 L20.7135003,14.7941176 Z M20.6536347,11.8529412 L28.2864997,11.8529412 C28.0669914,10.8529362 27.613015,10.1078456 26.9245571,9.61764706 C26.2360992,9.12744853 25.4528653,8.88235294 24.574832,8.88235294 C23.5371563,8.88235294 22.6790912,9.14215426 22.0006109,9.66176471 C21.3221306,10.1813751 20.873143,10.91176 20.6536347,11.8529412 Z M46.0665852,0 L49.9279169,0 L49.9279169,20.5882353 L46.0665852,20.5882353 L46.0665852,18.8529412 C44.929133,20.2843209 43.3127777,21 41.217471,21 C39.2019854,21 37.4808664,20.2500075 36.0540623,18.75 C34.6272582,17.2499925 33.9138668,15.4117756 33.9138668,13.2352941 C33.9138668,11.0588126 34.6272582,9.22059574 36.0540623,7.72058824 C37.4808664,6.22058074 39.2019854,5.47058824 41.217471,5.47058824 C43.3127777,5.47058824 44.929133,6.18626735 46.0665852,7.61764706 L46.0665852,0 Z M38.9425779,16.2352941 C39.74079,17.0000038 40.7385401,17.3823529 41.9358583,17.3823529 C43.1331764,17.3823529 44.1209491,16.9951019 44.8992059,16.2205882 C45.6774627,15.4460746 46.0665852,14.4509865 46.0665852,13.2352941 C46.0665852,12.0196018 45.6774627,11.0245137 44.8992059,10.25 C44.1209491,9.47548632 43.1331764,9.08823529 41.9358583,9.08823529 C40.7385401,9.08823529 39.7457787,9.47548632 38.9575443,10.25 C38.1693098,11.0245137 37.7751985,12.0196018 37.7751985,13.2352941 C37.7751985,14.4509865 38.1643211,15.4509765 38.9425779,16.2352941 Z M64.8045205,0 L68.6658522,0 L68.6658522,20.5882353 L64.8045205,20.5882353 L64.8045205,18.8529412 C63.6670682,20.2843209 62.050713,21 59.9554062,21 C57.9399207,21 56.2188017,20.2500075 54.7919976,18.75 C53.3651934,17.2499925 52.6518021,15.4117756 52.6518021,13.2352941 C52.6518021,11.0588126 53.3651934,9.22059574 54.7919976,7.72058824 C56.2188017,6.22058074 57.9399207,5.47058824 59.9554062,5.47058824 C62.050713,5.47058824 63.6670682,6.18626735 64.8045205,7.61764706 L64.8045205,0 Z M57.6805131,16.2352941 C58.4787252,17.0000038 59.4764754,17.3823529 60.6737935,17.3823529 C61.8711117,17.3823529 62.8588843,16.9951019 63.6371411,16.2205882 C64.4153979,15.4460746 64.8045205,14.4509865 64.8045205,13.2352941 C64.8045205,12.0196018 64.4153979,11.0245137 63.6371411,10.25 C62.8588843,9.47548632 61.8711117,9.08823529 60.6737935,9.08823529 C59.4764754,9.08823529 58.483714,9.47548632 57.6954795,10.25 C56.9072451,11.0245137 56.5131338,12.0196018 56.5131338,13.2352941 C56.5131338,14.4509865 56.9022563,15.4509765 57.6805131,16.2352941 Z M75.4605987,14.7941176 C75.9794365,16.6372641 77.3862642,17.5588235 79.681124,17.5588235 C81.1578164,17.5588235 82.2752966,17.0686324 83.033598,16.0882353 L86.1466097,17.8529412 C84.6699173,19.9509909 82.4948219,21 79.6212584,21 C77.1468009,21 75.1612781,20.2647132 73.6646304,18.7941176 C72.1679827,17.3235221 71.4196701,15.4705994 71.4196701,13.2352941 C71.4196701,11.0195968 72.1580052,9.17157603 73.6346976,7.69117647 C75.11139,6.21077691 77.0071153,5.47058824 79.3219304,5.47058824 C81.5170136,5.47058824 83.3279301,6.21567882 84.7547343,7.70588235 C86.1815384,9.19608588 86.8949297,11.0392047 86.8949297,13.2352941 C86.8949297,13.7254926 86.8450422,14.2450953 86.7452657,14.7941176 L75.4605987,14.7941176 Z M75.400733,11.8529412 L83.033598,11.8529412 C82.8140897,10.8529362 82.3601134,10.1078456 81.6716555,9.61764706 C80.9831975,9.12744853 80.1999637,8.88235294 79.3219304,8.88235294 C78.2842546,8.88235294 77.4261895,9.14215426 76.7477092,9.66176471 C76.0692289,10.1813751 75.6202414,10.91176 75.400733,11.8529412 Z M93.4502138,8.41176471 C93.8094092,7.47058353 94.4030706,6.76470824 95.2312156,6.29411765 C96.0593607,5.82352706 96.9822796,5.58823529 98,5.58823529 L98,9.82352941 C96.8226372,9.68627382 95.7700107,9.92156559 94.8420892,10.5294118 C93.9141676,11.1372579 93.4502138,12.1470518 93.4502138,13.5588235 L93.4502138,20.5882353 L89.5888821,20.5882353 L89.5888821,5.88235294 L93.4502138,5.88235294 L93.4502138,8.41176471 Z" id="Redder"></path>
            </g>
        </g>
    </g>
</svg>