<?xml version="1.0" encoding="UTF-8"?>
<svg width="226px" height="99px" viewBox="0 0 226 99" version="1.1" xmlns="http://www.w3.org/2000/svg" xmlns:xlink="http://www.w3.org/1999/xlink">
    <!-- Generator: Sketch 53.2 (72643) - https://sketchapp.com -->
    <title>Совок и песок</title>
    <desc>Created with Sketch.</desc>
    <g id="Page-1" stroke="none" stroke-width="1" fill="none" fill-rule="evenodd" opacity="0.1">
        <g id="Попапы" transform="translate(-952.000000, -1186.000000)" fill="#000000">
            <g id="Спасибо" transform="translate(680.000000, 911.000000)">
                <g id="back" transform="translate(-72.000000, -102.000000)">
                    <g id="Совок-и-песок" transform="translate(344.000000, 377.000000)">
                        <path d="M67.1555896,30.2368949 C66.0740067,35.1174561 64.9256137,39.9905661 63.9182644,44.8860298 C63.2330887,48.2092822 62.8136692,51.5995958 62.1433402,54.9302994 C61.4255017,58.4919914 60.5398955,62.0238785 59.7478235,65.5781193 C59.1546974,68.2382114 58.4212699,70.8908524 58.0723722,73.5882007 C57.8029044,75.659645 56.8690464,76.8667457 55.0057842,77.6416745 C51.6392927,79.0350561 48.1777822,80.0856807 44.6145717,80.8009996 C43.2843064,81.0692442 41.9384522,81.2555252 40.6104139,81.531221 C37.3188983,82.2167349 34.0600453,81.501416 30.7945114,81.3002326 C25.6478993,80.9798293 20.7937674,79.437423 16.0546975,77.4777472 C14.7311132,76.9263556 13.6109289,76.2408416 13.394167,74.6760815 C12.7698628,70.1904359 11.4841377,65.8091077 11.2785108,60.8987415 C13.520364,60.8987415 15.431878,60.8391316 17.3381956,60.913644 C20.764074,61.0552175 24.7333419,60.4889234 27.9209306,59.1998591 C32.5560736,57.3370495 37.4413836,55.5860084 41.5160633,52.6129642 C43.8499661,50.9140818 45.7228786,48.5594904 47.7160495,46.4880461 C49.841356,44.2750283 51.9481042,42.0322055 53.7690532,39.5583943 C54.3733144,38.7313068 54.943428,37.8744144 55.4370811,36.987717 C55.7028373,36.5033865 55.9114335,35.9072874 55.8928752,35.3782495 C55.8758014,34.8715652 55.6568125,34.1562463 55.288614,33.9327092 C54.918931,33.7166233 54.1587794,33.8432943 53.7438138,34.0966364 C53.1907739,34.4393934 52.7305259,35.0056875 52.3630698,35.5645304 C51.4722672,36.9206558 50.2808187,37.9340243 49.0515111,38.954844 C44.1951521,43.0083177 38.7976306,45.9664594 32.7282954,47.8143666 C29.0388879,48.9320524 25.3591308,50.1317018 21.5769313,50.7799595 C17.6789276,51.4431198 13.8945011,50.8172157 10.783373,47.9931963 C10.0937433,47.3672923 9.73742223,46.6296197 9.52214493,45.6758611 C8.2631439,40.1097859 7.76874844,34.4542959 7.40723105,28.7764521 C7.34413253,27.7779862 7.22090483,26.7869714 7.10510049,25.587322 C8.98172467,25.4531997 10.2065783,26.6603004 11.6645252,27.0701185 C13.1915094,27.4948391 14.6880578,28.0313283 16.2120726,28.4709513 C17.7360874,28.9105744 19.2675256,29.3278438 20.8130681,29.678052 C22.2480026,30.0059065 23.6962992,30.2965048 25.1535038,30.4976882 C26.7228011,30.7212254 28.3099145,30.8106402 29.8873774,30.9745675 C31.4648404,31.145946 33.03488,31.3843856 34.6153123,31.5036054 C36.1972293,31.615374 37.787312,31.645179 39.373683,31.6526302 C40.9607963,31.6526302 42.5471673,31.5781178 44.1342806,31.5408616 C45.7199093,31.5036054 47.3099919,31.5259591 48.8904242,31.4067393 C50.3557946,31.2949707 51.8137415,31.0565311 53.2687191,30.832994 C54.8357894,30.5945543 56.4028597,30.3412122 57.9573102,30.0357114 C59.5125031,29.7227594 61.0461683,29.3054901 62.6028459,29.0074405 C64.1194373,28.7168422 65.4667763,27.6885713 67.0264232,27.8301448 C67.6767091,28.709391 67.3233574,29.4768685 67.1555896,30.2368949 Z M10.7714956,57.478623 C6.6433678,55.7946431 3.86554831,53.0302336 2.5902159,48.7085152 C1.99708982,46.6966808 2.26284594,44.8860298 3.79354177,43.3585259 C4.17955623,42.9785128 4.54626998,42.5761459 5.05848148,42.0322055 C5.40960618,42.5612434 5.73474914,42.8890979 5.85203815,43.2765623 C6.01460962,43.8056003 5.99605124,44.3942481 6.09849354,44.9456398 C6.45555692,46.8978643 7.32854348,48.4551731 8.86963201,49.8336522 C10.896208,51.636852 13.0088948,52.918465 15.7688983,53.0153311 C16.5528046,53.0451361 17.3278029,53.2910269 18.1102245,53.4102467 C19.6928838,53.6635889 21.2473344,53.5592715 22.819601,53.2016121 C27.9075686,52.0392188 32.791394,50.2509216 37.6804156,48.4700756 C41.0112751,47.2555237 43.8974756,45.266043 46.6960805,43.1349888 C47.230562,42.7326219 47.7672706,42.330255 48.3032369,41.9204369 C47.8734246,42.2482914 47.5334349,43.1573425 47.2164577,43.6118681 C46.8215352,44.1707109 46.3984039,44.7146514 45.955972,45.2362381 C42.7639292,49.043821 38.8013423,52.1509874 34.3755379,54.3789078 C30.4619451,56.3385835 26.0183247,57.5382329 21.7491532,58.4398328 C19.5533247,58.9018095 17.3040481,59.1551517 15.0733299,58.7974922 C13.626518,58.5590526 12.1240309,58.0300146 10.7714956,57.478623 Z M8.31213804,20.9452004 C9.97125791,19.589075 11.6875376,18.3745231 13.7876048,17.6815579 C19.1673103,15.9081632 24.6219916,14.6116476 30.306797,14.4551716 C30.8598369,14.4402692 31.4128769,14.4551716 32.8433574,14.4551716 C27.1310857,18.6874751 22.1871311,22.5844729 16.2254346,24.9018081 C14.763776,25.4681022 13.4253451,25.6394807 12.0141652,24.8869056 C10.5406293,24.1045256 8.80133714,23.7915735 7.52229305,22.2417159 C7.76874844,21.8244466 7.9350316,21.2507012 8.31213804,20.9452004 Z M41.3601728,12.1303852 C44.3903864,10.6103325 47.5883678,10.5060152 50.6401091,11.3927126 C56.2877976,13.0170826 61.2161631,16.0199317 65.1008049,20.5502848 C65.9878958,21.5860069 66.7161269,22.7260464 67.1451969,23.9480495 C66.7829371,25.0582841 65.8861958,25.4084923 65.0681421,25.6990906 C63.1506895,26.3771533 61.2102244,27.0254111 59.2385813,27.5171928 C52.2591428,29.2682339 45.1445992,29.6333445 37.9780922,29.5662834 C34.3376788,29.5290272 30.7425479,29.2235264 27.1652331,28.5976224 C24.8246492,28.1878043 22.4758996,27.8301448 20.1434815,27.3756193 C19.5058153,27.2563995 18.9134315,26.9061912 17.945426,26.5112756 C22.7594718,24.5665023 26.6018004,21.8095441 30.324613,18.8141462 C33.6911046,16.1018954 37.5007705,14.0677072 41.3601728,12.1303852 Z M66.1281972,18.4937429 C63.4453967,15.6473698 60.1115679,13.6802428 56.7413646,11.8248844 C51.071406,8.69536424 45.2396182,7.83102057 39.2029458,10.9530895 C38.2304863,11.4523225 37.0464611,11.6386035 35.9381542,11.7578233 C31.209477,12.2719587 26.454818,12.5700083 21.7432145,13.2108148 C16.7777322,13.8814263 12.0275273,15.2450029 7.78804917,18.1733397 C5.00429099,20.0957592 4.10383801,22.6291803 4.51360721,25.7885055 C4.92337642,28.9403794 5.45563098,32.084802 5.89435127,35.2366759 C6.01757897,36.1084708 6.00273226,37.0100707 6.06731545,38.1948176 C3.50254624,38.3960011 2.31480942,40.206652 1.35868128,42.1886815 C0.247405015,44.4911142 -0.531304939,47.0692427 0.444123926,49.4387366 C1.82264098,52.7843427 3.57455279,56.0852414 6.75471813,58.1417832 C8.18297166,59.0657368 8.67959412,60.2802887 8.80504882,61.8003413 C8.88893273,62.821161 8.85255829,63.8494319 8.94386556,64.8702516 C9.03517283,65.8836201 9.15617352,66.8969885 9.37442016,67.8954545 C9.9103864,70.3320095 10.5955621,72.7387595 11.0558101,75.190217 C11.4774567,77.440491 12.7505621,78.8487751 14.7971811,79.6386064 C16.1682748,80.1750956 17.5312028,80.7562922 18.9460943,81.1437566 C21.673435,81.8888805 24.4096837,82.6712605 27.1919572,83.1406885 C29.3165214,83.5057992 31.4670674,83.6920802 33.6153864,83.8485562 C36.7346802,84.0646421 39.7448507,84.124252 42.8262854,83.5132505 C47.5401159,82.5818456 52.0045217,81.7025995 56.3382765,79.5193866 C57.7969657,78.781714 58.8978493,77.6714794 59.4108032,76.0620119 C59.7901366,74.877265 60.2793357,73.7074205 60.5361838,72.4928686 C62.1559599,64.8180929 63.7341652,57.1433172 65.3034625,49.4610903 C65.826809,46.8978643 66.158633,44.297382 66.8044649,41.7714121 C67.9602813,37.2485103 68.9245751,32.7032548 69.7819726,28.1207431 C70.3127425,25.2892725 69.920047,22.9793885 68.0983557,20.8408831 C67.4369347,20.058503 66.8267349,19.2388668 66.1281972,18.4937429 L66.1281972,18.4937429 Z" id="Fill-10"></path>
                        <path d="M125.328399,69.7304483 C125.185917,69.9040565 125.133423,70.0021829 125.050934,70.0701165 C124.960945,70.1455983 124.863457,70.2210802 124.75847,70.2512729 C124.540997,70.3116583 124.316025,70.3946884 124.091052,70.3946884 C118.706719,70.296562 113.367379,71.0136393 108.005543,71.3608557 C107.795569,71.375952 107.578096,71.2325366 107.150649,71.0891211 C106.963172,70.7419047 106.663209,70.2588211 106.445736,69.7455447 C104.623461,65.5034663 103.34112,61.0877797 102.37374,56.5739667 C102.066278,55.1549085 102.163766,53.7962357 102.831183,52.5432374 C103.723573,50.8448964 104.915925,49.6296391 107.113153,49.7202173 C110.457739,49.8711809 113.344882,50.8071555 115.699591,53.3659893 C119.876574,57.909995 122.808711,63.2088189 125.245909,68.8246665 C125.373394,69.1114974 125.305902,69.4813583 125.328399,69.7304483 Z M103.716074,72.7119803 C100.911421,73.9498822 100.281499,73.6781476 99.2391277,70.7645493 C98.1367641,67.6622464 97.9567864,64.4693653 97.5968309,61.2915806 C97.3418625,59.0799632 98.2567493,56.3701658 99.5240924,54.513313 C100.363989,57.6986459 101.0764,60.7028224 101.953792,63.6617098 C102.793688,66.5073745 103.806063,69.3002019 104.750946,72.1232221 C104.301001,72.3798603 104.023536,72.576113 103.716074,72.7119803 Z M94.4997142,30.1175881 C94.0572689,28.3588616 94.0497699,26.471816 93.9972764,24.6376078 C93.9747792,23.8827895 94.3497328,23.1204231 94.4997142,22.5165686 C94.8146752,22.3505086 94.9046641,22.2825749 95.0171502,22.2523822 C98.2192539,21.1729921 100.333992,22.5543095 102.036282,25.5811305 C103.161142,27.5813988 104.031035,29.6797935 104.428486,32.0046336 C105.073406,35.7409838 105.995792,39.4320449 106.723202,43.1532987 C106.97817,44.4968752 107.000667,45.8857407 107.165647,47.636919 C105.185892,47.8935572 103.626085,48.0973581 102.261254,48.2709663 C101.856304,47.9765872 101.601335,47.886009 101.503847,47.7048526 C98.4892205,42.1191978 96.0295249,36.2920011 94.4997142,30.1175881 Z M171.822646,66.3111218 C170.90026,65.8582308 169.955377,65.4279845 168.965499,65.1637981 C162.08885,63.337138 155.167207,63.3673307 148.208068,64.703359 C143.768617,65.5563036 139.726617,67.4358009 135.819601,69.6549665 C133.284915,71.0966693 130.73523,71.6250421 127.960574,70.0172792 C127.758099,69.5568401 127.495631,69.0435637 127.308154,68.5076428 C125.868332,64.3410462 123.806088,60.4990215 121.2789,56.9136349 C118.594233,53.1168993 115.54211,49.7126691 110.892686,48.2785145 C109.790322,47.9388463 109.257888,47.138739 109.070411,46.0065116 C108.575472,43.0551724 107.990545,40.1189295 107.5406,37.1600421 C107.030664,33.8388419 106.16827,30.6157681 104.908426,27.5210134 C103.858556,24.9621796 102.53122,22.5090204 100.101521,20.9465467 C99.4416027,20.5238485 98.6691982,20.0407648 97.9417882,20.0256684 C93.5848274,19.9124457 92.5799518,19.9577348 91.9050353,24.9546314 C91.8150464,25.6339678 91.8375436,26.3359488 91.8450427,27.0303815 C91.8600408,29.5967635 92.4899629,32.0650191 93.3673543,34.4351483 C95.002152,38.8583831 96.771933,43.2363287 98.4742224,47.6293708 C98.7591871,48.3615445 99.0066565,49.1088145 99.1191426,49.4333863 C98.0617734,51.5468774 96.9219145,53.1999293 96.3744822,55.0265894 C94.6646938,60.7330151 95.1521335,66.3866036 97.3493616,71.9043248 C97.6793207,72.7270767 98.2717474,73.5196358 97.9417882,74.4631586 C97.7468124,74.6669595 97.6193282,74.893405 97.4318514,74.9915313 C94.5072133,76.554005 91.5150835,77.9957078 88.6654362,79.6865007 C86.7081784,80.8489207 84.9458965,82.3359126 83.1386201,83.7323263 C82.9758902,83.8530972 82.9503934,84.4343073 83.0943756,84.6230118 C83.2638546,84.8419091 83.7235477,85.0079691 83.9935143,84.9324873 C84.5259484,84.7815237 85.0583825,84.5173373 85.5158259,84.2003136 C88.0580113,82.434039 90.6451912,80.7809871 93.3598553,79.2788988 C98.4292279,76.4860714 103.753569,74.3952249 109.392871,73.3233831 C114.447246,72.3647639 119.606607,72.0175475 124.773468,72.1911557 C126.363271,72.243993 127.968073,72.3043785 129.535379,72.5685648 C132.797475,73.1195821 136.157059,73.4592503 139.261675,74.523544 C143.468654,75.972795 147.525652,77.9126778 151.537656,79.867657 C154.199826,81.1659444 156.682019,82.8642854 159.239203,84.38147 C159.921618,84.7890718 160.566539,85.3476373 161.556416,84.71359 C160.746516,83.264339 159.42668,82.4113944 158.091845,81.6037389 C151.792624,77.7994551 145.208439,74.6216704 138.181809,72.4025048 C137.821853,72.2892821 137.52189,71.9647103 136.989456,71.6023975 C139.861601,69.7832856 142.583764,68.3566792 145.545897,67.4358009 C148.388046,66.5451154 151.305185,65.8733272 154.289815,65.7601045 C157.371934,65.6468817 160.484049,65.5034663 163.54367,65.8129418 C166.558297,66.1073209 169.512932,66.9527173 173,67.6546982 C172.385076,66.9300727 172.175102,66.4771818 171.822646,66.3111218 L171.822646,66.3111218 Z" id="Fill-12"></path>
                        <path d="M203.6148,1.64001098 C199.530326,0.488573667 195.356082,-0.196566333 191.107032,0.0501149988 C187.336748,0.270504276 183.656232,1.1675273 180.050524,2.27179358 C172.906433,4.46254032 166.173783,7.6407857 159.919899,11.8397814 C158.521004,12.7754692 157.024859,13.6647593 156,15.0489586 C156.448843,15.884118 157.009898,16.232101 157.750489,15.8377202 C158.461158,15.4588053 159.134423,15.0025609 159.800207,14.5463164 C166.592703,9.89107621 173.834043,6.21018863 181.696283,3.95216516 C184.546438,3.13401829 187.419036,2.36536236 190.396363,2.14883956 C198.22868,1.5820138 205.544827,3.60418209 212.636552,6.7746945 C215.037864,7.84957554 217.394292,9.04818389 219.788123,10.1307979 C220.3791,10.4014514 220.887789,10.1617297 221,9.34976922 C220.027506,8.18982565 218.800668,7.43972881 217.439176,6.74376267 C213.010588,4.50120511 208.350098,2.97239949 203.6148,1.64001098" id="Fill-17"></path>
                        <path d="M122.99678,93.1103712 C122.417094,92.7991638 121.602598,93.1840782 121.272397,93.7901134 C120.876156,94.5026144 120.905507,95.2888223 121.404478,95.8211506 C121.932799,96.3698583 122.622553,96.7629623 122.908727,96.8694279 C124.119464,97.2952906 125,96.5909793 125,96.0258923 C125,95.4608053 124.86792,94.781063 124.559732,94.3633901 C124.163491,93.8310618 123.569129,93.4297681 122.99678,93.1103712" id="Fill-24"></path>
                        <path d="M104.47545,85.0007007 C104.006994,84.9931689 103.514717,85.0458914 103.06214,85.1814634 C102.387245,85.3772896 101.910848,86.1681263 102.014068,86.8007956 C102.125227,87.4937192 102.681023,87.6970772 103.292399,87.8251174 C103.530597,87.8778399 103.768795,87.9154988 104.006994,87.9531577 C104.126093,87.975753 104.245192,87.9983483 104.364291,87.9983483 C105.309144,88.0360072 105.999919,87.4259332 105.999919,86.552247 C106.007859,85.6258383 105.428244,85.0082325 104.47545,85.0007007" id="Fill-31"></path>
                        <path d="M140.02017,86.0032491 C139.094144,86.0583569 138.168119,86.7609818 138.016442,87.5118261 C137.856783,88.3040012 138.878604,88.9721837 140.267642,88.9997376 C141.233583,89.0135146 141.991966,88.4831017 141.999949,87.7942537 C142.007932,86.7747588 141.081906,85.9412528 140.02017,86.0032491" id="Fill-32"></path>
                        <path d="M212.662057,14.016703 C211.870722,14.0979728 211.381236,14.6343536 211.071229,15.3414009 C210.842802,15.8696547 211.1936,16.7229877 211.699402,16.8367654 C212.0502,16.9099082 212.409156,16.9830511 212.743638,16.999305 C213.135226,17.007432 213.50234,16.9424162 213.861296,16.9017813 C213.97551,16.8855273 214.089723,16.8205114 214.203936,16.7880035 C214.930007,16.5604481 215.21554,15.6664801 214.823951,15.0244487 C214.31815,14.1873696 213.551289,13.9273062 212.662057,14.016703" id="Fill-42"></path>
                        <path d="M181.119531,34.1987758 C180.757512,34.1051419 180.387265,34.0200202 180.11575,34.0029959 C179.770186,33.9859715 179.523355,34.0455567 179.276524,34.0796054 C178.601851,34.1817515 177.968318,34.6243844 178.001229,35.2457729 C178.025912,35.7394788 178.568941,36.3523551 179.03792,36.6332568 C179.53981,36.9311828 180.230938,37.0333288 180.823333,36.990768 C181.498006,36.939695 181.851797,36.3523551 181.975213,35.6628693 C182.098628,34.9818956 181.753065,34.3605071 181.119531,34.1987758" id="Fill-44"></path>
                        <path d="M173.910797,21.0924072 C172.975653,20.8019564 172.232661,21.2134283 172.040508,22.0847806 C171.822734,23.0932902 172.501675,23.9969148 173.628973,23.9888467 C173.821126,23.9888467 174.038899,24.0372552 174.186217,23.9323702 C174.493662,23.7145321 174.961234,23.4482856 174.99326,23.1416986 C175.038095,22.6253417 174.852347,22.0283041 174.640979,21.5522875 C174.532092,21.3021772 174.173407,21.181156 173.910797,21.0924072" id="Fill-46"></path>
                        <path d="M202.790265,29.1278432 C202.600338,29.1996577 202.143107,29.4366453 202.030558,29.7526287 C201.925043,30.0542493 202.107936,30.6144019 202.347103,30.8513895 C202.797299,31.2966389 203.381148,31.6126224 203.929825,31.9357873 C204.274507,32.1440492 204.837253,31.8137028 204.928699,31.4043606 C205.259312,29.9824349 204.422228,28.5605093 202.790265,29.1278432" id="Fill-47"></path>
                        <path d="M199.172518,9.07365997 C198.799513,9.21748142 198.349333,9.74482672 198.092088,10.2961423 C197.809118,10.9113785 198.227142,11.5026444 198.683752,11.7103865 C199.204674,11.9341087 199.796338,12.0140096 200.355847,11.9980294 C200.806026,11.9900393 201.140445,11.0791701 200.94108,10.5917752 C200.619523,9.79276721 200.124326,8.70611628 199.172518,9.07365997" id="Fill-49"></path>
                        <path d="M223.701078,27.2898154 C223.345059,27.6189962 223.034352,28.2942388 223.001987,28.851314 C222.963149,29.5687593 223.500413,29.8557374 224.018258,29.9317022 C224.316019,29.9739049 224.607306,29.9907859 224.853283,29.9992265 C225.662415,30.0245481 226.102583,29.4252702 225.979595,28.6318601 C225.772457,27.3404586 224.503737,26.538608 223.701078,27.2898154" id="Fill-51"></path>
                        <path d="M119.591401,79.0003785 C118.773477,78.983764 118.138065,79.5154281 118.01639,80.3295387 C117.881196,81.2267218 118.597725,81.9826816 119.59816,81.9992961 C120.436363,82.0242178 121.044737,81.3845595 120.997419,80.5289127 C120.943341,79.6234223 120.382286,79.016993 119.591401,79.0003785" id="Fill-55"></path>
                        <path d="M184.555076,7.01404404 C183.832293,7.16293159 182.964954,8.1175635 183.001093,8.78317841 C183.015548,9.01088877 183.152877,9.29114768 183.304662,9.44003523 C183.955166,10.0618597 184.714088,10.2019891 185.415188,9.67650368 C185.725984,9.44003523 185.935592,8.89703359 185.978959,8.63429086 C186.159654,7.58331995 185.133302,6.89143077 184.555076,7.01404404" id="Fill-59"></path>
                        <path d="M149.633921,96.1243484 C149.194703,96.294445 148.870689,97.1287281 149.050697,97.6309179 C149.37471,98.5380996 150.145143,99.2832845 151.253989,98.8944924 C151.462798,98.8215939 151.873215,98.6433975 151.938018,98.3923025 C152.038822,97.9873107 152.024422,97.4122224 151.837214,97.0720292 C151.27559,96.0838492 150.490757,95.8084548 149.633921,96.1243484" id="Fill-60"></path>
                        <path d="M41.8178808,18.9380785 C42.843696,19.2362336 44.3255005,18.4319083 43.9363982,17.0798097 C43.8637229,16.8232577 43.5620882,16.3517567 43.1993548,16.1714769 C42.0989349,15.6237036 41.0326017,16.4488304 41.0004444,17.7870613 C40.9862953,18.3972391 41.3110831,18.7924679 41.8178808,18.9380785" id="Fill-192"></path>
                        <path d="M52.9355666,20.7456753 C53.5537396,21.1557214 54.1761371,21.0438906 54.660537,20.5965676 C54.8985125,20.3729061 55.0900194,19.7168323 54.9555421,19.4931708 C54.4422754,18.6208909 53.5340257,17.6442356 52.5497364,18.1288355 C52.3131691,18.2481217 52.099836,18.5612478 52.0435104,18.8296416 C51.8632686,19.6870108 52.2589557,20.2908969 52.9355666,20.7456753" id="Fill-193"></path>
                        <path d="M34.6253001,26.4584371 C34.9702594,26.662631 35.3250188,26.8895131 35.6980714,26.9727033 C36.230537,27.0937071 36.6571629,26.806323 36.8851758,26.2315549 C37.117762,25.6416613 36.9936289,25.074456 36.5434831,24.7341328 C36.1508305,24.4316232 35.7085247,23.9022316 35.0970059,24.0156726 C34.6253001,24.1064255 34.2783807,24.6509426 34.0908744,25.074456 C33.8413016,25.6416613 34.1339943,26.171053 34.6253001,26.4584371" id="Fill-194"></path>
                        <path d="M47.6821617,25.7625974 C48.1756043,25.3992577 48.8304333,25.0517153 48.9639698,24.4830096 C49.2224737,23.3771929 48.0320703,22.9111701 47.2422766,23.0138531 C46.8081043,23.069144 46.2296839,23.5035719 46.0704398,23.9301012 C45.906911,24.3645292 46.0490168,25.08331 46.2825272,25.5335354 C46.5803066,26.1101398 47.2129985,26.1101398 47.6821617,25.7625974" id="Fill-195"></path>
                        <path d="M59.7819035,24.9542134 C60.2344751,24.826266 60.8031476,24.460702 60.9525258,23.9671906 C61.0996856,23.4828183 60.8682233,23.1538108 60.7528619,22.9618897 C60.261097,22.1210925 59.1725587,21.709833 58.4234491,22.2307617 C58.1587095,22.4135437 57.9250287,23.1812281 58.0226422,23.546792 C58.3043902,24.5886494 59.016525,25.1735518 59.7819035,24.9542134" id="Fill-196"></path>
                    </g>
                </g>
            </g>
        </g>
    </g>
</svg>