<?xml version="1.0" encoding="UTF-8"?>
<svg width="395px" height="219px" viewBox="0 0 395 219" version="1.1" xmlns="http://www.w3.org/2000/svg" xmlns:xlink="http://www.w3.org/1999/xlink">
    <!-- Generator: Sketch 52.2 (67145) - http://www.bohemiancoding.com/sketch -->
    <title>Group 116</title>
    <desc>Created with Sketch.</desc>
    <defs>
        <linearGradient x1="0%" y1="0%" x2="100%" y2="100%" id="linearGradient-1">
            <stop stop-color="#FFBD73" offset="0%"></stop>
            <stop stop-color="#ED7408" offset="100%"></stop>
        </linearGradient>
    </defs>
    <g id="Page-1" stroke="none" stroke-width="1" fill="none" fill-rule="evenodd">
        <g id="Туры-в-страну" transform="translate(-1183.000000, -3821.000000)">
            <g id="Group-70" transform="translate(0.000000, 913.000000)">
                <g id="Group-69" transform="translate(320.000000, 153.000000)">
                    <g id="Group-101" transform="translate(326.000000, 2736.000000)">
                        <g id="Group-109">
                            <g id="Group-8">
                                <g id="Group-116" transform="translate(537.000000, 19.000000)">
                                    <g id="imac-(1)" transform="translate(132.000000, 0.000000)">
                                        <path d="M100.385733,210.258638 C99.9410216,213.922504 97.9328966,217.743328 94.8783922,219.815056 L89.8557716,223.221944 C97.0552716,223.221944 162.071845,223.221944 172.764405,223.221944 L167.741784,219.815056 C164.68728,217.743328 162.678642,213.922504 162.234444,210.258125 L159.794431,189.615728 L102.825746,189.615728 L100.385733,210.258638 Z" id="Path" fill="#CCCCCC"></path>
                                        <path d="M116.591276,212.747379 L119.031289,189.615728 L102.825746,189.615728 L100.385733,210.258638 C99.9410216,213.922504 97.9328966,217.743328 94.8783922,219.815056 L89.8562845,223.221944 C101.471095,223.221944 99.773806,223.221944 111.371177,223.221944 C114.262056,220.85528 116.160927,216.721569 116.591276,212.747379 Z" id="Path" fill="#BABABA"></path>
                                        <path d="M247.684138,190.144047 L14.9365517,190.144047 C6.72144828,190.144047 0,183.422599 0,175.207496 L0,15.2130216 C0,6.9979181 6.72144828,0.276469828 14.9365517,0.276469828 L247.684138,0.276469828 C255.899241,0.276469828 262.62069,6.9979181 262.62069,15.2130216 L262.62069,175.207496 C262.62069,183.422599 255.899241,190.144047 247.684138,190.144047 Z" id="Path" fill="#EFEFEF"></path>
                                        <path d="M15.0986379,175.207496 L15.0986379,15.2130216 C15.0986379,6.9979181 21.8200862,0.276469828 30.0351897,0.276469828 L14.9365517,0.276469828 C6.72144828,0.276469828 0,6.9979181 0,15.2130216 L0,175.208009 C0,183.423112 6.72144828,190.14456 14.9365517,190.14456 L30.0351897,190.14456 C21.8200862,190.144047 15.0986379,183.422599 15.0986379,175.207496 Z" id="Path" fill="#DDDDDD"></path>
                                        <path d="M247.684138,0.276469828 L14.9365517,0.276469828 C6.72144828,0.276469828 0,6.9979181 0,15.2130216 L0,159.97806 L262.62069,159.97806 L262.62069,15.2130216 C262.62069,6.9979181 255.899241,0.276469828 247.684138,0.276469828 Z" id="Path" fill="#666666"></path>
                                        <path d="M0,15.2130216 L0,159.97806 L15.098125,159.97806 L15.098125,15.2130216 C15.098125,6.9979181 21.8195733,0.276469828 30.0346767,0.276469828 C14.4682457,0.302116379 12.3821552,-0.249797414 8.16278448,1.91579741 C3.32943534,4.3963319 0,9.43331466 0,15.2130216 Z" id="Path" fill="#535454"></path>
                                        <path d="M244.973297,144.903017 L17.6473922,144.903017 C16.2399095,144.903017 15.0986379,143.761746 15.0986379,142.354263 L15.0986379,17.8176853 C15.0986379,16.4096897 16.2399095,15.268931 17.6473922,15.268931 L244.973297,15.268931 C246.38078,15.268931 247.522052,16.4102026 247.522052,17.8176853 L247.522052,142.35375 C247.522052,143.761746 246.381293,144.903017 244.973297,144.903017 Z" id="Path" fill="#A4D9F4"></path>
                                        <path d="M30.9517974,142.35375 L30.9517974,17.8176853 C30.9517974,16.4096897 32.093069,15.268931 33.5005517,15.268931 L17.6473922,15.268931 C16.2399095,15.268931 15.0986379,16.4102026 15.0986379,17.8176853 L15.0986379,142.35375 C15.0986379,143.761233 16.2399095,144.902504 17.6473922,144.902504 L33.5005517,144.902504 C32.093069,144.903017 30.9517974,143.761746 30.9517974,142.35375 Z" id="Path" fill="#7CC9E8"></path>
                                        <circle id="Oval" fill="#CCCCCC" cx="131.310345" cy="175.042845" r="3.99162931"></circle>
                                        <path d="M15.0986379,17.8176853 L15.0986379,30.2613922 L247.522565,30.2613922 L247.522565,17.8176853 C247.522565,16.4102026 246.381293,15.268931 244.973297,15.268931 L17.6473922,15.268931 C16.2393966,15.268931 15.0986379,16.4102026 15.0986379,17.8176853 Z" id="Path" fill="#70B5E8"></path>
                                        <g id="Group" transform="translate(14.875000, 14.875000)" fill="#52A5D8">
                                            <path d="M0.223637931,15.3863922 L16.0767974,15.3863922 L16.0767974,2.94268534 C16.0767974,1.53468966 17.218069,0.393931034 18.6255517,0.393931034 L2.77239224,0.393931034 C1.50134914,0.393931034 0.45599569,1.32746552 0.263646552,2.54413793 C0.183116379,3.05245259 0.243642241,2.1040431 0.223637931,15.3863922 Z" id="Path"></path>
                                            <path d="M59.9411207,118.365504 L49.3357586,118.365504 C48.3637543,118.365504 47.5681983,117.569948 47.5681983,116.597944 L47.5681983,105.992582 C47.5681983,105.020578 48.3637543,104.225022 49.3357586,104.225022 L59.9411207,104.225022 C60.913125,104.225022 61.708681,105.020578 61.708681,105.992582 L61.708681,116.597944 C61.708681,117.569948 60.913125,118.365504 59.9411207,118.365504 Z" id="Path"></path>
                                        </g>
                                        <path d="M124.253953,133.240504 L113.648591,133.240504 C112.676586,133.240504 111.88103,132.444948 111.88103,131.472944 L111.88103,120.867582 C111.88103,119.895578 112.676586,119.100022 113.648591,119.100022 L124.253953,119.100022 C125.225957,119.100022 126.021513,119.895578 126.021513,120.867582 L126.021513,131.472944 C126.021513,132.444948 125.225957,133.240504 124.253953,133.240504 Z" id="Path" fill="#898989"></path>
                                        <path d="M173.691272,133.240504 L163.085909,133.240504 C162.113905,133.240504 161.318349,132.444948 161.318349,131.472944 L161.318349,120.867582 C161.318349,119.895578 162.113905,119.100022 163.085909,119.100022 L173.691272,119.100022 C174.663276,119.100022 175.458832,119.895578 175.458832,120.867582 L175.458832,131.472944 C175.458832,132.444948 174.663276,133.240504 173.691272,133.240504 Z" id="Path" fill="#52A5D8"></path>
                                        <path d="M99.5347802,133.240504 L88.9294181,133.240504 C87.9574138,133.240504 87.1618578,132.444948 87.1618578,131.472944 L87.1618578,120.867582 C87.1618578,119.895578 87.9574138,119.100022 88.9294181,119.100022 L99.5347802,119.100022 C100.506784,119.100022 101.302341,119.895578 101.302341,120.867582 L101.302341,131.472944 C101.302341,132.444948 100.507297,133.240504 99.5347802,133.240504 Z" id="Path" fill="#F94A46"></path>
                                        <path d="M148.972612,133.240504 L138.36725,133.240504 C137.395246,133.240504 136.59969,132.444948 136.59969,131.472944 L136.59969,120.867582 C136.59969,119.895578 137.395246,119.100022 138.36725,119.100022 L148.972612,119.100022 C149.944616,119.100022 150.740172,119.895578 150.740172,120.867582 L150.740172,131.472944 C150.740172,132.444948 149.944616,133.240504 148.972612,133.240504 Z" id="Path" fill="#FFB70D"></path>
                                        <path d="M198.409931,133.240504 L187.804569,133.240504 C186.832565,133.240504 186.037009,132.444948 186.037009,131.472944 L186.037009,120.867582 C186.037009,119.895578 186.832565,119.100022 187.804569,119.100022 L198.409931,119.100022 C199.381935,119.100022 200.177491,119.895578 200.177491,120.867582 L200.177491,131.472944 C200.177491,132.444948 199.382448,133.240504 198.409931,133.240504 Z" id="Path" fill="#92B620"></path>
                                    </g>
                                    <g id="payment" transform="translate(0.000000, 46.000000)">
                                        <path d="M161.158907,32.5674917 L161.158907,83 L169.583736,80.7366209 C172.762559,79.873135 174.644469,76.6154389 173.79688,73.4435097 L155.243291,4.40390176 C154.384032,1.23197293 151.107467,-0.647635152 147.922808,0.205674902 L49,26.6132198 L155.183479,26.6132198 C158.479009,26.6219417 161.148695,29.2821756 161.158907,32.5674917 Z" id="Path" fill="#00A38F"></path>
                                        <path d="M162,32 L162,104 C161.989746,107.309082 159.309082,109.989746 156,110 L30,110 L30,32 C30.010254,28.6894531 32.6909179,26.0087889 36,26 L156,26 C159.309082,26.0087889 161.989746,28.6894531 162,32 Z" id="Path" fill="#00CCB3"></path>
                                        <polygon id="Path" fill="url(#linearGradient-1)" points="66 149 0 149 0 173 66 173"></polygon>
                                        <polygon id="Path" fill="#FF5023" points="57 48 72 48 72 57 57 57"></polygon>
                                        <polygon id="Path" fill="#FFB655" points="57 39 72 39 72 48 57 48"></polygon>
                                        <polygon id="Path" fill="#FF9811" points="57 48 57 39 48 39 48 57 57 57"></polygon>
                                        <path d="M60.4804688,110.393939 L42,110.393939 L42,104.454545 L56.6997071,89.9033202 C58.9614259,87.6789474 60.2314455,84.6541488 60.2314455,81.4988458 C60.2314455,78.3435428 58.9614259,75.3187442 56.6997071,73.0943714 L54.6005858,71.0150036 C53.4228517,69.8535154 51.5170897,69.8535154 50.3393554,71.0150036 L37.5600585,83.6666667 L30,83.6666667 L30,51 L9.515625,71.2760118 C7.26416025,73.5047348 6,76.5266335 6,79.6775863 L6,149 L57,149 L57,134.151515 C63.6269531,134.151515 69,128.832741 69,122.272727 L69,110.393939 L60.4804688,110.393939 Z" id="Path" fill="#FFDAAA"></path>
                                        <path d="M161,32 L161,104 C160.98982,107.309082 158.328477,109.989746 155.043244,110 L55,110 C93.6185656,91.7304688 126.132038,62.5463866 148.580397,26 L155.043244,26 C158.328477,26.0087889 160.98982,28.6894531 161,32 Z" id="Path" fill="#00B8A1"></path>
                                        <path d="M128.983611,54.6899259 C130.627495,56.1811355 132.76997,57.0043771 134.990167,56.9999825 C139.965812,56.9999825 144,52.9702012 144,47.9999912 C144,43.029781 139.965812,39 134.990167,39 C131.263932,39.0073241 127.926305,41.3071264 126.594773,44.7846622 C125.263242,48.2621981 126.213498,52.1996943 128.983611,54.6899259 Z" id="Path" fill="#FFB655"></path>
                                        <path d="M123,56.9999825 C125.217773,57.0043771 127.35791,56.181137 129,54.6899298 C127.091308,52.9892509 126,50.5561521 126,48.0000068 C126,45.443861 127.091308,43.0092975 129,41.3100833 C127.35791,39.8188762 125.217773,38.9941716 123,39.000031 C118.029785,39.000031 114,43.029805 114,48.0000068 C114,52.9702081 118.029785,56.9999825 123,56.9999825 Z" id="Path" fill="#FF7956"></path>
                                        <g id="Group" transform="translate(75.000000, 77.000000)" fill="#787680">
                                            <polygon id="Path" points="0 0.256855959 6 0.256855959 6 6.13440698 0 6.13440698"></polygon>
                                            <polygon id="Path" points="12 0.256855959 18 0.256855959 18 6.13440698 12 6.13440698"></polygon>
                                            <polygon id="Path" points="24 0.256855959 30 0.256855959 30 6.13440698 24 6.13440698"></polygon>
                                            <polygon id="Path" points="36 0.256855959 42 0.256855959 42 6.13440698 36 6.13440698"></polygon>
                                            <polygon id="Path" points="48 0.256855959 54 0.256855959 54 6.13440698 48 6.13440698"></polygon>
                                            <polygon id="Path" points="60 0.256855959 66 0.256855959 66 6.13440698 60 6.13440698"></polygon>
                                            <polygon id="Path" points="0 12.011958 24 12.011958 24 17.889509 0 17.889509"></polygon>
                                            <polygon id="Path" points="42 12.011958 66 12.011958 66 17.889509 42 17.889509"></polygon>
                                        </g>
                                        <path d="M42,104 L42,113 C42,121.283691 35.2836915,128 27,128 L27,122 C31.9643554,121.985351 35.9853517,117.964355 36,113 L36,104 L42,104 Z" id="Path" fill="#FFC477"></path>
                                    </g>
                                </g>
                            </g>
                        </g>
                    </g>
                </g>
            </g>
        </g>
    </g>
</svg>