<?xml version="1.0" encoding="UTF-8"?>
<svg width="33px" height="31px" viewBox="0 0 33 31" version="1.1" xmlns="http://www.w3.org/2000/svg" xmlns:xlink="http://www.w3.org/1999/xlink">
    <!-- Generator: Sketch 52.2 (67145) - http://www.bohemiancoding.com/sketch -->
    <title>Shape</title>
    <desc>Created with Sketch.</desc>
    <g id="Symbols" stroke="none" stroke-width="1" fill="none" fill-rule="evenodd">
        <g id="SEO-Text" transform="translate(-650.000000, -65.000000)" fill="#006FFB" fill-rule="nonzero">
            <g id="seo-text">
                <g id="Group-25" transform="translate(650.000000, 61.000000)">
                    <g id="gift" transform="translate(0.000000, 4.000000)">
                        <path d="M30.9375,8.23688501 L24.41175,8.23688501 C24.8799375,7.91613203 25.282125,7.59744842 25.562625,7.3118748 C27.225,5.63361241 27.225,2.90203861 25.562625,1.22377623 C23.9476875,-0.406890557 21.1303125,-0.408959931 19.5133125,1.22377623 C18.62025,2.12395395 16.2463125,5.78881547 16.57425,8.23688501 L16.42575,8.23688501 C16.751625,5.78881547 14.37975,2.12395395 13.4866875,1.22377623 C11.8696875,-0.408959931 9.0523125,-0.406890557 7.437375,1.22377623 C5.775,2.90203861 5.775,5.63361241 7.4353125,7.3118748 C7.717875,7.59744842 8.1200625,7.91613203 8.58825,8.23688501 L2.0625,8.23688501 C0.9260625,8.23688501 0,9.16603398 0,10.3062591 L0,15.4796943 C0,16.0508416 0.462,16.5143814 1.03125,16.5143814 L2.0625,16.5143814 L2.0625,28.9306259 C2.0625,30.070851 2.9885625,31 4.125,31 L28.875,31 C30.0114375,31 30.9375,30.070851 30.9375,28.9306259 L30.9375,16.5143814 L31.96875,16.5143814 C32.538,16.5143814 33,16.0508416 33,15.4796943 L33,10.3062591 C33,9.16603398 32.0739375,8.23688501 30.9375,8.23688501 Z M8.8996875,2.68268496 C9.318375,2.26053264 9.8731875,2.02876275 10.4630625,2.02876275 C11.050875,2.02876275 11.6056875,2.26053264 12.024375,2.68268496 C13.4145,4.08572059 14.796375,7.66987651 14.3158125,8.16859567 C14.3158125,8.16859567 14.2291875,8.23688501 13.93425,8.23688501 C12.5090625,8.23688501 9.788625,6.75107442 8.8996875,5.85296606 C8.0355,4.9796902 8.0355,3.55596082 8.8996875,2.68268496 Z M15.46875,28.9306259 L4.125,28.9306259 L4.125,16.5143814 L15.46875,16.5143814 L15.46875,28.9306259 Z M15.46875,14.4450073 L2.0625,14.4450073 L2.0625,10.3062591 L13.93425,10.3062591 L15.46875,10.3062591 L15.46875,14.4450073 Z M20.975625,2.68268496 C21.813,1.8404497 23.265,1.84251908 24.1003125,2.68268496 C24.9645,3.55596082 24.9645,4.9796902 24.1003125,5.85296606 C23.211375,6.75107442 20.4909375,8.23688501 19.06575,8.23688501 C18.7708125,8.23688501 18.6841875,8.17066504 18.682125,8.16859567 C18.203625,7.66987651 19.5855,4.08572059 20.975625,2.68268496 Z M28.875,28.9306259 L17.53125,28.9306259 L17.53125,16.5143814 L28.875,16.5143814 L28.875,28.9306259 Z M30.9375,14.4450073 L17.53125,14.4450073 L17.53125,10.3062591 L19.06575,10.3062591 L30.9375,10.3062591 L30.9375,14.4450073 Z" id="Shape"></path>
                    </g>
                </g>
            </g>
        </g>
    </g>
</svg>