<?xml version="1.0" encoding="UTF-8"?>
<svg width="35px" height="35px" viewBox="0 0 35 35" version="1.1" xmlns="http://www.w3.org/2000/svg" xmlns:xlink="http://www.w3.org/1999/xlink">
    <!-- Generator: Sketch 52.2 (67145) - http://www.bohemiancoding.com/sketch -->
    <title>coin</title>
    <desc>Created with Sketch.</desc>
    <g id="Symbols" stroke="none" stroke-width="1" fill="none" fill-rule="evenodd">
        <g id="SEO-Text" transform="translate(-170.000000, -64.000000)" fill="#006FFB">
            <g id="seo-text">
                <g id="Group-24" transform="translate(170.000000, 61.000000)">
                    <g id="coin" transform="translate(0.000000, 3.000000)">
                        <path d="M29.8744141,5.12558594 C26.5691016,1.82027344 22.1744141,0 17.5,0 C12.8255859,0 8.43089844,1.82027344 5.12558594,5.12558594 C1.8203418,8.43089844 0,12.8255859 0,17.5 C0,22.1744141 1.8203418,26.5691016 5.12558594,29.8744141 C8.43089844,33.1797266 12.8255859,35 17.5,35 C22.1744141,35 26.5691016,33.1797266 29.8744141,29.8744141 C33.1796582,26.5691016 35,22.1744141 35,17.5 C35,12.8255859 33.1796582,8.43089844 29.8744141,5.12558594 Z M17.5,32.9492188 C8.98125977,32.9492188 2.05078125,26.0187402 2.05078125,17.5 C2.05078125,8.98125977 8.98125977,2.05078125 17.5,2.05078125 C26.0187402,2.05078125 32.9492188,8.98125977 32.9492188,17.5 C32.9492188,26.0187402 26.0187402,32.9492188 17.5,32.9492188 Z" id="Shape" fill-rule="nonzero"></path>
                        <path d="M18.5983301,16.4746094 L16.4016699,16.4746094 C15.1502148,16.4746094 14.1321387,15.4565332 14.1321387,14.2051465 C14.1321387,12.9536914 15.1502832,11.9356152 16.4016699,11.9356152 L20.7949219,11.9356152 C21.3612109,11.9356152 21.8203125,11.4765137 21.8203125,10.9102246 C21.8203125,10.3439355 21.3612109,9.88483398 20.7949219,9.88483398 L18.5253906,9.88483398 L18.5253906,7.61530273 C18.5253906,7.04901367 18.0662891,6.58991211 17.5,6.58991211 C16.9337109,6.58991211 16.4746094,7.04901367 16.4746094,7.61530273 L16.4746094,9.88483398 L16.4017383,9.88483398 C14.0194824,9.88483398 12.0814258,11.822959 12.0814258,14.2051465 C12.0814258,16.587334 14.0195508,18.5253906 16.4017383,18.5253906 L18.5983984,18.5253906 C19.8497852,18.5253906 20.8678613,19.5435352 20.8678613,20.7949219 C20.8678613,22.0463086 19.8497852,23.0644531 18.5983984,23.0644531 L14.2051465,23.0644531 C13.6388574,23.0644531 13.1797559,23.5235547 13.1797559,24.0898438 C13.1797559,24.6561328 13.6388574,25.1152344 14.2051465,25.1152344 L16.4746094,25.1152344 L16.4746094,27.384834 C16.4746094,27.951123 16.9337109,28.4102246 17.5,28.4102246 C18.0662891,28.4102246 18.5253906,27.951123 18.5253906,27.384834 L18.5253906,25.1152344 L18.5983301,25.1152344 C20.9805176,25.1152344 22.9185742,23.1771094 22.9185742,20.7949219 C22.9185742,18.4127344 20.9805176,16.4746094 18.5983301,16.4746094 Z" id="Path"></path>
                    </g>
                </g>
            </g>
        </g>
    </g>
</svg>