<svg width="28" height="27" viewBox="0 0 28 27" fill="#ED7408" xmlns="http://www.w3.org/2000/svg">
<path fill-rule="evenodd" clip-rule="evenodd" d="M27.0575 9.63726C27.686 9.739 28 9.99866 28 10.4165C28 10.6649 27.8544 10.936 27.5627 11.23L21.4548 17.226L22.9017 25.6943C22.913 25.7739 22.9187 25.8868 22.9187 26.0334C22.9187 26.5982 22.6887 26.88 22.2283 26.88C22.0155 26.88 21.7912 26.8121 21.5554 26.6765L13.9999 22.6792L6.44476 26.6769C6.19799 26.8125 5.97373 26.88 5.77169 26.88C5.53599 26.88 5.35941 26.7984 5.24172 26.6343C5.12396 26.4704 5.06514 26.2701 5.06514 26.033C5.06514 25.9655 5.07628 25.8523 5.09873 25.6941L6.54584 17.2255L0.420759 11.2296C0.140273 10.9247 0 10.6537 0 10.4165C0 9.99866 0.31414 9.739 0.942184 9.63726L9.38942 8.40104L13.1756 0.694342C13.3888 0.231368 13.6637 0 14.0001 0C14.3366 0 14.6116 0.231368 14.8246 0.694342L18.6106 8.40104L27.0575 9.63726ZM20.3437 23.5942L19.1324 16.4633L24.2817 11.4326L17.18 10.3826L13.9999 3.91232L10.8196 10.3826L3.71852 11.4326L8.86764 16.4633L7.6392 23.5942L13.9999 20.2233L20.3437 23.5942Z" fill="#ED7408"/>
</svg>
