<svg width="28" height="27" viewBox="0 0 28 27" fill="#ED7408" xmlns="http://www.w3.org/2000/svg">
<path d="M28 10.4165C28 9.99866 27.686 9.739 27.0575 9.63726L18.6106 8.40104L14.8246 0.694342C14.6116 0.231368 14.3366 0 14.0001 0C13.6637 0 13.3888 0.231368 13.1756 0.694342L9.38942 8.40104L0.942184 9.63726C0.31414 9.739 0 9.99866 0 10.4165C0 10.6537 0.140273 10.9247 0.420759 11.2296L6.54584 17.2255L5.09873 25.6941C5.07628 25.8523 5.06514 25.9655 5.06514 26.033C5.06514 26.2701 5.12396 26.4704 5.24172 26.6343C5.35941 26.7984 5.53599 26.88 5.77169 26.88C5.97373 26.88 6.19799 26.8125 6.44476 26.6769L13.9999 22.6792L21.5554 26.6765C21.7912 26.8121 22.0155 26.88 22.2283 26.88C22.6887 26.88 22.9187 26.5982 22.9187 26.0334C22.9187 25.8868 22.913 25.7739 22.9017 25.6943L21.4548 17.226L27.5627 11.23C27.8544 10.936 28 10.6649 28 10.4165Z" fill="#ED7408"/>
</svg>
