<?xml version="1.0" encoding="UTF-8"?>
<svg width="137px" height="137px" viewBox="0 0 137 137" version="1.1" xmlns="http://www.w3.org/2000/svg" xmlns:xlink="http://www.w3.org/1999/xlink">
    <!-- Generator: Sketch 52.4 (67378) - http://www.bohemiancoding.com/sketch -->
    <title>pay-per-click</title>
    <desc>Created with Sketch.</desc>
    <g id="Page-1" stroke="none" stroke-width="1" fill="none" fill-rule="evenodd">
        <g id="Главная-страница" transform="translate(-457.000000, -3288.000000)">
            <g id="customer-problems" transform="translate(320.000000, 3282.000000)">
                <g id="Group-29" transform="translate(0.000000, 6.000000)">
                    <g id="Group-62">
                        <g id="pay-per-click" transform="translate(137.000000, 0.000000)">
                            <circle id="Oval" fill="#A53535" cx="68.4277344" cy="68.5722656" r="68.4277344"></circle>
                            <circle id="Oval" fill="#FFD00D" cx="19.3776172" cy="65.8463281" r="9.63658008"></circle>
                            <path d="M15.2839629,65.8468867 C15.2839629,61.4881797 18.1785957,57.8070469 22.1496387,56.6166836 C21.2718086,56.3535859 20.3420293,56.2103066 19.3784551,56.2103066 C14.0564531,56.2103066 9.741875,60.5248848 9.741875,65.8468867 C9.741875,71.1688887 14.0564531,75.4834668 19.3784551,75.4834668 C20.3420293,75.4834668 21.2718086,75.3401875 22.1496387,75.0770898 C18.1785957,73.8864473 15.2839629,70.2055938 15.2839629,65.8468867 Z" id="Path" fill="#FFAF10"></path>
                            <path d="M110.412354,25.8412402 C105.262774,25.8412402 94.9322273,25.8412402 85.7958105,25.8412402 L26.6094512,25.8412402 C25.0733184,25.8412402 23.8164824,27.0980762 23.8164824,28.634209 L23.8164824,61.3052402 C23.8164824,62.841373 25.0733184,64.098209 26.6094512,64.098209 L110.245738,64.098209 C111.781871,64.098209 113.038707,62.841373 113.038707,61.3052402 L113.038707,45.6341719 C113.038707,38.1550374 113.038707,32.2634186 113.038707,28.5240479 C113.038707,27.4465857 111.577817,25.8412402 110.412354,25.8412402 Z" id="Path" fill="#91E0E8"></path>
                            <path d="M62.4826719,43.0019355 L55.9191953,43.0019355 L55.9191953,40.1159609 L63.8791563,40.1159609 C65.0362832,40.1159609 65.9738828,39.178082 65.9738828,38.0212344 C65.9738828,36.8643867 65.0362832,35.9265078 63.8791563,35.9265078 L60.9465391,35.9265078 L60.9465391,34.1110781 C60.9465391,32.9542305 60.0089395,32.0163516 58.8518125,32.0163516 C57.6946855,32.0163516 56.7570859,32.9542305 56.7570859,34.1110781 L56.7570859,35.9265078 L55.2209531,35.9265078 C53.2957598,35.9265078 51.7297422,37.4925254 51.7297422,39.4177188 L51.7297422,43.7001777 C51.7297422,45.6253711 53.2957598,47.1913887 55.2209531,47.1913887 L61.7844297,47.1913887 L61.7844297,50.0776426 L53.8244688,50.0776426 C52.6673418,50.0776426 51.7297422,51.0155215 51.7297422,52.1723691 C51.7297422,53.3292168 52.6673418,54.2670957 53.8244688,54.2670957 L56.7570859,54.2670957 L56.7570859,55.8962344 C56.7570859,57.053082 57.6946855,57.9909609 58.8518125,57.9909609 C60.0089395,57.9909609 60.9465391,57.053082 60.9465391,55.8962344 L60.9465391,54.2670957 L62.4826719,54.2670957 C64.4078652,54.2670957 65.9738828,52.7010781 65.9738828,50.7758848 L65.9738828,46.4931465 C65.9738828,44.5679531 64.4075859,43.0019355 62.4826719,43.0019355 Z" id="Path" fill="#449BA4"></path>
                            <g id="101" transform="translate(70.000000, 34.000000)" fill="#449BA4">
                                <path d="M16,10.529745 C16,12.1161552 15.836861,13.5538179 15.510578,14.8427762 C15.184295,16.1317345 14.6996761,17.2322901 14.0567067,18.1444759 C13.4137372,19.0566618 12.6124366,19.7606208 11.6527808,20.2563739 C10.693125,20.7521271 9.57034449,21 8.28440567,21 C6.99846685,21 5.87568637,20.7521271 4.91603053,20.2563739 C3.9563747,19.7606208 3.1550741,19.0566618 2.51210469,18.1444759 C1.86913528,17.2322901 1.38451635,16.1317345 1.05823337,14.8427762 C0.731950386,13.5538179 0.568811341,12.1161552 0.568811341,10.529745 C0.568811341,8.94333484 0.731950386,7.50071471 1.05823337,6.20184136 C1.38451635,4.90296801 1.86913528,3.79249753 2.51210469,2.8703966 C3.1550741,1.94829567 3.9563747,1.23937925 4.91603053,0.743626062 C5.87568637,0.247872875 6.99846685,0 8.28440567,0 C9.57034449,0 10.693125,0.247872875 11.6527808,0.743626062 C12.6124366,1.23937925 13.4137372,1.94829567 14.0567067,2.8703966 C14.6996761,3.79249753 15.184295,4.90296801 15.510578,6.20184136 C15.836861,7.50071471 16,8.94333484 16,10.529745 Z M11.9694656,10.529745 C11.9694656,9.30027714 11.8735015,8.23938123 11.6815703,7.3470255 C11.4896392,6.45466976 11.230536,5.72592351 10.904253,5.16076487 C10.57797,4.59560624 10.1893152,4.17917981 9.73827699,3.91147309 C9.28723875,3.64376637 8.80261982,3.50991501 8.28440567,3.50991501 C7.76619152,3.50991501 7.2863708,3.64376637 6.84492912,3.91147309 C6.40348743,4.17917981 6.01483265,4.59560624 5.67895311,5.16076487 C5.34307357,5.72592351 5.07917217,6.45466976 4.887241,7.3470255 C4.69530984,8.23938123 4.59934569,9.30027714 4.59934569,10.529745 C4.59934569,11.7790431 4.69530984,12.839939 4.887241,13.7124646 C5.07917217,14.5849902 5.34307357,15.3038215 5.67895311,15.8689802 C6.01483265,16.4341388 6.40348743,16.8456078 6.84492912,17.1033994 C7.2863708,17.3611911 7.76619152,17.490085 8.28440567,17.490085 C8.80261982,17.490085 9.28723875,17.3611911 9.73827699,17.1033994 C10.1893152,16.8456078 10.57797,16.4341388 10.904253,15.8689802 C11.230536,15.3038215 11.4896392,14.5849902 11.6815703,13.7124646 C11.8735015,12.839939 11.9694656,11.7790431 11.9694656,10.529745 Z" id="100"></path>
                            </g>
                            <path d="M29.3585703,61.3052402 L29.3585703,28.634209 C29.3585703,27.0980762 30.6154063,25.8412402 32.1515391,25.8412402 L26.6094512,25.8412402 C25.0733184,25.8412402 23.8164824,27.0980762 23.8164824,28.634209 L23.8164824,61.3052402 C23.8164824,62.841373 25.0733184,64.098209 26.6094512,64.098209 L32.1515391,64.098209 C30.6154063,64.098209 29.3585703,62.841373 29.3585703,61.3052402 Z" id="Path" fill="#5DC1D8"></path>
                            <path d="M62.7018691,136.759525 C64.5901953,136.915932 66.4991895,137 68.4277344,137 C78.106209,137 87.3132305,134.98627 95.6589004,131.361834 L95.6589004,127.162633 L62.7018691,127.162633 L62.7018691,136.759525 Z" id="Path" fill="#37C47A"></path>
                            <path d="M68.243957,127.164588 L62.7018691,127.164588 L62.7018691,136.76148 C64.5301465,136.912859 66.3779746,136.994693 68.243957,137 L68.243957,127.164588 Z" id="Path" fill="#02AF8E"></path>
                            <path d="M96.2309004,113.522611 L96.2309004,78.4507441 C96.2309004,76.1465449 94.3456465,74.261291 92.0414473,74.261291 L90.3662246,74.261291 C88.7097148,74.261291 87.2741289,75.2379922 86.5954375,76.6417383 C85.9167461,75.2379922 84.4811602,74.261291 82.8246504,74.261291 L81.1494277,74.261291 C79.492918,74.261291 78.057332,75.2379922 77.3786406,76.6417383 C76.6999492,75.2379922 75.2643633,74.261291 73.6078535,74.261291 L71.9326309,74.261291 C70.5637969,74.261291 69.3460625,74.9296484 68.5805098,75.9532715 L68.5805098,59.6445684 C68.5805098,57.3403691 66.6952559,55.4551152 64.3910566,55.4551152 L62.715834,55.4551152 C60.4116348,55.4551152 58.5263809,57.3403691 58.5263809,59.6445684 L58.5263809,93.9869121 L53.8660332,89.3265645 C52.2366152,87.6974258 49.5707266,87.6974258 47.9413086,89.3268437 L46.1982168,91.0699355 C44.5690781,92.6993535 44.5690781,95.3655215 46.1982168,96.9946602 L62.726168,113.522611 L96.2309004,113.522611 Z" id="Path" fill="#FFE2B8"></path>
                            <path d="M68.2682559,113.522611 L51.7403047,96.9946602 C50.111166,95.3655215 50.111166,92.6993535 51.7403047,91.0699355 L53.4833965,89.3268438 C53.5448418,89.2653984 53.6104766,89.2109355 53.6749941,89.153959 C52.0346836,87.7044082 49.5095605,87.7585918 47.9415879,89.3268438 L46.1984961,91.0699355 C44.5693574,92.6993535 44.5693574,95.3655215 46.1984961,96.9946602 L62.7264473,113.522611 L68.2682559,113.522611 Z" id="Path" fill="#FFC987"></path>
                            <g id="Group" transform="translate(59.210938, 113.232422)" fill="#0F9390">
                                <path d="M39.7995254,12.8130234 C39.7995254,13.5810898 39.1711074,14.2095078 38.403041,14.2095078 L1.53585352,14.2095078 C0.767787109,14.2095078 0.139369141,13.5810898 0.139369141,12.8130234 L0.139369141,1.40737695 C0.139369141,0.639310547 0.767787109,0.0108925781 1.53585352,0.0108925781 L38.403041,0.0108925781 C39.1711074,0.0108925781 39.7995254,0.639310547 39.7995254,1.40737695 L39.7995254,12.8130234 Z" id="Path"></path>
                                <path d="M5.68145703,12.8130234 L5.68145703,1.40737695 C5.68145703,0.639310547 6.309875,0.0108925781 7.07794141,0.0108925781 L1.53585352,0.0108925781 C0.767787109,0.0108925781 0.139369141,0.639310547 0.139369141,1.40737695 L0.139369141,12.8130234 C0.139369141,13.5810898 0.767787109,14.2095078 1.53585352,14.2095078 L7.07794141,14.2095078 C6.309875,14.2095078 5.68145703,13.5810898 5.68145703,12.8130234 Z" id="Path"></path>
                            </g>
                            <g id="Group" transform="translate(46.921875, 43.128906)" fill="#FFFFFF">
                                <circle id="Oval" cx="44.8271484" cy="77.2144141" r="3.07226562"></circle>
                            </g>
                            <circle id="Oval" fill="#FFD00D" cx="115.458535" cy="85.1206055" r="9.63658008"></circle>
                            <path d="M111.363484,85.1197676 C111.363484,80.7610605 114.258117,77.0799277 118.22916,75.8895645 C117.351609,75.6264668 116.421551,75.4831875 115.457977,75.4831875 C110.135975,75.4831875 105.821396,79.7977656 105.821396,85.1197676 C105.821396,90.4420488 110.135975,94.7563477 115.457977,94.7563477 C116.421551,94.7563477 117.35133,94.6130684 118.22916,94.3499707 C114.258396,93.1593281 111.363484,89.4784746 111.363484,85.1197676 Z" id="Path" fill="#FFAF10"></path>
                        </g>
                    </g>
                </g>
            </g>
        </g>
    </g>
</svg>