<?xml version="1.0" encoding="UTF-8"?>
<svg width="128px" height="143px" viewBox="0 0 128 143" version="1.1" xmlns="http://www.w3.org/2000/svg" xmlns:xlink="http://www.w3.org/1999/xlink">
    <!-- Generator: Sketch 52.2 (67145) - http://www.bohemiancoding.com/sketch -->
    <title>customer-service</title>
    <desc>Created with Sketch.</desc>
    <g id="Page-1" stroke="none" stroke-width="1" fill="none" fill-rule="evenodd">
        <g id="Главная-страница" transform="translate(-1331.000000, -3282.000000)">
            <g id="customer-problems" transform="translate(320.000000, 3282.000000)">
                <g id="Group-27" transform="translate(869.000000, 0.000000)">
                    <g id="customer-service" transform="translate(142.000000, 0.000000)">
                        <path d="M29.2651163,69.172093 L25.8960201,67.3842984 C25.1074802,66.9658962 24.6093023,66.1106206 24.6093023,65.1747431 L24.6093023,55.8764197 C24.6093023,54.9408221 25.1074802,54.0852666 25.8960201,53.6668644 L29.2651163,51.8790698 L29.2651163,69.172093 Z" id="Path" fill="#707487"></path>
                        <polygon id="Path" fill="#E6AF78" points="85.8 100.87584 85.8 83.8046512 41.9023256 83.8046512 41.9023256 100.87584 63.8511628 120.386047"></polygon>
                        <path d="M120.129659,108.758318 L89.7407846,101.635848 C89.281734,101.528323 88.8596856,101.345695 88.4646238,101.12427 L63.851441,115.426021 L40.1980914,100.432558 C39.5857456,101.006768 38.825669,101.433545 37.9623756,101.636126 L7.57350103,108.758595 C3.13601145,109.798657 0,113.742744 0,118.283489 L0,137.442464 C0,140.14474 2.1989917,142.334884 4.9115637,142.334884 L122.790762,142.334884 C125.503612,142.334884 127.702326,140.144463 127.702326,137.442464 L127.702326,118.283489 C127.702882,113.742467 124.566871,109.798103 120.129659,108.758318 Z" id="Path" fill="#B4E1FA"></path>
                        <path d="M41.9023256,83.8049309 L41.9023256,102.04356 C69.551937,112.130997 85.8,86.8845688 85.8,86.8845688 L85.8,83.8046512 L41.9023256,83.8046512 L41.9023256,83.8049309 Z" id="Path" fill="#D29B6E"></path>
                        <path d="M31.9255814,26.6046512 L34.065592,73.966097 C34.2653486,78.390525 36.422052,82.4936649 39.9442224,85.1510084 L50.0984227,92.812106 C52.6490751,94.7361962 55.7511446,95.7767442 58.93946,95.7767442 L68.7628656,95.7767442 C71.951181,95.7767442 75.0532505,94.7364761 77.6039028,92.812106 L87.7581031,85.1510084 C91.2802736,82.493385 93.436977,78.3908049 93.6367335,73.966097 L95.7767442,26.6046512 C95.7767442,26.6046512 31.9255814,26.6046512 31.9255814,26.6046512 Z" id="Path" fill="#F0C087"></path>
                        <path d="M64.2349875,71.098209 C58.1557661,71.098209 54.974813,66 56.150759,66 C59.5330391,67.3846231 62.1188189,68.0769346 63.9080984,68.0769346 C65.5605507,68.0769346 68.1373685,67.3846231 71.638552,66 C72.814498,66 70.314209,71.098209 64.2349875,71.098209 Z" id="Path" fill="#D29B6E"></path>
                        <path d="M53.0046674,79.3351923 C52.0676119,78.9240648 52.2080776,78.0754947 52.6063725,77.7598521 C53.0416753,77.2028108 53.9333114,77.0344254 54.8703669,77.4442094 C60.3463382,79.8491719 66.8838569,79.8491719 72.3598281,77.4442094 C73.2968836,77.0330816 74.3567173,76.6945058 74.8715092,77.4442094 C75.387983,78.1912258 75.1625835,78.9240648 74.2255276,79.3351923 C70.9029336,80.7942927 67.2590157,81.5238426 63.6150977,81.5238426 C59.9711794,81.5238426 56.3255788,80.7942927 53.0046674,79.3351923 Z" id="Path" fill="#D29B6E"></path>
                        <path d="M56.4525923,36.4864987 C66.2634522,36.4864987 80.9793253,34.0161068 84.4697674,26.6046512 L31.9255814,26.6046512 L34.062859,73.966097 C34.2623605,78.390525 36.4163095,82.493385 39.9342595,85.1510084 L50.0754916,92.812106 C52.6228865,94.7361962 55.7209943,95.7767442 58.9052378,95.7767442 L63.8105288,95.7767442 C58.9052378,95.7767442 49.0943779,85.8948967 49.0943779,73.5429371 C49.0943779,67.5017136 49.0943779,51.30913 49.0943779,43.8976744 C49.0943779,41.4272825 51.5470234,36.4864987 56.4525923,36.4864987 Z" id="Path" fill="#E6AF78"></path>
                        <g id="Group" transform="translate(0.000000, 112.404651)" fill="#A0D2F0">
                            <path d="M18.128178,14.3837079 L2.248949,0.0923423256 C0.918346289,1.78037116 0.138251648,3.90452279 0.138251648,6.17859163 L0.138251648,25.4074902 C0.138251648,28.1196288 2.33251074,30.3177656 5.03924481,30.3177656 L22.1929985,30.3177656 L22.1929985,23.5161414 C22.1927209,20.0318874 20.7149829,16.7117358 18.128178,14.3837079 Z" id="Path"></path>
                            <path d="M109.575536,14.3837079 L125.454765,0.0923423256 C126.785367,1.78037116 127.565462,3.90452279 127.565462,6.17859163 L127.565462,25.4074902 C127.565462,28.1196288 125.371203,30.3177656 122.664469,30.3177656 L105.510715,30.3177656 L105.510715,23.5161414 C105.510715,20.0318874 106.988453,16.7117358 109.575536,14.3837079 Z" id="Path"></path>
                        </g>
                        <polygon id="Path" fill="#5B5D6E" points="69.8372093 142.334884 57.8651163 142.334884 59.3616279 120.386047 68.3406977 120.386047"></polygon>
                        <path d="M69.8372093,115.730233 L57.8651163,115.730233 L57.8651163,120.319967 C57.8651163,121.825935 59.0635191,123.046512 60.5421279,123.046512 L67.1599264,123.046512 C68.6385352,123.046512 69.836938,121.825935 69.836938,120.319967 L69.836938,115.730233 L69.8372093,115.730233 Z" id="Path" fill="#515262"></path>
                        <g id="Group" transform="translate(34.586047, 94.446512)" fill="#A0D2F0">
                            <path d="M6.9902215,0.638327533 L29.2659445,20.9059943 C29.2659445,20.9059943 23.0275052,24.0898168 15.3291231,30.5068646 C13.7410764,31.8304104 11.3388521,31.2942376 10.4871268,29.3999092 L0.0215347082,6.12370183 L3.33235805,1.10332695 C4.15619868,-0.147091653 5.8856014,-0.366473131 6.9902215,0.638327533 Z" id="Path"></path>
                            <path d="M51.5413915,0.638327533 L29.2656685,20.9059943 C29.2656685,20.9059943 35.5041078,24.0898168 43.2024899,30.5068646 C44.7905366,31.8304104 47.1927609,31.2942376 48.0444862,29.3999092 L58.5100783,6.12370183 L55.1992549,1.10332695 C54.3751382,-0.147091653 52.6457355,-0.366473131 51.5413915,0.638327533 Z" id="Path"></path>
                        </g>
                        <path d="M79.1488372,10.8422962 L81.4187605,27.165415 C91.7808572,29.27419 93.2742061,45.8211656 93.4892659,50.5472779 C93.5282181,51.4050232 93.7973172,52.2331814 94.2545935,52.9547146 L98.2082375,59.1953488 C98.2082375,59.1953488 96.8550615,48.8778426 103.050923,41.9483326 C103.051198,41.9483326 105.178754,0.986738693 79.1488372,10.8422962 Z" id="Path" fill="#785550"></path>
                        <path d="M34.538441,6.37836335 L38.1636949,8.8701892 C21.7725826,21.0468612 24.8361109,41.9322118 24.8361109,41.9322118 C29.7380895,46.8644568 29.7380895,59.1953488 29.7380895,59.1953488 L34.6400681,54.2631038 C34.6400681,54.2631038 32.7483053,40.0150788 41.993036,34.5338442 C50.5716373,29.4473792 58.0778788,32.0677217 65.7373938,32.0677217 C86.2646721,32.0677217 92.0093778,24.2838042 91.0136547,14.8045846 C90.4983,9.89971922 83.0450934,-0.317353473 64.0524949,0.00757011354 C56.3877041,0.138601207 41.9935913,2.47369264 34.538441,6.37836335 Z" id="Path" fill="#694B4B"></path>
                        <path d="M33.0942996,30.1663681 C33.0942996,30.1663681 30.4943704,19.929805 38.1411395,9.31162791 C21.7773031,21.3814895 24.8357335,42.0836394 24.8357335,42.0836394 C29.7295549,46.9726201 29.7295549,59.1953488 29.7295549,59.1953488 L34.6233762,54.3063681 C34.6233762,54.3063681 32.7347615,40.183323 41.9641082,34.7501683 C50.5284342,29.7083204 58.0221848,32.3056779 65.6689539,32.3056779 C69.0018197,32.3056779 71.9061228,32.0827466 74.4930233,31.7005786 C58.7110454,32.2289674 49.4076842,20.2862182 33.0942996,30.1663681 Z" id="Path" fill="#5A4146"></path>
                        <path d="M33.3665746,71.1674419 L29.708435,71.1674419 C28.3616009,71.1674419 27.2697674,70.0755809 27.2697674,68.7287129 L27.2697674,51.6573336 C27.2697674,50.3104656 28.3616009,49.2186047 29.708435,49.2186047 L33.3665746,49.2186047 C34.0398535,49.2186047 34.5860465,49.7645351 34.5860465,50.4381073 L34.5860465,69.9479392 C34.5857702,70.6217876 34.0398535,71.1674419 33.3665746,71.1674419 Z" id="Path" fill="#5B5D6E"></path>
                        <path d="M73.827907,85.8 L73.827907,82.1048165 C90.4490364,82.1048165 94.0883079,72.7690434 94.0883079,69.172093 L97.772093,69.172093 C97.7718148,73.7971422 93.4704024,85.8 73.827907,85.8 Z" id="Path" fill="#464655"></path>
                        <path d="M73.3844961,85.8 L70.9457364,85.8 C69.5988515,85.8 68.5069767,84.7577559 68.5069767,83.472093 C68.5069767,82.1864301 69.5988515,81.144186 70.9457364,81.144186 L73.3844961,81.144186 C74.7313811,81.144186 75.8232558,82.1864301 75.8232558,83.472093 C75.8232558,84.7577559 74.7311048,85.8 73.3844961,85.8 Z" id="Path" fill="#5B5D6E"></path>
                        <path d="M98.4372093,69.172093 L101.806305,67.3842984 C102.594845,66.9658962 103.093023,66.1106206 103.093023,65.1747431 L103.093023,55.8764197 C103.093023,54.9408221 102.594845,54.0852666 101.806305,53.6668644 L98.4372093,51.8790698 L98.4372093,69.172093 Z" id="Path" fill="#707487"></path>
                        <path d="M94.335751,71.1674419 L97.9938905,71.1674419 C99.3407246,71.1674419 100.432558,70.0755809 100.432558,68.7287129 L100.432558,51.6573336 C100.432558,50.3104656 99.3407246,49.2186047 97.9938905,49.2186047 L94.335751,49.2186047 C93.6624721,49.2186047 93.1162791,49.7645351 93.1162791,50.4381073 L93.1162791,69.9479392 C93.1165553,70.6217876 93.6624721,71.1674419 94.335751,71.1674419 Z" id="Path" fill="#5B5D6E"></path>
                        <path d="M95.9984803,137.67907 L78.9271011,137.67907 C77.5802331,137.67907 76.4883721,138.721314 76.4883721,140.006977 L76.4883721,142.334884 L98.4372093,142.334884 L98.4372093,140.006977 C98.4372093,138.721578 97.345072,137.67907 95.9984803,137.67907 Z" id="Path" fill="#A0D2F0"></path>
                        <g id="Group-38" transform="translate(45.000000, 48.000000)">
                            <path d="M10,4.9991479 C10,7.76111793 7.76111793,10 5.00085166,10 C2.23888207,10 0,7.76111793 0,4.9991479 C0,2.23888251 2.23888207,0 5.00085166,0 C7.76111793,0 10,2.23888251 10,4.9991479 Z" id="Path" fill="#3D4159"></path>
                            <path d="M9,4.00079497 C9,5.10457249 8.1045728,6 6.99920482,6 C5.8954272,6 5,5.10457249 5,4.00079497 C5,2.89542751 5.8954272,2 6.99920482,2 C8.1045728,2 9,2.89542751 9,4.00079497 Z" id="Path" fill="#FFFFFF"></path>
                        </g>
                        <g id="Group-38" transform="translate(72.000000, 48.000000)">
                            <path d="M10,4.9991479 C10,7.76111793 7.76111793,10 5.00085166,10 C2.23888207,10 0,7.76111793 0,4.9991479 C0,2.23888251 2.23888207,0 5.00085166,0 C7.76111793,0 10,2.23888251 10,4.9991479 Z" id="Path" fill="#3D4159"></path>
                            <path d="M9,4.00079497 C9,5.10457249 8.1045728,6 6.99920482,6 C5.8954272,6 5,5.10457249 5,4.00079497 C5,2.89542751 5.8954272,2 6.99920482,2 C8.1045728,2 9,2.89542751 9,4.00079497 Z" id="Path" fill="#FFFFFF"></path>
                        </g>
                    </g>
                </g>
            </g>
        </g>
    </g>
</svg>