<?xml version="1.0" encoding="UTF-8"?>
<svg width="162px" height="143px" viewBox="0 0 162 143" version="1.1" xmlns="http://www.w3.org/2000/svg" xmlns:xlink="http://www.w3.org/1999/xlink">
    <g id="Page-1" stroke="none" stroke-width="1" fill="none" fill-rule="evenodd">
        <g id="Главная-страница" transform="translate(-875.000000, -3282.000000)">
            <g id="customer-problems" transform="translate(320.000000, 3282.000000)">
                <g id="Group-27" transform="translate(434.000000, 0.000000)">
                    <g id="sun-umbrella" transform="translate(121.000000, 0.000000)">
                        <path d="M81,120.917308 L108.961163,50.6127904 C110.13114,47.671028 113.459377,46.2365 116.394888,47.408969 C119.330398,48.581438 120.761877,51.9167631 119.5919,54.8585255 L92.8887228,122 L81,120.917308 Z" id="Path" fill="#90A4AE"></path>
                        <path d="M91.9957368,60.0099218 C91.9985789,60.0033073 92.0014211,59.9966927 92.0042632,59.9900782 C92.0014211,59.9903932 91.9985789,59.9910231 91.9960526,59.9913381 L91.9957368,60.0099218 Z" id="Path" fill="#FFF9C5"></path>
                        <path d="M115.46579,48.4049223 C112.587909,47.2441698 109.325012,48.6640496 108.178003,51.5767278 L101,69.8023259 C102.828905,70.098069 104.647914,70.6031794 106.438781,71.325794 C108.229648,72.0480956 109.900217,72.9472172 111.424201,74 L118.60004,55.7803481 C119.746739,52.8673569 118.343672,49.5656748 115.46579,48.4049223 Z" id="Path" fill="#000000" opacity="0.1"></path>
                        <path d="M126.60632,23 L105.442245,25.2634971 L92,40.8409794 L92.002215,60.6085604 L92.0117079,60.6047821 C92.0107586,60.6069861 92.0098093,60.6095049 92.0085436,60.6117089 C97.8789451,59.5270313 104.415114,60.0959754 110.741807,62.6050599 C117.028314,65.0980868 122.138968,69.1238309 125.648488,73.8885411 L125.709875,74 L136.766558,63.1072546 L138,35.9263979 L126.60632,23 Z" id="Path" fill="#FFF9C5"></path>
                        <path d="M146,133.020775 C138.331499,120.911397 112.359415,112 81.4995274,112 C50.6405853,112 24.669446,120.910774 17,133.01953 L21.308412,133.020775 L30.658375,138.944277 L40.489746,140 L47.4184917,136.045396 L58.4165207,132.082701 L64.3184939,133.665974 L76.8744825,140 L85.1560854,138.680346 L95.8418924,134.741616 L103.589158,132.346631 L113.473458,134.741616 L121.487892,140 L134.31105,138.416727 L146,133.020775 Z" id="Path" fill="#FFCA28"></path>
                        <path d="M135.191344,138 L146,133.019787 C138.317632,120.911289 112.298583,112 81.382893,112 C74.2746514,112 67.4268023,112.472127 61,113.34449 C92.8916099,116.950958 119.56527,125.994829 135.191344,138 Z" id="Path" fill="#000000" opacity="0.1"></path>
                        <path d="M160.957268,134.975145 C153.36746,129.674952 143.558739,129.674952 135.968931,134.975145 C129.999448,139.14369 122.285316,139.14369 116.315201,134.975145 C108.725394,129.674952 98.9166726,129.674952 91.326865,134.975145 C85.3573817,139.14369 77.6429338,139.14369 71.673135,134.975145 C64.0833274,129.674952 54.2746063,129.674952 46.6847987,134.975145 C40.7149999,139.14369 33.0008675,139.14369 27.0310688,134.975145 C19.4412612,129.674952 9.63254005,129.674952 2.04273245,134.975145 C0.956626028,135.733475 0.673266479,137.255011 1.40974887,138.373337 C2.14623126,139.491664 3.62424476,139.783105 4.71003564,139.025099 C10.6795189,134.856554 18.3939668,134.856229 24.3637656,139.025099 C31.9538887,144.324967 41.7626098,144.324967 49.3521019,139.025099 C55.3215851,134.856554 63.0360331,134.856229 69.0058318,139.025099 C76.595955,144.324967 86.4046761,144.324967 93.9941682,139.025099 C99.9636514,134.856554 107.678099,134.856229 113.647898,139.025099 C117.44296,141.675033 121.79275,143 126.142224,143 C130.491698,143 134.841488,141.675033 138.636234,139.025099 C144.605718,134.856554 152.320166,134.856554 158.289964,139.025099 C159.376386,139.783755 160.853769,139.491664 161.590251,138.373337 C162.326734,137.255336 162.043374,135.7338 160.957268,134.975145 Z" id="Path" fill="#1EB8E8"></path>
                        <g id="Group" transform="translate(58.000000, 19.000000)" fill="#EF495B">
                            <path d="M33.950795,41.1788571 C30.4352795,36.397235 25.2921988,32.3557788 18.9590124,29.8585806 C12.6226584,27.360129 6.07565217,26.7945069 0.197347826,27.8759263 C0.197347826,27.8759263 28.721236,-11.9717604 68.5924658,3.74846083 C68.5924658,3.74846083 47.6834161,9.28090323 33.9488944,41.2020461 L33.950795,41.1788571 Z" id="Path"></path>
                            <path d="M67.7093106,54.4889954 C73.5860311,53.4100829 80.129236,53.9763318 86.4627391,56.47353 C92.7990932,58.9719816 97.9447081,63.0159447 101.459273,67.8010138 C101.459273,67.8010138 108.463062,19.4683687 68.5918323,3.7478341 C68.5918323,3.7478341 79.9217516,21.9912627 67.6950559,54.5065438 L67.7093106,54.4889954 Z" id="Path"></path>
                        </g>
                        <g id="Group-sun">
                            <path d="M26.9045581,9.73654335 C25.5988256,9.73654335 24.5404884,8.68401156 24.5404884,7.38613873 L24.5404884,2.65786127 C24.5404884,1.3596763 25.5991395,0.307456647 26.9045581,0.307456647 C28.2099767,0.307456647 29.2686279,1.35998844 29.2686279,2.65786127 L29.2686279,7.38613873 C29.2686279,8.6843237 28.2099767,9.73654335 26.9045581,9.73654335 Z" id="Path" fill="#FF9800"></path>
                            <path d="M40.8940116,15.498 C40.2890233,15.498 39.6840349,15.268578 39.2225233,14.809422 C38.299186,13.891422 38.299186,12.4031445 39.2225233,11.4851445 L42.5852791,8.14182659 C43.5086163,7.22382659 45.0055465,7.22382659 45.9285698,8.14182659 C46.851907,9.05982659 46.851907,10.548104 45.9285698,11.466104 L42.565814,14.809422 C42.1039884,15.268578 41.499,15.498 40.8940116,15.498 Z" id="Path" fill="#FF9800"></path>
                            <path d="M51.4444186,29.4069017 L46.6889651,29.4069017 C45.3832326,29.4069017 44.3248953,28.3543699 44.3248953,27.0564971 C44.3248953,25.7586243 45.3835465,24.7060925 46.6889651,24.7060925 L51.4444186,24.7060925 C52.7501512,24.7060925 53.8084884,25.7586243 53.8084884,27.0564971 C53.8084884,28.3543699 52.7501512,29.4069017 51.4444186,29.4069017 Z" id="Path" fill="#FF9800"></path>
                            <path d="M44.2567674,46.6591214 C43.6517791,46.6591214 43.0464767,46.4296994 42.5852791,45.9705434 L39.2225233,42.6272254 C38.299186,41.7092254 38.299186,40.220948 39.2225233,39.302948 C40.1458605,38.384948 41.6427907,38.384948 42.565814,39.302948 L45.9285698,42.6462659 C46.851907,43.5642659 46.851907,45.0525434 45.9285698,45.9705434 C45.4667442,46.4293873 44.8620698,46.6591214 44.2567674,46.6591214 Z" id="Path" fill="#FF9800"></path>
                            <path d="M26.9045581,53.8049133 C25.5988256,53.8049133 24.5404884,52.7523815 24.5404884,51.4545087 L24.5404884,46.7262312 C24.5404884,45.4280462 25.5991395,44.3758266 26.9045581,44.3758266 C28.2099767,44.3758266 29.2686279,45.4283584 29.2686279,46.7262312 L29.2686279,51.4545087 C29.2686279,52.7530058 28.2099767,53.8049133 26.9045581,53.8049133 Z" id="Path" fill="#FF9800"></path>
                            <path d="M9.55172093,46.6591214 C8.94673256,46.6591214 8.34174419,46.4296994 7.88023256,45.9705434 C6.95689535,45.0525434 6.95689535,43.5642659 7.88023256,42.6462659 L11.2426744,39.302948 C12.1660116,38.384948 13.6629419,38.384948 14.5859651,39.302948 C15.5093023,40.220948 15.5093023,41.7092254 14.5859651,42.6272254 L11.2235233,45.9705434 C10.7620116,46.4293873 10.1570233,46.6591214 9.55172093,46.6591214 Z" id="Path" fill="#FF9800"></path>
                            <path d="M7.11983721,29.4069017 L2.36406977,29.4069017 C1.05833721,29.4069017 0,28.3543699 0,27.0564971 C0,25.7586243 1.05865116,24.7060925 2.36406977,24.7060925 L7.11983721,24.7060925 C8.42556977,24.7060925 9.48390698,25.7586243 9.48390698,27.0564971 C9.48390698,28.3543699 8.42556977,29.4069017 7.11983721,29.4069017 Z" id="Path" fill="#FF9800"></path>
                            <path d="M12.9144767,15.498 C12.3094884,15.498 11.7045,15.268578 11.2429884,14.809422 L7.88023256,11.4664162 C6.95689535,10.5484162 6.95689535,9.06013873 7.88023256,8.14213873 C8.80356977,7.22413873 10.3005,7.22413873 11.2235233,8.14213873 L14.5859651,11.4854566 C15.5093023,12.4034566 15.5093023,13.8917341 14.5859651,14.8097341 C14.1247674,15.268578 13.5194651,15.498 12.9144767,15.498 Z" id="Path" fill="#FF9800"></path>
                            <circle id="Oval" fill="#FFCA28" cx="27" cy="27" r="13"></circle>
                            <animateTransform attributeName="transform"
                                type="rotate"
                                from="0 27 27"
                                to="360 27 27"
                                begin="0s"
                                dur="6s"
                                repeatCount="indefinite"
                            />
                        </g>
                    </g>
                </g>
            </g>
        </g>
    </g>
</svg>