<svg width="26" height="30" viewBox="0 0 26 30" fill="none" xmlns="http://www.w3.org/2000/svg">
<path fill-rule="evenodd" clip-rule="evenodd" d="M23.0711 13.0991C23.478 12.3388 23.7092 11.4704 23.7092 10.5478C23.7092 7.57874 21.3203 5.16907 18.36 5.13313C18.2126 2.27325 15.8473 0 12.951 0C10.0546 0 7.68951 2.27325 7.54189 5.13313C4.58176 5.16907 2.19269 7.57874 2.19269 10.5478C2.19269 11.4704 2.42409 12.3388 2.83104 13.0991C1.16089 14.0218 0.0292969 15.7997 0.0292969 17.8427C0.0292969 20.8342 2.4543 23.2592 5.44579 23.2592H20.4563C23.4476 23.2592 25.8728 20.8342 25.8728 17.8427C25.8728 15.7997 24.7412 14.0218 23.0711 13.0991Z" fill="#FF9216"/>
<path fill-rule="evenodd" clip-rule="evenodd" d="M12.9513 0C11.228 0 9.82109 2.27371 9.73366 5.13313C7.97287 5.1693 6.5522 7.57874 6.5522 10.5478C6.5522 11.4704 6.68976 12.3386 6.93169 13.0989C5.93811 14.0215 5.2652 15.7997 5.2652 17.8427C5.2652 20.8344 6.70761 23.2592 8.48671 23.2592H5.44579C2.45407 23.2592 0.0292969 20.8344 0.0292969 17.8427C0.0292969 15.7997 1.16066 14.0215 2.83058 13.0989C2.42409 12.3386 2.19269 11.4704 2.19269 10.5478C2.19269 7.57874 4.58153 5.1693 7.54189 5.13313C7.68951 2.27371 10.0543 0 12.9513 0Z" fill="#E8590C"/>
<path fill-rule="evenodd" clip-rule="evenodd" d="M17.7742 15.7301C17.5007 15.1117 16.7777 14.832 16.1592 15.1055L14.2238 15.9615V12.2406C14.2238 11.5645 13.6756 11.0163 12.9995 11.0163H12.9993C12.3232 11.0163 11.775 11.5645 11.775 12.2406V15.9615L9.83958 15.1055C9.22114 14.832 8.4981 15.1117 8.22459 15.7301C7.95107 16.3483 8.23054 17.0714 8.84898 17.3449L11.775 18.6392V30H14.2238V18.6392L17.1498 17.3449C17.768 17.0714 18.0477 16.3483 17.7742 15.7301Z" fill="#936A60"/>
<path fill-rule="evenodd" clip-rule="evenodd" d="M14.2236 16.4083L17.1577 15.1105C16.8514 14.9725 16.4905 14.959 16.1591 15.1055L14.2236 15.9615L14.2236 16.4083Z" fill="#7C4242"/>
<path fill-rule="evenodd" clip-rule="evenodd" d="M9.85903 17.3449C9.24059 17.0714 8.96113 16.3484 9.23464 15.7301C9.36144 15.4431 9.58575 15.2303 9.85102 15.1106L9.83958 15.1055C9.22114 14.832 8.4981 15.1117 8.22459 15.7301C7.95107 16.3484 8.23054 17.0714 8.84898 17.3449L11.775 18.6392V30H12.7851V18.6392L9.85903 17.3449Z" fill="#7C4242"/>
<path fill-rule="evenodd" clip-rule="evenodd" d="M12.785 16.4083V12.2408C12.785 11.7448 13.0804 11.3187 13.5043 11.1264C13.3503 11.0564 13.1796 11.0165 12.9994 11.0165H12.9992C12.3231 11.0165 11.7749 11.5647 11.7749 12.2408V15.9618L12.785 16.4083Z" fill="#7C4242"/>
<path fill-rule="evenodd" clip-rule="evenodd" d="M18.3864 10.9552C18.2688 10.9552 18.1514 10.9104 18.0617 10.8209C17.8824 10.6414 17.8824 10.3507 18.0617 10.1715L19.2095 9.02369C19.3887 8.84448 19.6796 8.84448 19.8588 9.02369C20.0381 9.20314 20.0381 9.49382 19.8588 9.67303L18.711 10.8209C18.6213 10.9104 18.5039 10.9552 18.3864 10.9552Z" fill="#E8590C"/>
<path fill-rule="evenodd" clip-rule="evenodd" d="M22.0593 18.4847C21.9419 18.4847 21.8242 18.4398 21.7345 18.3501C21.5553 18.1709 21.5553 17.8802 21.7345 17.701L22.8824 16.5532C23.0618 16.3737 23.3525 16.3737 23.5317 16.5532C23.7109 16.7324 23.7109 17.0233 23.5317 17.2025L22.3838 18.3501C22.2944 18.4398 22.1767 18.4847 22.0593 18.4847Z" fill="#E8590C"/>
<path fill-rule="evenodd" clip-rule="evenodd" d="M7.36783 9.66982C7.25041 9.66982 7.13277 9.62495 7.04327 9.53523C6.86383 9.35602 6.86383 9.06511 7.04327 8.88589L8.19089 7.73828C8.37033 7.55884 8.66101 7.55884 8.84023 7.73828C9.01967 7.9175 9.01967 8.20818 8.84023 8.38739L7.69238 9.53523C7.60289 9.62495 7.48547 9.66982 7.36783 9.66982Z" fill="#E8590C"/>
<path fill-rule="evenodd" clip-rule="evenodd" d="M10.1225 8.9042C10.0051 8.9042 9.88771 8.85934 9.79799 8.76985C9.61877 8.5904 9.61877 8.29972 9.79799 8.12051L10.9458 6.97267C11.125 6.79345 11.4157 6.79345 11.5952 6.97267C11.7744 7.15211 11.7744 7.44279 11.5952 7.62201L10.4473 8.76985C10.3576 8.85934 10.2402 8.9042 10.1225 8.9042Z" fill="#E8590C"/>
<path fill-rule="evenodd" clip-rule="evenodd" d="M5.66893 21.1015C5.55151 21.1015 5.43409 21.0569 5.34437 20.9672C5.16516 20.7877 5.16516 20.4971 5.34437 20.3178L6.49221 19.17C6.67143 18.9908 6.96211 18.9908 7.14132 19.17C7.32077 19.3494 7.32077 19.6401 7.14132 19.8193L5.99371 20.9672C5.90399 21.0569 5.78657 21.1015 5.66893 21.1015Z" fill="#E8590C"/>
</svg>
