<svg width="30" height="30" viewBox="0 0 30 30" fill="none" xmlns="http://www.w3.org/2000/svg">
<path fill-rule="evenodd" clip-rule="evenodd" d="M29.6972 17.6723L26.4881 14.8416L29.5837 11.8885C29.6975 11.78 29.7443 11.6195 29.7067 11.4673C29.6691 11.3151 29.5527 11.1945 29.4014 11.1508L25.2813 9.96182L26.8041 5.97416C26.86 5.82768 26.8331 5.66268 26.7335 5.54121C26.6339 5.41981 26.4767 5.36045 26.3211 5.38553L22.0863 6.06826L21.7419 1.81664C21.7292 1.66043 21.6337 1.52279 21.4914 1.45564C21.3491 1.3885 21.1814 1.40191 21.0517 1.49086L17.5205 3.91324L15.3755 0.219258C15.2967 0.0835547 15.151 0 14.9934 0C14.8358 0 14.6903 0.0835547 14.6115 0.219258L12.1492 4.45957L7.88999 2.00139C7.75364 1.9227 7.58548 1.92234 7.4489 2.00033C7.3122 2.07832 7.22782 2.22293 7.22741 2.37961L7.2171 6.64494L2.94181 6.29256C2.78507 6.27967 2.63273 6.35098 2.54296 6.47971C2.45314 6.60844 2.43919 6.77508 2.50651 6.91676L4.3371 10.7743L0.322667 12.279C0.175245 12.3343 0.0686632 12.4636 0.0429992 12.6182C0.0173351 12.7728 0.0766906 12.9292 0.198624 13.0286L3.51614 15.7328L0.538819 18.8037C0.429484 18.9165 0.388878 19.0787 0.432413 19.2293C0.476007 19.3799 0.597062 19.4959 0.749933 19.5336L4.91331 20.562L3.54837 24.6056C3.49821 24.7542 3.53161 24.918 3.63591 25.0355C3.74026 25.153 3.8997 25.2062 4.05409 25.175L8.25878 24.3288L8.76978 28.5638C8.78847 28.7194 8.88937 28.8531 9.03421 28.9148C9.17917 28.9764 9.3461 28.9565 9.4722 28.8626L12.9056 26.3051L15.1939 29.7953C15.2749 29.923 15.4159 29.9999 15.567 29.9999C15.5727 29.9999 15.5785 29.9998 15.5843 29.9996C15.7417 29.9935 15.884 29.9043 15.9574 29.7657L17.9559 26.1091L21.5792 28.3928C21.7124 28.4767 21.8802 28.4836 22.02 28.4109C22.1596 28.3383 22.2496 28.1971 22.2561 28.0405L22.4337 23.7787L26.692 24.2967C26.8481 24.3157 27.0031 24.2504 27.0979 24.1252C27.1927 24 27.2131 23.8341 27.1515 23.6899L25.4736 19.7643L29.5438 18.4164C29.6933 18.3669 29.8049 18.2419 29.8366 18.0884C29.8682 17.935 29.8151 17.7763 29.6972 17.6723Z" fill="#FFA600"/>
<path fill-rule="evenodd" clip-rule="evenodd" d="M14.8449 24.0023C19.863 24.0023 23.9309 19.9375 23.9309 14.9233C23.9309 9.90906 19.863 5.84424 14.8449 5.84424C9.82676 5.84424 5.75879 9.90906 5.75879 14.9233C5.75879 19.9375 9.82676 24.0023 14.8449 24.0023Z" fill="#FFDB2D"/>
<path fill-rule="evenodd" clip-rule="evenodd" d="M14.8448 5.8443C14.6172 5.8443 14.3918 5.85291 14.1685 5.86938C18.8706 6.21514 22.5781 10.1365 22.5781 14.9233C22.5781 19.7102 18.8706 23.6315 14.1685 23.9773C14.3918 23.9937 14.6173 24.0024 14.8448 24.0024C19.8628 24.0024 23.9308 19.9376 23.9308 14.9234C23.9308 9.90912 19.8628 5.8443 14.8448 5.8443Z" fill="#FFCA00"/>
</svg>
