<svg width="30" height="30" viewBox="0 0 30 30" fill="none" xmlns="http://www.w3.org/2000/svg">
<rect width="30" height="30" fill="white"/>
<path fill-rule="evenodd" clip-rule="evenodd" d="M13.3589 0H15.2339V9.375H13.3589V0Z" fill="#7CB7F2"/>
<path fill-rule="evenodd" clip-rule="evenodd" d="M13.3589 20.625H15.2339V30H13.3589V20.625Z" fill="#7CB7F2"/>
<path fill-rule="evenodd" clip-rule="evenodd" d="M1.06055 7.87376L2.05206 6.28235L10.1799 11.345L9.18837 12.9364L1.06055 7.87376Z" fill="#7CB7F2"/>
<path fill-rule="evenodd" clip-rule="evenodd" d="M18.376 18.6733L19.3677 17.0822L27.5054 22.1539L26.5136 23.7451L18.376 18.6733Z" fill="#7CB7F2"/>
<path fill-rule="evenodd" clip-rule="evenodd" d="M1 22.1313L9.24135 17.0883L10.22 18.6875L1.9787 23.7305L1 22.1313Z" fill="#7CB7F2"/>
<path fill-rule="evenodd" clip-rule="evenodd" d="M18.4951 11.4153L26.5854 6.46478L27.5639 8.06421L19.4738 13.0147L18.4951 11.4153Z" fill="#7CB7F2"/>
<path fill-rule="evenodd" clip-rule="evenodd" d="M14.2963 6.9507L10.0439 2.69807L11.3696 1.37262L14.2963 4.29933L17.2233 1.37262L18.549 2.69807L14.2963 6.9507Z" fill="#92C5FF"/>
<path fill-rule="evenodd" clip-rule="evenodd" d="M17.2233 28.7879L14.2963 25.8609L11.3696 28.7879L10.0439 27.4622L14.2963 23.2098L18.549 27.4622L17.2233 28.7879Z" fill="#92C5FF"/>
<path fill-rule="evenodd" clip-rule="evenodd" d="M1.59798 12.1097L1.17432 10.2834L5.20653 9.34961L4.27269 5.31854L6.09894 4.89557L7.45644 10.7531L1.59798 12.1097Z" fill="#92C5FF"/>
<path fill-rule="evenodd" clip-rule="evenodd" d="M22.6076 25.2177L21.251 19.3602L27.1094 18.0038L27.5322 19.8301L23.5 20.7637L24.4338 24.795L22.6076 25.2177Z" fill="#92C5FF"/>
<path fill-rule="evenodd" clip-rule="evenodd" d="M6.01544 25.1502L4.19194 24.7115L5.15942 20.6877L1.13477 19.7202L1.57353 17.8979L7.42055 19.3023L6.01544 25.1502Z" fill="#92C5FF"/>
<path fill-rule="evenodd" clip-rule="evenodd" d="M27.1325 12.2157L21.2861 10.8112L22.6915 4.96399L24.5141 5.40276L23.5475 9.42558L27.5712 10.3931L27.1325 12.2157Z" fill="#92C5FF"/>
<path fill-rule="evenodd" clip-rule="evenodd" d="M4.92139 14.0625H6.79639V15.9375H4.92139V14.0625Z" fill="#92C5FF"/>
<path fill-rule="evenodd" clip-rule="evenodd" d="M21.7964 14.0625H23.6714V15.9375H21.7964V14.0625Z" fill="#92C5FF"/>
<path fill-rule="evenodd" clip-rule="evenodd" d="M14.2964 21.7181L8.67139 18.343V11.657L14.2964 8.28186L19.9214 11.657V18.343L14.2964 21.7181Z" fill="#92C5FF"/>
<path fill-rule="evenodd" clip-rule="evenodd" d="M16.1714 12.1875H18.0464V14.0625H16.1714V12.1875Z" fill="white"/>
<path fill-rule="evenodd" clip-rule="evenodd" d="M12.4214 15H14.2964V16.875H12.4214V15Z" fill="white"/>
</svg>
