<svg width="21" height="30" viewBox="0 0 21 30" fill="none" xmlns="http://www.w3.org/2000/svg">
<path fill-rule="evenodd" clip-rule="evenodd" d="M2.06885 12.4138C3.78271 12.4138 5.1723 13.8034 5.1723 15.5173V20.6897H2.06885V12.4138Z" fill="#F9E109"/>
<path fill-rule="evenodd" clip-rule="evenodd" d="M8.27581 20.6897H5.17236V15.5173C5.17236 13.8034 6.56194 12.4138 8.27581 12.4138V20.6897Z" fill="#F9E109"/>
<path fill-rule="evenodd" clip-rule="evenodd" d="M5.68945 13.8052V13.9655C5.69072 15.6506 6.71358 17.1665 8.27566 17.7984V12.4138C7.23486 12.4146 6.26377 12.9371 5.68945 13.8052Z" fill="#FCBC04"/>
<path fill-rule="evenodd" clip-rule="evenodd" d="M0.51709 14.4828C3.08814 14.4828 5.17226 16.5669 5.17226 19.138V21.7242H4.13778C2.13802 21.7242 0.51709 20.1032 0.51709 18.1035V14.4828Z" fill="#FCBC04"/>
<path fill-rule="evenodd" clip-rule="evenodd" d="M6.72409 21.7242H5.17236V19.138C5.17236 16.5669 7.25648 14.4828 9.82754 14.4828V18.6207C9.82754 20.3346 8.43795 21.7242 6.72409 21.7242Z" fill="#FCBC04"/>
<path fill-rule="evenodd" clip-rule="evenodd" d="M6.29492 16.112C7.04427 17.3471 8.38333 18.1017 9.82772 18.1035V14.4828C8.4687 14.4843 7.17837 15.0793 6.29492 16.112Z" fill="#E59730"/>
<path fill-rule="evenodd" clip-rule="evenodd" d="M4.1377 21.7241H6.20666V30H4.1377V21.7241Z" fill="#A1D51C"/>
<path fill-rule="evenodd" clip-rule="evenodd" d="M0 25.3448H1.03448C2.74835 25.3448 4.13793 26.7344 4.13793 28.4483H3.10345C1.38958 28.4483 0 27.0587 0 25.3448Z" fill="#A1D51C"/>
<path fill-rule="evenodd" clip-rule="evenodd" d="M3.10345 27.4138C1.78964 27.4123 0.619023 26.5837 0.181085 25.3448H0C0 27.0587 1.38958 28.4483 3.10345 28.4483H4.13793C4.13667 28.0957 4.07555 27.7459 3.95685 27.4138H3.10345Z" fill="#7AB92D"/>
<path fill-rule="evenodd" clip-rule="evenodd" d="M6.20685 22.7586V28.9655C5.63556 28.9655 5.17236 28.5023 5.17236 27.931V23.7931C5.17236 23.2218 5.63556 22.7586 6.20685 22.7586Z" fill="#C4F236"/>
<path fill-rule="evenodd" clip-rule="evenodd" d="M1.55157 16.5518V14.6017C1.21239 14.5224 0.865369 14.4825 0.51709 14.4828V18.1035C0.51709 20.1032 2.13802 21.7242 4.13778 21.7242H5.17226V20.6536C3.10481 20.3929 1.55334 18.6356 1.55157 16.5518Z" fill="#E59730"/>
<path fill-rule="evenodd" clip-rule="evenodd" d="M5.17236 20.6536V21.7242H6.72409C7.60501 21.7224 8.44376 21.3463 9.03096 20.6897H5.6896C5.5166 20.6882 5.34385 20.676 5.17236 20.6536Z" fill="#E59730"/>
<path fill-rule="evenodd" clip-rule="evenodd" d="M10.8623 0C13.719 0 16.0347 2.31572 16.0347 5.17241V10.3448H10.8623V0Z" fill="#F1A6BE"/>
<path fill-rule="evenodd" clip-rule="evenodd" d="M8.27588 2.06897C11.1326 2.06897 13.4483 4.38469 13.4483 7.24138V12.4138H8.27588V2.06897Z" fill="#CE5983"/>
<path fill-rule="evenodd" clip-rule="evenodd" d="M18.6207 12.4138H13.4482V7.24138C13.4482 4.38469 15.764 2.06897 18.6207 2.06897V12.4138Z" fill="#CE5983"/>
<path fill-rule="evenodd" clip-rule="evenodd" d="M6.20703 5.17242C10.2063 5.17242 13.4484 8.41453 13.4484 12.4138V16.5517H10.345C8.05955 16.5517 6.20703 14.6992 6.20703 12.4138V5.17242Z" fill="#E76B93"/>
<path fill-rule="evenodd" clip-rule="evenodd" d="M16.5517 16.5517H13.4482V12.4138C13.4482 8.41453 16.6903 5.17242 20.6896 5.17242V12.4138C20.6896 14.6992 18.8371 16.5517 16.5517 16.5517Z" fill="#E76B93"/>
<path fill-rule="evenodd" clip-rule="evenodd" d="M12.4136 16.5517H14.4825V30H12.4136V16.5517Z" fill="#A1D51C"/>
<path fill-rule="evenodd" clip-rule="evenodd" d="M18.6208 23.7931H20.6898C20.6898 26.0785 18.8373 27.931 16.5519 27.931H14.4829C14.4829 25.6456 16.3354 23.7931 18.6208 23.7931Z" fill="#A1D51C"/>
<path fill-rule="evenodd" clip-rule="evenodd" d="M12.4139 27.931H10.345C8.05955 27.931 6.20703 26.0785 6.20703 23.7931H8.276C10.5614 23.7931 12.4139 25.6456 12.4139 27.931Z" fill="#A1D51C"/>
<path fill-rule="evenodd" clip-rule="evenodd" d="M16.5519 26.3793H14.788C14.5862 26.8718 14.4827 27.3989 14.4829 27.931H16.5519C18.8373 27.931 20.6898 26.0785 20.6898 23.7931H20.3847C19.7528 25.3552 18.237 26.378 16.5519 26.3793Z" fill="#7AB92D"/>
<path fill-rule="evenodd" clip-rule="evenodd" d="M10.345 26.3793C8.65989 26.378 7.14403 25.3552 6.51212 23.7931H6.20703C6.20703 26.0785 8.05955 27.931 10.345 27.931H12.4139C12.4142 27.3989 12.3106 26.8718 12.1088 26.3793H10.345Z" fill="#7AB92D"/>
<path fill-rule="evenodd" clip-rule="evenodd" d="M14.4827 18.1035V26.3793C13.9114 26.3793 13.4482 25.9161 13.4482 25.3448V19.1379C13.4482 18.5666 13.9114 18.1035 14.4827 18.1035Z" fill="#C4F236"/>
<path fill-rule="evenodd" clip-rule="evenodd" d="M7.75876 8.27587V5.34315C7.24909 5.23102 6.72882 5.17369 6.20703 5.17242V12.4138C6.20703 14.6992 8.05955 16.5517 10.345 16.5517H13.4484V14.9121C10.1765 14.4027 7.76254 11.5872 7.75876 8.27587Z" fill="#CE5983"/>
<path fill-rule="evenodd" clip-rule="evenodd" d="M14.4827 15C14.1362 14.997 13.7902 14.9677 13.4482 14.9121V16.5517H16.5517C17.8072 16.551 18.9944 15.9802 19.7794 15H14.4827Z" fill="#CE5983"/>
<path fill-rule="evenodd" clip-rule="evenodd" d="M8.27588 2.06897V3.62069C11.1326 3.62069 13.4483 5.93641 13.4483 8.79311V7.24138C13.4483 4.38469 11.1326 2.06897 8.27588 2.06897Z" fill="#E76B93"/>
<path fill-rule="evenodd" clip-rule="evenodd" d="M13.4482 7.24138V8.79311C13.4482 5.93641 15.764 3.62069 18.6207 3.62069V2.06897C15.764 2.06897 13.4482 4.38469 13.4482 7.24138Z" fill="#E76B93"/>
</svg>
